<svg width="39" height="49" viewBox="0 0 39 49" fill="none" xmlns="http://www.w3.org/2000/svg">
<g id="128">
<g id="Group 1187">
<g id="Group 1184">
<path id="Path 744" d="M10.317 26.317L2.93 42.158C2.74986 42.5448 2.688 42.9763 2.75218 43.3982C2.81636 43.82 3.00372 44.2136 3.29075 44.5293C3.57779 44.8451 3.95171 45.069 4.36557 45.1731C4.77943 45.2771 5.21479 45.2565 5.61702 45.114L8.71701 44.014C8.86916 43.9597 9.03657 43.9676 9.18295 44.0359C9.32933 44.1043 9.44288 44.2275 9.49901 44.379L10.648 47.455C10.7969 47.855 11.0608 48.202 11.4064 48.4524C11.752 48.7028 12.1639 48.8454 12.5904 48.8623C13.0169 48.8792 13.4388 48.7696 13.8031 48.5473C14.1675 48.325 14.4579 48 14.638 47.613L22.025 31.772L10.317 26.317Z" fill="#FC6559"/>
</g>
<g id="Group 1185">
<path id="Path 745" d="M5.61805 45.114L8.71805 44.014C8.86968 43.9601 9.03644 43.968 9.18224 44.0361C9.32804 44.1043 9.44114 44.2271 9.49705 44.378L10.6471 47.457C10.7965 47.8571 11.0608 48.204 11.4068 48.4544C11.7528 48.7048 12.165 48.8475 12.5917 48.8645C13.0184 48.8815 13.4407 48.772 13.8054 48.5499C14.1702 48.3278 14.4613 48.0029 14.6421 47.616C15.3991 45.992 11.904 53.491 22.027 31.773L10.3221 26.317L6.09205 35.382L2.93705 42.153C2.75625 42.5395 2.69362 42.9707 2.75701 43.3926C2.8204 43.8146 3.00697 44.2084 3.29334 44.5246C3.57971 44.8409 3.95311 45.0656 4.36669 45.1704C4.78027 45.2753 5.21559 45.2557 5.61805 45.114Z" fill="#FC6559"/>
</g>
<g id="Group 1186">
<path id="Path 746" d="M5.61803 45.114L8.71804 44.014C8.86966 43.9601 9.03642 43.968 9.18222 44.0361C9.32803 44.1043 9.44112 44.2271 9.49703 44.378L10.647 47.457C10.7965 47.8571 11.0608 48.204 11.4068 48.4544C11.7527 48.7048 12.1649 48.8475 12.5917 48.8645C13.0184 48.8815 13.4407 48.772 13.8054 48.5499C14.1702 48.3278 14.4612 48.0029 14.642 47.616L14.861 47.139C14.3995 47.1707 13.9402 47.0512 13.5526 46.7986C13.1651 46.546 12.8703 46.1741 12.713 45.739L11.563 42.667C11.5077 42.5152 11.3949 42.3913 11.249 42.3219C11.1031 42.2525 10.9357 42.2432 10.783 42.296L7.68903 43.396C7.28699 43.5397 6.85144 43.5614 6.43711 43.4583C6.02278 43.3553 5.64815 43.1321 5.36029 42.8167C5.07243 42.5014 4.88417 42.108 4.81919 41.6861C4.7542 41.2641 4.81538 40.8323 4.99503 40.445L6.57404 37.061C6.72952 36.7274 7.00771 36.4667 7.35067 36.3331C7.69362 36.1995 8.07488 36.2034 8.41503 36.344L10.397 38.334C10.6968 38.6345 11.053 38.8727 11.4451 39.035C11.8373 39.1974 12.2576 39.2806 12.682 39.28H15.497L18.039 40.332L22.027 31.775L11.353 26.8L10.317 26.315L6.08704 35.38L2.93204 42.151C2.7499 42.538 2.68641 42.9703 2.74959 43.3933C2.81277 43.8163 2.99979 44.2112 3.28707 44.5281C3.57434 44.845 3.94901 45.0698 4.36383 45.174C4.77866 45.2783 5.21506 45.2574 5.61803 45.114Z" fill="#F05543"/>
</g>
</g>
<g id="Group 1191">
<g id="Group 1188">
<path id="Path 747" d="M28.349 26.317L35.736 42.158C35.9161 42.5448 35.978 42.9763 35.9138 43.3982C35.8497 43.82 35.6623 44.2136 35.3752 44.5293C35.0882 44.8451 34.7143 45.069 34.3004 45.1731C33.8866 45.2771 33.4512 45.2565 33.049 45.114L29.949 44.014C29.7968 43.9597 29.6294 43.9676 29.483 44.0359C29.3367 44.1043 29.2231 44.2275 29.167 44.379L28.018 47.455C27.8691 47.855 27.6052 48.202 27.2596 48.4524C26.914 48.7028 26.5021 48.8454 26.0756 48.8623C25.6491 48.8792 25.2272 48.7696 24.8629 48.5473C24.4985 48.325 24.208 48 24.028 47.613L16.641 31.772L28.349 26.317Z" fill="#FC6559"/>
</g>
<g id="Group 1189">
<path id="Path 748" d="M33.048 45.114L29.948 44.014C29.7964 43.9601 29.6296 43.968 29.4838 44.0361C29.338 44.1043 29.2249 44.2271 29.169 44.378L28.019 47.457C27.8695 47.8571 27.6052 48.204 27.2593 48.4544C26.9133 48.7048 26.5011 48.8475 26.0744 48.8645C25.6476 48.8815 25.2254 48.772 24.8606 48.5499C24.4959 48.3278 24.2048 48.0029 24.024 47.616L16.64 31.773L28.34 26.317C29.096 27.937 25.605 20.451 35.725 42.153C35.9052 42.5391 35.9676 42.9697 35.9043 43.3911C35.8409 43.8124 35.6548 44.2057 35.369 44.5218C35.0833 44.8378 34.7107 45.0626 34.2978 45.1679C33.885 45.2733 33.4503 45.2545 33.048 45.114Z" fill="#FC6559"/>
</g>
<g id="Group 1190">
<path id="Path 749" d="M33.048 45.114L29.948 44.014C29.7964 43.9601 29.6296 43.968 29.4838 44.0361C29.338 44.1043 29.2249 44.2271 29.169 44.378L28.019 47.457C27.8695 47.8571 27.6052 48.2041 27.2593 48.4544C26.9133 48.7048 26.5011 48.8475 26.0744 48.8645C25.6476 48.8815 25.2254 48.772 24.8606 48.5499C24.4959 48.3278 24.2048 48.0029 24.024 47.616L23.805 47.139C24.2665 47.1707 24.7258 47.0512 25.1134 46.7986C25.501 46.546 25.7957 46.1741 25.953 45.739L27.103 42.667C27.1584 42.5152 27.2712 42.3913 27.4171 42.3219C27.563 42.2525 27.7303 42.2432 27.883 42.296L30.977 43.396C31.3791 43.5397 31.8146 43.5614 32.2289 43.4584C32.6433 43.3553 33.0179 43.1321 33.3058 42.8168C33.5936 42.5014 33.7819 42.1081 33.8468 41.6861C33.9118 41.2641 33.8507 40.8323 33.671 40.445L32.092 37.061C31.9365 36.7274 31.6583 36.4667 31.3154 36.3331C30.9724 36.1995 30.5912 36.2034 30.251 36.344L28.269 38.334C27.9692 38.6345 27.6131 38.8727 27.2209 39.035C26.8288 39.1974 26.4084 39.2806 25.984 39.28H23.169L20.627 40.332L16.64 31.775L27.308 26.804L28.344 26.319C29.1 27.939 25.609 20.453 35.729 42.155C35.9092 42.5414 35.9714 42.9723 35.9077 43.3939C35.844 43.8155 35.6574 44.2089 35.3711 44.5248C35.0849 44.8407 34.7117 45.0652 34.2985 45.17C33.8852 45.2748 33.4503 45.2553 33.048 45.114Z" fill="#F05543"/>
</g>
</g>
<g id="Group 1192">
<path id="Path 750" d="M38.309 20.633L37.154 23.419C37.131 23.4883 37.1195 23.561 37.12 23.634V26.646C37.1173 27.0961 36.9377 27.5271 36.62 27.846L34.491 29.975C34.4331 30.0272 34.39 30.0938 34.366 30.168L33.211 32.943C33.1271 33.1511 33.0015 33.3398 32.8419 33.4975C32.6823 33.6552 32.4921 33.7786 32.283 33.86L29.508 35.015C29.4374 35.0456 29.3725 35.0878 29.316 35.14L27.198 37.269C26.8756 37.5888 26.4401 37.7685 25.986 37.769H22.986C22.9079 37.7664 22.8302 37.7818 22.759 37.814L19.985 38.969C19.5629 39.1357 19.0932 39.1357 18.671 38.969L15.897 37.814C15.8297 37.783 15.7562 37.7676 15.682 37.769H12.67C12.2164 37.7662 11.7817 37.5869 11.458 37.269L9.32901 35.14C9.27849 35.0857 9.21672 35.043 9.14801 35.015L6.37401 33.86C6.16473 33.7787 5.97433 33.6554 5.81455 33.4977C5.65477 33.34 5.52901 33.1512 5.44503 32.943L4.29001 30.157C4.26305 30.0875 4.22026 30.0251 4.16501 29.975L2.04802 27.846C1.88637 27.6908 1.75784 27.5045 1.67019 27.2982C1.58253 27.092 1.53757 26.8701 1.53801 26.646V23.634C1.539 23.5609 1.52751 23.4882 1.50402 23.419L0.349019 20.633C0.179803 20.2162 0.179803 19.7498 0.349019 19.333L1.50402 16.547C1.52734 16.4778 1.53883 16.4051 1.53801 16.332V13.32C1.53768 13.0959 1.58271 12.8741 1.67035 12.6679C1.758 12.4617 1.88647 12.2753 2.04802 12.12L4.16501 9.991C4.22312 9.93935 4.2663 9.87306 4.29001 9.79902L5.44503 7.02399C5.53081 6.81686 5.65721 6.62903 5.81676 6.47153C5.97632 6.31404 6.16578 6.19008 6.37401 6.107L9.14801 4.952C9.21672 4.924 9.27849 4.88134 9.32901 4.827L11.458 2.698C11.7817 2.38013 12.2164 2.20079 12.67 2.198H15.683C15.7572 2.1994 15.8307 2.18403 15.898 2.15302L18.672 1.00001C19.0935 0.829954 19.5645 0.829954 19.986 1.00001L22.76 2.155C22.8312 2.1872 22.9089 2.20261 22.987 2.20002H25.987C26.4407 2.20281 26.8754 2.38215 27.199 2.70002L29.328 4.82902C29.3785 4.88335 29.4403 4.92601 29.509 4.95402L32.284 6.10901C32.4931 6.19045 32.6833 6.3138 32.8429 6.4715C33.0025 6.62921 33.1281 6.81792 33.212 7.02601L34.367 9.801C34.3907 9.87504 34.4339 9.94137 34.492 9.99302L36.621 12.122C36.9401 12.44 37.1199 12.8716 37.121 13.322V16.334C37.1199 16.4121 37.1356 16.4895 37.167 16.561L38.31 19.335C38.3992 19.5398 38.4451 19.7608 38.4449 19.9841C38.4448 20.2075 38.3985 20.4284 38.309 20.633Z" fill="#F9B938"/>
</g>
<g id="Group 1194">
<g id="Group 1193">
<path id="Path 751" d="M38.306 20.63L37.1561 23.422C37.1322 23.4898 37.1194 23.5611 37.1181 23.633V26.645C37.1154 27.0951 36.9358 27.5262 36.6181 27.845L34.4921 29.971C34.4357 30.0265 34.3941 30.0953 34.371 30.171L33.213 32.94C33.1284 33.1487 33.0024 33.3381 32.8425 33.4967C32.6827 33.6553 32.4924 33.78 32.2831 33.863L29.506 35.013C29.4361 35.0443 29.3721 35.0876 29.317 35.141L27.198 37.268C26.8764 37.5877 26.4415 37.7674 25.9881 37.768H22.9881C22.9098 37.7637 22.8317 37.7792 22.761 37.813L19.9921 38.971C19.7812 39.0483 19.5587 39.0893 19.334 39.092C19.109 39.0901 18.8861 39.0491 18.675 38.971L15.898 37.813C15.8328 37.78 15.7601 37.7646 15.687 37.768H12.675C12.2219 37.766 11.7875 37.5865 11.465 37.268L9.33104 35.141C9.2804 35.086 9.21872 35.0424 9.15004 35.013L8.69604 34.824C10.5767 35.3549 12.5219 35.6221 14.476 35.618C20.1627 35.6177 25.6164 33.3586 29.6375 29.3375C33.6586 25.3164 35.9178 19.8627 35.918 14.176C35.9203 13.1785 35.8498 12.1822 35.707 11.195L36.6221 12.118C36.9399 12.4347 37.1196 12.8643 37.1221 13.313V16.332C37.1235 16.4098 37.1391 16.4867 37.168 16.559L38.31 19.328C38.3994 19.5335 38.4452 19.7553 38.4445 19.9794C38.4438 20.2035 38.3967 20.425 38.306 20.63Z" fill="#ECB021"/>
</g>
</g>
<g id="Group 1195">
<path id="Ellipse 14" d="M24.0333 31.3247C30.2986 28.7295 33.2738 21.5467 30.6786 15.2814C28.0834 9.01608 20.9006 6.04085 14.6353 8.63602C8.37004 11.2312 5.39482 18.414 7.98999 24.6793C10.5852 30.9446 17.768 33.9198 24.0333 31.3247Z" fill="#F7F363"/>
</g>
<g id="Group 1196">
<path id="Path 752" d="M28.811 12.171C26.453 10.2422 23.4624 9.25833 20.4197 9.41026C17.3771 9.56219 14.4994 10.8391 12.3452 12.9932C10.191 15.1473 8.91388 18.0249 8.76177 21.0675C8.60967 24.1102 9.5934 27.1008 11.522 29.459C10.1999 28.3703 9.1201 27.017 8.35197 25.4862C7.58383 23.9554 7.14436 22.2809 7.06177 20.5701C6.97919 18.8594 7.2553 17.1503 7.8724 15.5527C8.4895 13.955 9.43393 12.504 10.645 11.293C11.8562 10.0819 13.3072 9.13759 14.9049 8.52058C16.5026 7.90357 18.2117 7.62753 19.9224 7.71021C21.6332 7.7929 23.3077 8.23249 24.8384 9.00071C26.3692 9.76893 27.7224 10.8488 28.811 12.171Z" fill="#F7E839"/>
</g>
<g id="Group 1198" opacity="0.3">
<g id="Group 1197" opacity="0.3">
<path id="Path 753" opacity="0.3" d="M4.90004 15.2C4.71309 15.127 4.56268 14.9829 4.48172 14.7992C4.40076 14.6155 4.39585 14.4073 4.46805 14.22C5.73599 10.9801 8.02065 8.23895 10.979 6.408C11.15 6.30257 11.3558 6.26939 11.5512 6.31571C11.7466 6.36203 11.9156 6.48407 12.021 6.65501C12.1265 6.82594 12.1597 7.03174 12.1134 7.22715C12.067 7.42256 11.945 7.59158 11.774 7.697C9.09538 9.35341 7.027 11.8348 5.88005 14.768C5.80723 14.9551 5.66313 15.1057 5.4794 15.1867C5.29567 15.2677 5.0873 15.2725 4.90004 15.2Z" fill="white"/>
</g>
</g>
<g id="Group 1200" opacity="0.3">
<g id="Group 1199" opacity="0.3">
<path id="Path 754" opacity="0.3" d="M14.357 5.61301C14.301 5.42033 14.3238 5.2133 14.4204 5.03742C14.5169 4.86153 14.6794 4.73116 14.872 4.67499C15.6844 4.43882 16.5144 4.26762 17.354 4.163C17.4528 4.14944 17.5533 4.15581 17.6497 4.18174C17.746 4.20766 17.8361 4.25264 17.9148 4.31397C17.9935 4.3753 18.059 4.45174 18.1077 4.53882C18.1563 4.62591 18.187 4.72188 18.198 4.82102C18.2223 5.02014 18.1667 5.22077 18.0434 5.37897C17.92 5.53717 17.739 5.64003 17.54 5.66501C16.7802 5.75947 16.0292 5.91428 15.294 6.128C15.1014 6.18369 14.8947 6.16076 14.719 6.06421C14.5434 5.96767 14.4132 5.80541 14.357 5.61301Z" fill="white"/>
</g>
</g>
<g id="Group 1201">
<path id="Path 755" d="M20.649 14.036L21.924 16.62L24.776 17.035C25.0465 17.0745 25.3006 17.1888 25.5096 17.3651C25.7186 17.5413 25.8742 17.7725 25.9588 18.0324C26.0434 18.2924 26.0538 18.5708 25.9886 18.8363C25.9234 19.1018 25.7854 19.3438 25.59 19.535L23.526 21.547L24.013 24.387C24.0595 24.6569 24.0294 24.9344 23.9263 25.1881C23.8232 25.4418 23.6512 25.6616 23.4296 25.8226C23.2081 25.9836 22.9459 26.0793 22.6727 26.099C22.3996 26.1187 22.1263 26.0615 21.884 25.934L19.333 24.593L16.782 25.934C16.5397 26.0613 16.2666 26.1182 15.9936 26.0984C15.7206 26.0786 15.4586 25.9828 15.2372 25.8218C15.0158 25.6609 14.8439 25.4412 14.7408 25.1877C14.6378 24.9341 14.6077 24.6568 14.654 24.387L15.141 21.547L13.077 19.535C12.8816 19.3438 12.7436 19.1019 12.6784 18.8365C12.6131 18.5711 12.6234 18.2927 12.7079 18.0328C12.7924 17.7729 12.9479 17.5417 13.1568 17.3654C13.3656 17.1891 13.6196 17.0747 13.89 17.035L16.742 16.62L18.018 14.036C18.1392 13.7906 18.3265 13.5839 18.559 13.4394C18.7915 13.2949 19.0598 13.2183 19.3335 13.2183C19.6072 13.2183 19.8755 13.2949 20.108 13.4394C20.3404 13.5839 20.5279 13.7906 20.649 14.036Z" fill="#F9B938"/>
</g>
<g id="Group 1203" opacity="0.4">
<g id="Group 1202" opacity="0.4">
<path id="Path 756" opacity="0.4" d="M19.6561 15.689C19.6619 15.7879 19.6287 15.8852 19.5636 15.96C19.4986 16.0348 19.4068 16.081 19.308 16.089C19.2345 16.0955 19.1647 16.1245 19.1081 16.172C19.074 16.202 19.0455 16.2379 19.0241 16.278L18.26 17.829C18.1813 17.9902 18.0643 18.1297 17.9193 18.2353C17.7743 18.3409 17.6056 18.4095 17.428 18.435L15.7181 18.684C15.6532 18.6904 15.5917 18.7163 15.5417 18.7582C15.4918 18.8002 15.4557 18.8562 15.4381 18.919C15.4172 18.98 15.414 19.0456 15.4287 19.1084C15.4433 19.1712 15.4753 19.2285 15.521 19.274L16.747 20.474C16.8193 20.5443 16.8607 20.6404 16.8621 20.7412C16.8635 20.842 16.8248 20.9392 16.7546 21.0115C16.6843 21.0838 16.5882 21.1251 16.4874 21.1265C16.3866 21.128 16.2893 21.0893 16.217 21.019L15.0521 19.869C15.0309 19.8582 15.0127 19.8424 14.999 19.823C14.8484 19.6806 14.7419 19.4979 14.6922 19.2967C14.6426 19.0954 14.6519 18.8841 14.719 18.688C14.7817 18.4907 14.8987 18.3152 15.0567 18.1814C15.2147 18.0477 15.4072 17.9612 15.612 17.932L17.312 17.689C17.3693 17.6801 17.4234 17.6572 17.4697 17.6223C17.5159 17.5874 17.5528 17.5416 17.577 17.489L18.3411 15.945C18.3943 15.8376 18.466 15.7404 18.553 15.658C18.5684 15.6357 18.5862 15.6153 18.6061 15.597C18.7895 15.4431 19.018 15.3529 19.2571 15.34C19.3062 15.3363 19.3557 15.3425 19.4025 15.3581C19.4493 15.3737 19.4925 15.3985 19.5296 15.431C19.5667 15.4634 19.597 15.503 19.6187 15.5473C19.6405 15.5916 19.6531 15.6397 19.6561 15.689Z" fill="white"/>
</g>
</g>
<g id="Group 1204">
<path id="Path 757" d="M25.588 19.54L23.522 21.545L23.946 23.989L24.014 24.389C24.0597 24.6584 24.0292 24.9352 23.9259 25.1882C23.8226 25.4412 23.6507 25.6603 23.4295 25.8207C23.2083 25.9812 22.9467 26.0767 22.6741 26.0963C22.4016 26.116 22.1289 26.0591 21.887 25.932L20.866 25.395L19.331 24.595L16.781 25.935C16.5391 26.0623 16.2664 26.1193 15.9937 26.0997C15.721 26.08 15.4593 25.9845 15.2381 25.8238C15.0169 25.6632 14.8451 25.4439 14.742 25.1906C14.639 24.9374 14.6088 24.6604 14.655 24.391L14.723 23.975C14.796 24.1702 14.9096 24.3477 15.0564 24.4956C15.2032 24.6435 15.3798 24.7585 15.5744 24.8329C15.7691 24.9074 15.9773 24.9396 16.1854 24.9273C16.3934 24.9151 16.5964 24.8587 16.781 24.762L18.928 23.627C19.049 23.5632 19.1854 23.5342 19.3219 23.5434C19.4584 23.5526 19.5897 23.5995 19.701 23.679L20.934 24.559C21.0854 24.6712 21.264 24.741 21.4514 24.7612C21.6388 24.7814 21.8281 24.7513 22 24.674C22.1719 24.5967 22.32 24.4749 22.4292 24.3213C22.5383 24.1677 22.6045 23.9877 22.621 23.8C22.6234 23.7549 22.6211 23.7096 22.614 23.665L22.195 21.208C22.1749 21.0905 22.1835 20.9699 22.2203 20.8565C22.257 20.7431 22.3208 20.6403 22.406 20.557L24.188 18.815C24.4298 18.5817 24.5836 18.2721 24.6235 17.9385C24.6634 17.6049 24.5869 17.2678 24.407 16.984L24.778 17.037C25.0488 17.0767 25.3031 17.1914 25.5121 17.3681C25.7211 17.5448 25.8766 17.7764 25.9608 18.0368C26.0451 18.2972 26.0548 18.576 25.989 18.8416C25.9231 19.1073 25.7842 19.3492 25.588 19.54Z" fill="#E5A320"/>
</g>
</g>
</svg>
