<svg width="49" height="47" viewBox="0 0 49 47" fill="none" xmlns="http://www.w3.org/2000/svg">
<g id="136">
<g id="Group 944">
<g id="Group 941">
<g id="Group 940">
<path id="Path 594" d="M29.044 11.947H24.333C24.0346 11.947 23.7485 11.8285 23.5375 11.6175C23.3265 11.4065 23.208 11.1204 23.208 10.822V6.10001C23.208 4.5522 23.8228 3.06779 24.9173 1.97333C26.0118 0.878865 27.4962 0.264008 29.044 0.264008C30.5918 0.264008 32.0762 0.878865 33.1707 1.97333C34.2651 3.06779 34.88 4.5522 34.88 6.10001V6.11301C34.8776 7.65989 34.2619 9.14271 33.1679 10.2363C32.0739 11.33 30.5909 11.9452 29.044 11.947ZM25.458 9.69701H29.044C29.9947 9.69595 30.9062 9.3178 31.5785 8.64552C32.2508 7.97325 32.6289 7.06173 32.63 6.11099V6.10001C32.63 5.14894 32.2522 4.23682 31.5797 3.56432C30.9072 2.89181 29.9951 2.51401 29.044 2.51401C28.0929 2.51401 27.1808 2.89181 26.5083 3.56432C25.8358 4.23682 25.458 5.14894 25.458 6.10001V9.69701Z" fill="#F9B938"/>
</g>
</g>
<g id="Group 943">
<g id="Group 942">
<path id="Path 595" d="M24.333 11.947H19.623C18.0758 11.9452 16.5924 11.3297 15.4984 10.2356C14.4043 9.14157 13.7888 7.65823 13.787 6.11099V6.10001C13.8071 4.56557 14.4308 3.10078 15.5229 2.0228C16.6151 0.944816 18.0879 0.340393 19.6225 0.340393C21.1571 0.340393 22.6299 0.944816 23.7221 2.0228C24.8143 3.10078 25.4379 4.56557 25.458 6.10001V10.824C25.4575 11.122 25.3387 11.4077 25.1278 11.6182C24.9169 11.8288 24.631 11.947 24.333 11.947ZM19.623 2.513C18.6723 2.51379 17.7609 2.89173 17.0886 3.56384C16.4163 4.23596 16.038 5.14736 16.037 6.09801V6.11099C16.038 7.06173 16.4162 7.97325 17.0885 8.64552C17.7608 9.3178 18.6722 9.69595 19.623 9.69701H23.208V6.097C23.2067 5.1467 22.8285 4.23572 22.1564 3.56384C21.4844 2.89197 20.5733 2.51406 19.623 2.513Z" fill="#F9B938"/>
</g>
</g>
</g>
<g id="Group 949">
<g id="Group 946">
<g id="Group 945">
<path id="Path 596" d="M31.056 9.077C30.4629 9.48105 29.7617 9.69711 29.044 9.69701H25.458V9.077H23.208V10.822C23.208 11.1204 23.3265 11.4065 23.5375 11.6175C23.7485 11.8285 24.0346 11.947 24.333 11.947H29.044C30.0575 11.9457 31.0532 11.6804 31.933 11.1771C32.8127 10.6738 33.5461 9.95002 34.061 9.077H31.056Z" fill="#E5A320"/>
</g>
</g>
<g id="Group 948">
<g id="Group 947">
<path id="Path 597" d="M23.208 9.077V9.69701H19.623C18.9053 9.69723 18.2041 9.48116 17.611 9.077H14.6C15.1151 9.94996 15.8488 10.6737 16.7287 11.177C17.6086 11.6802 18.6043 11.9456 19.618 11.947H24.328C24.6264 11.947 24.9125 11.8285 25.1235 11.6175C25.3345 11.4065 25.453 11.1204 25.453 10.822V9.077H23.208Z" fill="#E5A320"/>
</g>
</g>
</g>
<g id="Group 950">
<path id="Path 598" d="M45.91 19.674V42.249C45.9084 43.4452 45.4319 44.5919 44.5853 45.437C43.7387 46.2821 42.5912 46.7565 41.395 46.756H7.27002C6.07379 46.7565 4.92626 46.2821 4.07965 45.437C3.23304 44.5919 2.7566 43.4452 2.755 42.249V19.674H45.91Z" fill="#FC6559"/>
</g>
<g id="Group 952" opacity="0.4">
<g id="Group 951" opacity="0.4">
<path id="Rectangle 42" opacity="0.4" d="M7.26599 32.822C7.36444 32.8219 7.46194 32.8412 7.55293 32.8787C7.64392 32.9163 7.7266 32.9715 7.79626 33.041C7.86592 33.1106 7.92118 33.1932 7.95888 33.2842C7.99658 33.3751 8.01599 33.4726 8.01599 33.571V38.936C8.01599 39.1349 7.93697 39.3257 7.79632 39.4664C7.65567 39.607 7.4649 39.686 7.26599 39.686C7.16755 39.6862 7.07004 39.6669 6.97905 39.6293C6.88807 39.5917 6.80538 39.5366 6.73572 39.467C6.66606 39.3974 6.6108 39.3148 6.5731 39.2239C6.5354 39.1329 6.51599 39.0355 6.51599 38.937V33.572C6.51599 33.3731 6.59501 33.1823 6.73566 33.0417C6.87631 32.901 7.06708 32.822 7.26599 32.822Z" fill="white"/>
</g>
</g>
<g id="Group 953">
<path id="Path 599" d="M45.9081 19.673V42.247C45.907 43.4428 45.4315 44.5893 44.5859 45.4349C43.7404 46.2804 42.5939 46.7559 41.3981 46.757H7.26807C6.23568 46.7568 5.23464 46.4022 4.43243 45.7523C3.63023 45.1025 3.07554 44.1969 2.86108 43.187C3.16956 43.2562 3.48496 43.2897 3.80109 43.287H37.9311C39.1269 43.2859 40.2734 42.8104 41.119 41.9649C41.9645 41.1193 42.44 39.9728 42.441 38.777V19.673H45.9081Z" fill="#F05543"/>
</g>
<g id="Group 954">
<path id="Rectangle 43" d="M45.9101 19.675H2.75806V21.851H45.9101V19.675Z" fill="#F05543"/>
</g>
<g id="Group 955">
<path id="Path 600" d="M48.333 11.418V17.959C48.3314 18.4145 48.1492 18.8507 47.8264 19.1721C47.5036 19.4934 47.0665 19.6736 46.611 19.673H2.05499C1.59951 19.6736 1.16242 19.4934 0.8396 19.1721C0.516777 18.8507 0.334596 18.4145 0.333008 17.959V11.418C0.334328 10.9618 0.516187 10.5247 0.838867 10.2022C1.16155 9.8797 1.59879 9.69808 2.05499 9.69702H46.611C47.0672 9.69808 47.5045 9.8797 47.8271 10.2022C48.1498 10.5247 48.3317 10.9618 48.333 11.418Z" fill="#FC6559"/>
</g>
<g id="Group 957" opacity="0.4">
<g id="Group 956" opacity="0.4">
<path id="Path 601" opacity="0.4" d="M3.33301 16.1C3.1341 16.1 2.94333 16.021 2.80267 15.8803C2.66202 15.7397 2.58301 15.5489 2.58301 15.35V12.7C2.58301 12.5011 2.66202 12.3103 2.80267 12.1697C2.94333 12.029 3.1341 11.95 3.33301 11.95H5.65302C5.85193 11.95 6.0427 12.029 6.18335 12.1697C6.324 12.3103 6.40302 12.5011 6.40302 12.7C6.40302 12.8989 6.324 13.0897 6.18335 13.2303C6.0427 13.371 5.85193 13.45 5.65302 13.45H4.08301V15.356C4.08142 15.5539 4.00169 15.7431 3.86121 15.8825C3.72072 16.0218 3.53088 16.1 3.33301 16.1Z" fill="white"/>
</g>
</g>
<g id="Group 959" opacity="0.4">
<g id="Group 958" opacity="0.4">
<path id="Path 602" opacity="0.4" d="M14.9951 13.447H8.61206C8.41315 13.447 8.22238 13.368 8.08173 13.2273C7.94107 13.0867 7.86206 12.8959 7.86206 12.697C7.86206 12.4981 7.94107 12.3073 8.08173 12.1667C8.22238 12.026 8.41315 11.947 8.61206 11.947H14.9951C15.194 11.947 15.3847 12.026 15.5254 12.1667C15.666 12.3073 15.7451 12.4981 15.7451 12.697C15.7451 12.8959 15.666 13.0867 15.5254 13.2273C15.3847 13.368 15.194 13.447 14.9951 13.447Z" fill="white"/>
</g>
</g>
<g id="Group 966">
<g id="Group 962">
<g id="Group 961">
<g id="Group 960">
<path id="Rectangle 44" d="M25.457 9.69702H23.207V46.756H25.457V9.69702Z" fill="#F9B938"/>
</g>
</g>
</g>
<g id="Group 965">
<g id="Group 964">
<g id="Group 963">
<path id="Rectangle 45" d="M45.91 28.501H2.755V30.751H45.91V28.501Z" fill="#F9B938"/>
</g>
</g>
</g>
</g>
<g id="Group 967">
<path id="Rectangle 46" d="M45.9089 28.464H42.4409V30.751H45.9089V28.464Z" fill="#E5A320"/>
</g>
<g id="Group 968">
<path id="Rectangle 47" d="M25.457 19.619H23.207V21.906H25.457V19.619Z" fill="#E5A320"/>
</g>
</g>
</svg>
