<svg width="49" height="43" viewBox="0 0 49 43" fill="none" xmlns="http://www.w3.org/2000/svg">
<g id="60">
<g id="Group 3726">
<g id="Group 3675">
<path id="Path 2144" d="M44.441 31.164C44.441 37.505 35.5831 42.646 24.6641 42.646C13.7451 42.646 4.89209 37.505 4.89209 31.164C4.89209 24.823 13.7441 19.682 24.6641 19.682C35.5841 19.682 44.441 24.824 44.441 31.164Z" fill="#F9B938"/>
</g>
<g id="Group 3677" opacity="0.3">
<g id="Group 3676" opacity="0.3">
<path id="Path 2145" opacity="0.3" d="M6.73507 30.487C6.66883 30.4714 6.60634 30.443 6.55111 30.4032C6.49589 30.3635 6.449 30.3133 6.41324 30.2554C6.37747 30.1975 6.35352 30.1331 6.34268 30.066C6.33184 29.9988 6.33432 29.9302 6.35006 29.864C6.9248 27.8065 8.22955 26.029 10.0201 24.864C10.1322 24.7954 10.2662 24.7718 10.395 24.7982C10.5238 24.8245 10.6378 24.8988 10.714 25.006C10.7901 25.1131 10.8228 25.2452 10.8054 25.3755C10.788 25.5058 10.7217 25.6246 10.6201 25.708C9.03526 26.727 7.87518 28.2877 7.35611 30.099C7.32492 30.2326 7.24208 30.3485 7.1257 30.4212C7.00932 30.4939 6.86885 30.5175 6.73507 30.487Z" fill="white"/>
</g>
</g>
<g id="Group 3679" opacity="0.3">
<g id="Group 3678" opacity="0.3">
<path id="Path 2146" opacity="0.3" d="M11.7561 24.384C11.7247 24.3231 11.7058 24.2566 11.7003 24.1884C11.6948 24.1202 11.7029 24.0515 11.7241 23.9864C11.7453 23.9213 11.7792 23.8611 11.8238 23.8092C11.8684 23.7573 11.9229 23.7147 11.9841 23.684C12.2121 23.568 12.4461 23.457 12.6841 23.349C12.8086 23.2965 12.9487 23.2948 13.0745 23.3442C13.2003 23.3935 13.3017 23.4901 13.3573 23.6133C13.4129 23.7364 13.4182 23.8764 13.372 24.0034C13.3258 24.1304 13.2318 24.2343 13.1101 24.293C12.8861 24.393 12.6661 24.499 12.4521 24.608C12.33 24.67 12.1883 24.6813 12.0579 24.6393C11.9276 24.5974 11.819 24.5056 11.7561 24.384Z" fill="white"/>
</g>
</g>
<g id="Group 3680">
<path id="Path 2147" d="M44.441 31.164C44.441 37.505 35.5831 42.646 24.6641 42.646C17.0361 42.646 10.4141 40.135 7.11609 36.461C10.6331 39.635 16.7741 41.74 23.7581 41.74C34.6771 41.74 43.535 36.599 43.535 30.258C43.4819 28.2825 42.6934 26.3979 41.324 24.973C42.2531 25.7248 43.0115 26.6656 43.5489 27.733C44.0863 28.8005 44.3904 29.97 44.441 31.164Z" fill="#E5A320"/>
</g>
<g id="Group 3681">
<path id="Path 2148" d="M24.6671 23.428C33.8371 23.428 40.6901 27.511 40.6901 31.162C40.6901 34.813 33.8371 38.896 24.6671 38.896C15.4971 38.896 8.63708 34.812 8.63708 31.162C8.63708 27.512 15.4921 23.428 24.6671 23.428Z" fill="#FC6559"/>
</g>
<g id="Group 3682">
<path id="Path 2149" d="M39.5811 30.208C39.4974 29.0201 38.9488 27.913 38.0541 27.127C39.7331 28.37 40.6931 29.8 40.6931 31.161C40.6931 34.815 33.8411 38.898 24.6671 38.898C18.0841 38.898 12.696 36.798 10.175 34.256C12.993 36.342 17.8211 37.937 23.5551 37.937C32.7281 37.937 39.5811 33.855 39.5811 30.208Z" fill="#F05543"/>
</g>
<g id="Group 3714">
<g id="Group 3684">
<g id="Group 3683">
<path id="Path 2150" d="M35.0642 12.908C35.0275 12.9559 34.9802 12.9945 34.9261 13.0211C34.8719 13.0476 34.8125 13.0613 34.7522 13.061H14.5811C14.5203 13.0612 14.4603 13.0472 14.4059 13.0202C14.3514 12.9932 14.304 12.9539 14.2673 12.9054C14.2306 12.8569 14.2057 12.8006 14.1946 12.7408C14.1835 12.681 14.1864 12.6194 14.2032 12.561C14.8285 10.2639 16.1913 8.23608 18.0821 6.7895C19.9728 5.34291 22.2865 4.5578 24.6671 4.555C25.5041 4.55389 26.3382 4.6519 27.1521 4.84699C29.0525 5.29725 30.7964 6.25126 32.2005 7.60871C33.6046 8.96617 34.617 10.6769 35.1311 12.561C35.1473 12.6201 35.1497 12.6822 35.138 12.7423C35.1264 12.8025 35.1012 12.8592 35.0642 12.908Z" fill="#F9B938"/>
</g>
</g>
<g id="Group 3685">
<path id="Path 2151" d="M35.0642 12.908C35.0275 12.9559 34.9802 12.9945 34.9261 13.0211C34.8719 13.0476 34.8125 13.0613 34.7522 13.061H14.5811C14.5203 13.0612 14.4603 13.0472 14.4059 13.0202C14.3514 12.9932 14.304 12.9539 14.2673 12.9054C14.2306 12.8569 14.2057 12.8006 14.1946 12.7408C14.1835 12.681 14.1864 12.6194 14.2032 12.561C14.6723 10.8247 15.5689 9.2336 16.8111 7.93299L17.9301 8.675C18.1657 8.83125 18.4327 8.93398 18.7123 8.97596C18.9919 9.01794 19.2773 8.99815 19.5484 8.91798C19.8195 8.83781 20.0697 8.69925 20.2815 8.51197C20.4932 8.32469 20.6614 8.09325 20.7741 7.83399L22.0631 4.87501C22.9136 4.66298 23.7867 4.55551 24.6632 4.555C25.5001 4.55389 26.3343 4.6519 27.1482 4.84699L28.4582 7.84699C28.5706 8.10519 28.7381 8.33576 28.9489 8.52253C29.1597 8.7093 29.4088 8.84779 29.6786 8.92835C29.9485 9.00891 30.2327 9.02961 30.5114 8.98896C30.7901 8.94832 31.0565 8.84729 31.2921 8.693L32.4922 7.90504C33.746 9.21022 34.6512 10.81 35.1242 12.557C35.142 12.6162 35.1458 12.6787 35.1353 12.7396C35.1249 12.8005 35.1006 12.8581 35.0642 12.908Z" fill="#E5A320"/>
</g>
<g id="Group 3686">
<path id="Path 2152" d="M16.4281 18.924C21.8655 17.8309 27.4657 17.8282 32.9041 18.916C33.4411 19.0234 33.9987 18.9135 34.4549 18.6107C34.9111 18.3078 35.2287 17.8365 35.3381 17.3L37.1381 8.51202L37.6711 6.28302C37.6899 6.20609 37.685 6.12527 37.6572 6.05115C37.6293 5.97702 37.5798 5.91299 37.515 5.86743C37.4503 5.82188 37.3732 5.79693 37.2941 5.79578C37.2149 5.79463 37.1372 5.81737 37.0711 5.86102L35.2051 7.08002L29.8151 10.608C29.7177 10.672 29.6074 10.714 29.492 10.7309C29.3766 10.7478 29.2589 10.7393 29.1472 10.7059C29.0354 10.6726 28.9323 10.6152 28.8451 10.5378C28.7579 10.4605 28.6886 10.365 28.6422 10.258L25.8421 3.83197L24.9701 1.83197C24.938 1.7627 24.8868 1.70407 24.8225 1.66296C24.7582 1.62186 24.6835 1.60004 24.6071 1.60004C24.5308 1.60004 24.4561 1.62186 24.3917 1.66296C24.3274 1.70407 24.2762 1.7627 24.2441 1.83197L23.3961 3.77698L20.5772 10.252C20.5306 10.3594 20.4611 10.4553 20.3734 10.5328C20.2858 10.6104 20.1822 10.6678 20.07 10.701C19.9577 10.7342 19.8396 10.7424 19.7238 10.7249C19.6081 10.7075 19.4976 10.6648 19.4002 10.6L14.1162 7.09998L12.2531 5.86499C12.1871 5.82078 12.1093 5.79757 12.0299 5.79846C11.9505 5.79936 11.8732 5.8243 11.8082 5.87C11.7433 5.91569 11.6937 5.98001 11.666 6.05444C11.6383 6.12888 11.6338 6.20995 11.6531 6.28699L12.1851 8.51599L14.0001 17.307C14.1099 17.8422 14.4266 18.3123 14.8814 18.6152C15.3361 18.918 15.892 19.029 16.4281 18.924Z" fill="#F9B938"/>
</g>
<g id="Group 3687">
<path id="Path 2153" d="M37.6741 6.28301L37.1422 8.51396L35.3421 17.301C35.2314 17.8363 34.9141 18.3063 34.4589 18.6091C34.0038 18.9118 33.4476 19.0228 32.9111 18.918C32.8281 18.904 32.7451 18.883 32.6621 18.869C33.0205 18.7604 33.343 18.5575 33.596 18.2815C33.849 18.0054 34.0231 17.6664 34.1001 17.3L35.9101 8.51299L36.4421 6.28197V6.27501L37.0771 5.86101C37.1438 5.81631 37.2225 5.79299 37.3027 5.79424C37.383 5.79549 37.4609 5.82121 37.5261 5.86797C37.5905 5.91349 37.6393 5.97777 37.6658 6.05205C37.6923 6.12633 37.6952 6.20701 37.6741 6.28301Z" fill="#E5A320"/>
</g>
<g id="Group 3689" opacity="0.3">
<g id="Group 3688" opacity="0.3">
<path id="Path 2154" opacity="0.3" d="M14.7562 14.153L14.2042 11.847C14.1901 11.7958 14.1864 11.7424 14.1934 11.6898C14.2004 11.6372 14.2179 11.5866 14.2449 11.5409C14.2719 11.4952 14.3078 11.4554 14.3505 11.4239C14.3932 11.3925 14.4418 11.3699 14.4934 11.3576C14.545 11.3453 14.5985 11.3436 14.6508 11.3524C14.7032 11.3613 14.7532 11.3805 14.7979 11.4091C14.8426 11.4377 14.881 11.475 14.911 11.5188C14.9409 11.5626 14.9617 11.612 14.9722 11.664L15.5232 13.97C15.5352 14.0203 15.5372 14.0726 15.529 14.1237C15.5208 14.1748 15.5027 14.2239 15.4756 14.268C15.4485 14.3121 15.4129 14.3504 15.371 14.3808C15.3291 14.4112 15.2816 14.433 15.2312 14.445C15.1809 14.457 15.1286 14.459 15.0775 14.4508C15.0264 14.4426 14.9774 14.4245 14.9333 14.3974C14.8891 14.3703 14.8508 14.3347 14.8204 14.2928C14.79 14.2509 14.7682 14.2034 14.7562 14.153Z" fill="white"/>
</g>
</g>
<g id="Group 3691" opacity="0.3">
<g id="Group 3690" opacity="0.3">
<path id="Path 2155" opacity="0.3" d="M13.8492 10.361L13.6962 9.71803C13.6718 9.61632 13.6888 9.50905 13.7435 9.41987C13.7981 9.3307 13.886 9.2669 13.9877 9.2425C14.0894 9.2181 14.1967 9.23514 14.2858 9.28981C14.375 9.34447 14.4388 9.4323 14.4632 9.53401L14.6172 10.177C14.6308 10.228 14.6341 10.2811 14.6268 10.3333C14.6196 10.3856 14.6019 10.4358 14.5749 10.4812C14.5479 10.5265 14.5122 10.5659 14.4697 10.5971C14.4272 10.6284 14.3789 10.6508 14.3276 10.6631C14.2763 10.6754 14.2231 10.6773 14.1711 10.6687C14.1191 10.66 14.0693 10.6411 14.0247 10.613C13.9801 10.5848 13.9416 10.548 13.9114 10.5047C13.8813 10.4614 13.8601 10.4126 13.8492 10.361Z" fill="white"/>
</g>
</g>
<g id="Group 3692">
<path id="Path 2156" d="M25.8461 3.83197C25.4788 4.06596 25.0502 4.18569 24.6147 4.1759C24.1793 4.16611 23.7566 4.02724 23.4001 3.77698L24.2481 1.83197C24.2802 1.7627 24.3314 1.70407 24.3958 1.66296C24.4601 1.62186 24.5348 1.60004 24.6111 1.60004C24.6875 1.60004 24.7622 1.62186 24.8265 1.66296C24.8909 1.70407 24.9421 1.7627 24.9741 1.83197L25.8461 3.83197Z" fill="#E5A320"/>
</g>
<g id="Group 3693">
<path id="Path 2157" d="M14.1201 7.1C13.9656 7.4946 13.7022 7.83723 13.3605 8.08792C13.0188 8.3386 12.6129 8.48704 12.1901 8.51602L11.6581 6.28701C11.6388 6.20997 11.6433 6.12891 11.671 6.05447C11.6987 5.98003 11.7483 5.91571 11.8132 5.87002C11.8782 5.82433 11.9555 5.79938 12.0349 5.79849C12.1143 5.79759 12.1921 5.8208 12.2581 5.86502L14.1201 7.1Z" fill="#E5A320"/>
</g>
<g id="Group 3694">
<path id="Path 2158" d="M37.6762 6.283L37.1432 8.512C36.7174 8.48441 36.3087 8.33465 35.9658 8.08067C35.623 7.82669 35.3606 7.47926 35.2102 7.08L37.0762 5.861C37.1422 5.81735 37.22 5.79461 37.2991 5.79576C37.3783 5.79691 37.4553 5.82186 37.52 5.86741C37.5848 5.91297 37.6344 5.977 37.6622 6.05113C37.6901 6.12525 37.695 6.20607 37.6762 6.283Z" fill="#E5A320"/>
</g>
<g id="Group 3695">
<path id="Path 2159" d="M26.107 1.94397C26.1072 2.22873 26.023 2.50718 25.865 2.74408C25.7069 2.98097 25.4823 3.1657 25.2193 3.2749C24.9563 3.3841 24.6668 3.41289 24.3874 3.3576C24.1081 3.30232 23.8514 3.16544 23.6499 2.96429C23.4483 2.76315 23.3109 2.50677 23.255 2.22754C23.1992 1.94831 23.2273 1.65879 23.336 1.39557C23.4446 1.13235 23.6289 0.907232 23.8655 0.748718C24.102 0.590205 24.3803 0.5054 24.665 0.505005C25.0469 0.505268 25.413 0.656853 25.6833 0.926575C25.9536 1.1963 26.106 1.56213 26.107 1.94397Z" fill="#FC6559"/>
</g>
<g id="Group 3696">
<path id="Path 2160" d="M13.4811 6.28699C13.4815 6.57203 13.3974 6.8508 13.2393 7.08801C13.0813 7.32523 12.8564 7.51023 12.5932 7.61963C12.33 7.72903 12.0403 7.75793 11.7606 7.70264C11.481 7.64734 11.224 7.51037 11.0222 7.30902C10.8205 7.10767 10.683 6.85099 10.6271 6.57147C10.5712 6.29196 10.5995 6.00215 10.7083 5.73871C10.8172 5.47527 11.0017 5.25004 11.2386 5.09149C11.4755 4.93294 11.7541 4.84822 12.0391 4.84802C12.421 4.84829 12.7872 4.99987 13.0574 5.26959C13.3277 5.53931 13.4801 5.90515 13.4811 6.28699Z" fill="#FC6559"/>
</g>
<g id="Group 3697">
<path id="Path 2161" d="M38.7341 6.28699C38.7345 6.57199 38.6503 6.8507 38.4923 7.08789C38.3343 7.32508 38.1095 7.51014 37.8464 7.61957C37.5832 7.729 37.2935 7.75791 37.0139 7.7027C36.7343 7.64748 36.4773 7.51057 36.2755 7.30933C36.0737 7.10808 35.9361 6.85153 35.8801 6.57208C35.8241 6.29263 35.8523 6.00284 35.961 5.73938C36.0697 5.47592 36.2541 5.25065 36.4908 5.09198C36.7276 4.93331 37.0061 4.84842 37.2911 4.84802C37.673 4.84828 38.0392 4.99984 38.3097 5.26953C38.5801 5.53922 38.7327 5.90505 38.7341 6.28699Z" fill="#FC6559"/>
</g>
<g id="Group 3702">
<g id="Group 3698">
<path id="Path 2162" d="M26.1072 1.94202C26.1084 2.26503 26.001 2.57907 25.8023 2.83374C25.6036 3.08841 25.3251 3.26892 25.0115 3.34631C24.6979 3.42371 24.3673 3.39348 24.0729 3.2605C23.7786 3.12751 23.5374 2.89946 23.3882 2.61298C23.6602 2.75389 23.9701 2.80461 24.2728 2.75769C24.5756 2.71077 24.8556 2.56869 25.0722 2.35205C25.2888 2.13541 25.4309 1.85544 25.4778 1.55267C25.5248 1.24991 25.4741 0.94008 25.3332 0.66803C25.5659 0.789818 25.7611 0.972818 25.8975 1.19733C26.0339 1.42184 26.1063 1.67932 26.1072 1.94202Z" fill="#E24B40"/>
</g>
<g id="Group 3701">
<g id="Group 3699">
<path id="Path 2163" d="M13.4812 6.28699C13.4822 6.60992 13.3746 6.92385 13.1758 7.17834C12.9771 7.43284 12.6985 7.61317 12.3849 7.69043C12.0714 7.76769 11.741 7.73737 11.4467 7.60437C11.1524 7.47137 10.9114 7.24338 10.7622 6.95697C10.9822 7.071 11.2279 7.12646 11.4755 7.11798C11.7232 7.1095 11.9646 7.03738 12.1763 6.90857C12.388 6.77976 12.5629 6.59863 12.6843 6.38257C12.8056 6.16651 12.8693 5.9228 12.8692 5.67499C12.8702 5.44231 12.8131 5.21308 12.7032 5.008C12.9376 5.12946 13.1341 5.31296 13.2713 5.53851C13.4085 5.76406 13.4811 6.02299 13.4812 6.28699Z" fill="#E24B40"/>
</g>
<g id="Group 3700">
<path id="Path 2164" d="M38.7332 6.28699C38.7341 6.60992 38.6266 6.92385 38.4278 7.17834C38.229 7.43284 37.9505 7.61317 37.637 7.69043C37.3234 7.76769 36.993 7.73737 36.6987 7.60437C36.4045 7.47137 36.1633 7.24338 36.0142 6.95697C36.2342 7.071 36.4799 7.12646 36.7275 7.11798C36.9752 7.1095 37.2165 7.03738 37.4282 6.90857C37.6399 6.77976 37.8149 6.59863 37.9363 6.38257C38.0576 6.16651 38.1213 5.9228 38.1212 5.67499C38.122 5.44245 38.0653 5.21334 37.9562 5.008C38.1903 5.12969 38.3866 5.3133 38.5236 5.53882C38.6606 5.76434 38.7331 6.02311 38.7332 6.28699Z" fill="#E24B40"/>
</g>
</g>
</g>
<g id="Group 3713">
<g id="Group 3703">
<path id="Path 2165" d="M26.8001 15.307C26.4363 15.671 25.9883 15.9396 25.4958 16.0891C25.0034 16.2385 24.4817 16.2643 23.9769 16.164C23.4721 16.0637 22.9998 15.8406 22.6019 15.5143C22.2039 15.1879 21.8926 14.7685 21.6955 14.2931C21.4983 13.8177 21.4214 13.3011 21.4716 12.7889C21.5217 12.2767 21.6974 11.7848 21.983 11.3567C22.2687 10.9286 22.6555 10.5776 23.1092 10.3347C23.5629 10.0917 24.0695 9.9644 24.5841 9.96399C25.2025 9.96539 25.8067 10.1497 26.3206 10.4938C26.8344 10.8378 27.235 11.3261 27.4719 11.8973C27.7088 12.4685 27.7715 13.0971 27.6519 13.7038C27.5324 14.3105 27.236 14.8683 26.8001 15.307Z" fill="#FC6559"/>
</g>
<g id="Group 3704">
<path id="Path 2166" d="M26.8002 15.308C26.4689 15.6381 26.0681 15.8899 25.6269 16.0449C25.1857 16.2 24.7155 16.2544 24.2505 16.2042C23.7856 16.1539 23.3378 16.0003 22.9399 15.7546C22.5421 15.5089 22.2043 15.1772 21.9512 14.784C22.5249 15.2615 23.2502 15.5184 23.9965 15.5085C24.7429 15.4985 25.4611 15.2224 26.0219 14.7298C26.5826 14.2372 26.949 13.5605 27.0551 12.8217C27.1611 12.0828 26.9998 11.3304 26.6002 10.7C26.9312 10.9797 27.2006 11.3249 27.3916 11.7139C27.5826 12.1029 27.6909 12.5273 27.7097 12.9602C27.7284 13.3931 27.6573 13.8253 27.5008 14.2294C27.3443 14.6335 27.1057 15.0007 26.8002 15.308Z" fill="#E24B40"/>
</g>
<g id="Group 3705">
<path id="Path 2167" d="M24.9002 11.442L25.2752 12.2L26.1112 12.322C26.1764 12.331 26.2378 12.3582 26.2883 12.4005C26.3388 12.4427 26.3763 12.4984 26.3966 12.5611C26.4168 12.6238 26.419 12.6909 26.4029 12.7547C26.3867 12.8185 26.3528 12.8765 26.3051 12.922L25.7002 13.512L25.8421 14.345C25.8531 14.4092 25.8459 14.4753 25.8213 14.5356C25.7967 14.596 25.7558 14.6483 25.7031 14.6867C25.6504 14.7251 25.588 14.7479 25.523 14.7527C25.458 14.7576 25.393 14.7442 25.3352 14.714L24.5871 14.32L23.8391 14.714C23.7814 14.7442 23.7163 14.7576 23.6513 14.7527C23.5863 14.7479 23.5239 14.7251 23.4712 14.6867C23.4185 14.6483 23.3776 14.596 23.353 14.5356C23.3284 14.4753 23.3212 14.4092 23.3321 14.345L23.4751 13.512L22.8692 12.922C22.8215 12.8765 22.7876 12.8185 22.7714 12.7547C22.7553 12.6909 22.7575 12.6238 22.7777 12.5611C22.798 12.4984 22.8355 12.4427 22.886 12.4005C22.9365 12.3582 22.9979 12.331 23.0631 12.322L23.9002 12.2L24.2741 11.442C24.3029 11.3836 24.3475 11.3344 24.4029 11.3C24.4582 11.2656 24.522 11.2474 24.5871 11.2474C24.6523 11.2474 24.7161 11.2656 24.7714 11.3C24.8268 11.3344 24.8714 11.3836 24.9002 11.442Z" fill="white"/>
</g>
<g id="Group 3706">
<path id="Path 2168" d="M24.9001 11.444L25 11.65C24.9275 11.6366 24.8525 11.6475 24.7868 11.6812C24.7212 11.7148 24.6685 11.7693 24.6371 11.836L24.261 12.593L23.4261 12.717C23.3735 12.724 23.3231 12.7429 23.279 12.7723C23.2348 12.8017 23.198 12.8408 23.1712 12.8867C23.1445 12.9325 23.1286 12.9838 23.1247 13.0367C23.1209 13.0897 23.1292 13.1428 23.149 13.192L22.868 12.919C22.8211 12.8732 22.788 12.8152 22.7723 12.7516C22.7565 12.688 22.7589 12.6212 22.779 12.5588C22.7992 12.4965 22.8364 12.441 22.8864 12.3986C22.9364 12.3562 22.9972 12.3286 23.062 12.319L23.897 12.199L24.273 11.443C24.3013 11.3837 24.3457 11.3336 24.4013 11.2986C24.4568 11.2636 24.5212 11.2451 24.5868 11.2452C24.6525 11.2453 24.7168 11.2641 24.7723 11.2993C24.8277 11.3344 24.872 11.3846 24.9001 11.444Z" fill="#D0D0F7"/>
</g>
<g id="Group 3709">
<g id="Group 3707">
<path id="Path 2169" d="M32.5942 13.777C32.5934 14.0299 32.5177 14.277 32.3766 14.4869C32.2355 14.6969 32.0354 14.8603 31.8015 14.9566C31.5676 15.0529 31.3104 15.0778 31.0624 15.028C30.8144 14.9783 30.5867 14.8561 30.408 14.6771C30.2294 14.498 30.1078 14.27 30.0586 14.0219C30.0094 13.7737 30.0349 13.5166 30.1317 13.283C30.2286 13.0493 30.3925 12.8495 30.6027 12.7089C30.813 12.5683 31.0602 12.4932 31.3132 12.493C31.4817 12.493 31.6485 12.5263 31.8041 12.5908C31.9597 12.6554 32.101 12.75 32.22 12.8693C32.339 12.9885 32.4334 13.1301 32.4976 13.2859C32.5618 13.4417 32.5946 13.6085 32.5942 13.777Z" fill="white"/>
</g>
<g id="Group 3708">
<path id="Path 2170" d="M19.3001 13.777C19.2993 14.03 19.2236 14.2771 19.0825 14.4871C18.9413 14.697 18.7412 14.8605 18.5072 14.9567C18.2732 15.053 18.016 15.0777 17.7679 15.0279C17.5199 14.9781 17.2923 14.8559 17.1137 14.6767C16.935 14.4975 16.8135 14.2694 16.7644 14.0212C16.7153 13.7731 16.741 13.5159 16.838 13.2822C16.935 13.0486 17.099 12.8489 17.3094 12.7084C17.5198 12.568 17.7672 12.493 18.0201 12.493C18.1886 12.493 18.3553 12.5262 18.5109 12.5908C18.6664 12.6554 18.8077 12.75 18.9266 12.8693C19.0456 12.9886 19.1398 13.1302 19.2039 13.2859C19.268 13.4417 19.3006 13.6085 19.3001 13.777Z" fill="white"/>
</g>
</g>
<g id="Group 3712">
<g id="Group 3710">
<path id="Path 2171" d="M32.4211 13.138C32.2283 13.0239 32.0082 12.9641 31.7841 12.965C31.6156 12.9653 31.4488 12.9987 31.2932 13.0634C31.1377 13.1281 30.9964 13.2229 30.8775 13.3422C30.7585 13.4615 30.6642 13.6031 30.6 13.7588C30.5358 13.9146 30.5028 14.0815 30.5031 14.25C30.5028 14.4722 30.5611 14.6905 30.6721 14.883C30.5016 14.785 30.3559 14.6491 30.2464 14.4857C30.137 14.3223 30.0666 14.1358 30.0408 13.9408C30.015 13.7458 30.0346 13.5476 30.0979 13.3613C30.1612 13.1751 30.2665 13.006 30.4057 12.8671C30.545 12.7281 30.7144 12.6232 30.9007 12.5603C31.0871 12.4974 31.2855 12.4784 31.4804 12.5046C31.6753 12.5308 31.8615 12.6016 32.0247 12.7114C32.1878 12.8213 32.3235 12.9672 32.4211 13.138Z" fill="#D0D0F7"/>
</g>
<g id="Group 3711">
<path id="Path 2172" d="M19.1281 13.138C18.9353 13.0238 18.7152 12.9641 18.4911 12.965C18.3227 12.9653 18.1559 12.9987 18.0003 13.0634C17.8447 13.1281 17.7034 13.2229 17.5845 13.3422C17.4655 13.4615 17.3712 13.6031 17.307 13.7588C17.2428 13.9146 17.2099 14.0815 17.2101 14.25C17.2096 14.4723 17.2683 14.6908 17.3801 14.883C17.2094 14.7852 17.0634 14.6493 16.9537 14.4859C16.844 14.3226 16.7734 14.136 16.7475 13.941C16.7216 13.7459 16.741 13.5475 16.8042 13.3611C16.8674 13.1748 16.9727 13.0055 17.112 12.8664C17.2513 12.7274 17.4208 12.6223 17.6072 12.5594C17.7937 12.4965 17.9922 12.4775 18.1872 12.5038C18.3822 12.53 18.5686 12.6009 18.7318 12.7109C18.895 12.8209 19.0306 12.9671 19.1281 13.138Z" fill="#D0D0F7"/>
</g>
</g>
</g>
</g>
<g id="Group 3725">
<g id="Group 3719">
<g id="Group 3715">
<path id="Path 2173" d="M46.477 13.442L46.365 15.75L48.203 17.15C48.3776 17.2826 48.5116 17.4614 48.5899 17.6662C48.6682 17.871 48.6876 18.0936 48.646 18.3088C48.6044 18.5241 48.5034 18.7234 48.3544 18.8843C48.2054 19.0451 48.0144 19.161 47.803 19.219L45.574 19.826L44.81 22.006C44.7374 22.2129 44.6084 22.3955 44.4375 22.533C44.2667 22.6705 44.0607 22.7575 43.843 22.7842C43.6253 22.8108 43.4045 22.776 43.2055 22.6837C43.0065 22.5914 42.8373 22.4454 42.717 22.262L41.451 20.33L39.142 20.277C38.9227 20.2719 38.7091 20.2057 38.5254 20.0856C38.3418 19.9656 38.1954 19.7965 38.1028 19.5976C38.0102 19.3987 37.9751 19.1778 38.0014 18.96C38.0278 18.7422 38.1146 18.5361 38.252 18.365L39.698 16.565L39.035 14.352C38.9721 14.1419 38.9692 13.9184 39.0266 13.7067C39.0841 13.4951 39.1997 13.3037 39.3601 13.1542C39.5206 13.0048 39.7197 12.9032 39.9349 12.8609C40.1501 12.8186 40.3729 12.8373 40.578 12.915L42.738 13.734L44.638 12.42C44.8182 12.2966 45.0293 12.2259 45.2475 12.2157C45.4657 12.2056 45.6825 12.2565 45.8734 12.3626C46.0643 12.4687 46.2219 12.6259 46.3285 12.8165C46.4351 13.0072 46.4865 13.2238 46.477 13.442Z" fill="#F9B938"/>
</g>
<g id="Group 3717" opacity="0.4">
<g id="Group 3716" opacity="0.4">
<path id="Path 2174" opacity="0.4" d="M45.138 14.214C45.1214 14.2499 45.0979 14.2823 45.0688 14.3091C45.0397 14.3359 45.0056 14.3567 44.9684 14.3703C44.9312 14.3839 44.8917 14.3899 44.8522 14.3882C44.8126 14.3864 44.7738 14.3768 44.738 14.36C44.6833 14.3347 44.6221 14.3274 44.563 14.339C44.5272 14.3463 44.4933 14.3606 44.463 14.381L43.324 15.17C43.2059 15.252 43.0696 15.304 42.9269 15.3214C42.7842 15.3388 42.6394 15.3212 42.505 15.27L41.21 14.779C41.1621 14.7583 41.1091 14.7526 41.0579 14.7626C41.0066 14.7726 40.9596 14.7979 40.923 14.835C40.8845 14.8695 40.8566 14.9142 40.8424 14.9639C40.8282 15.0137 40.8285 15.0664 40.843 15.116V15.125L41.234 16.431C41.2535 16.4891 41.2546 16.5517 41.2374 16.6105C41.2202 16.6693 41.1854 16.7214 41.1378 16.7598C41.0901 16.7983 41.0318 16.8212 40.9707 16.8255C40.9096 16.8298 40.8486 16.8153 40.796 16.784C40.7279 16.7445 40.6764 16.6816 40.651 16.607L40.282 15.347C40.2717 15.3314 40.2652 15.3136 40.263 15.295C40.2134 15.1372 40.2102 14.9686 40.2536 14.8091C40.297 14.6496 40.3853 14.5059 40.508 14.395C40.6285 14.281 40.7789 14.2033 40.9416 14.1709C41.1044 14.1385 41.273 14.1527 41.428 14.212L42.715 14.705C42.7583 14.7207 42.8047 14.7257 42.8503 14.7196C42.8959 14.7135 42.9394 14.6965 42.977 14.67L44.113 13.886C44.1922 13.831 44.2806 13.7903 44.374 13.766C44.3932 13.7569 44.4133 13.7499 44.434 13.745C44.6223 13.7078 44.8176 13.7335 44.99 13.818C45.0619 13.8511 45.1179 13.9113 45.1456 13.9855C45.1734 14.0597 45.1706 14.1418 45.138 14.214Z" fill="white"/>
</g>
</g>
<g id="Group 3718">
<path id="Path 2175" d="M47.8 19.221L45.573 19.821L44.919 21.699L44.811 22.006C44.7382 22.2126 44.6092 22.3948 44.4384 22.532C44.2676 22.6691 44.0618 22.7558 43.8444 22.7822C43.6269 22.8086 43.4064 22.7737 43.2077 22.6815C43.009 22.5892 42.8401 22.4432 42.72 22.26L42.214 21.487L41.449 20.327L39.142 20.274C38.923 20.2689 38.7098 20.2027 38.5264 20.0829C38.3431 19.963 38.1969 19.7944 38.1043 19.5958C38.0118 19.3973 37.9765 19.1768 38.0026 18.9594C38.0287 18.7419 38.1151 18.536 38.252 18.365L38.462 18.1C38.4371 18.2652 38.4477 18.4338 38.493 18.5945C38.5383 18.7553 38.6173 18.9046 38.7247 19.0325C38.8322 19.1604 38.9657 19.2639 39.1162 19.3362C39.2668 19.4086 39.431 19.4481 39.598 19.452L41.544 19.493C41.6536 19.4948 41.7604 19.5272 41.8525 19.5866C41.9446 19.646 42.0182 19.7299 42.065 19.829L42.587 20.929C42.6498 21.0663 42.748 21.1844 42.8715 21.2712C42.995 21.3581 43.1393 21.4105 43.2897 21.4231C43.4402 21.4357 43.5912 21.408 43.7275 21.343C43.8637 21.278 43.9802 21.1779 44.065 21.053C44.0843 21.0215 44.1001 20.988 44.112 20.953L44.774 19.068C44.8057 18.9781 44.8586 18.8972 44.9282 18.8321C44.9979 18.767 45.0822 18.7196 45.174 18.694L47.1 18.166C47.3607 18.0968 47.5895 17.9394 47.7473 17.7206C47.9052 17.5019 47.9824 17.2353 47.966 16.966L48.205 17.147C48.3807 17.2798 48.5155 17.4593 48.5942 17.665C48.6728 17.8707 48.6922 18.0943 48.65 18.3104C48.6078 18.5266 48.5057 18.7265 48.3554 18.8875C48.2051 19.0485 48.0127 19.164 47.8 19.221Z" fill="#E5A320"/>
</g>
</g>
<g id="Group 3724">
<g id="Group 3720">
<path id="Path 2176" d="M2.85607 13.081L2.96807 15.388L1.13103 16.788C0.95649 16.9208 0.822561 17.0996 0.744314 17.3045C0.666067 17.5093 0.64662 17.7319 0.688223 17.9472C0.729825 18.1625 0.830798 18.3619 0.979726 18.5228C1.12866 18.6838 1.31963 18.7998 1.53106 18.858L3.76006 19.465L4.52404 21.645C4.59673 21.8519 4.72585 22.0344 4.89678 22.1718C5.06771 22.3092 5.27362 22.3961 5.49132 22.4226C5.70902 22.4491 5.92985 22.4143 6.12877 22.3219C6.32769 22.2296 6.49681 22.0834 6.61706 21.9L7.88305 19.968L10.193 19.915C10.4125 19.9102 10.6262 19.844 10.8099 19.7239C10.9937 19.6038 11.1401 19.4347 11.2326 19.2357C11.3251 19.0366 11.3601 18.8157 11.3335 18.5979C11.3069 18.38 11.2197 18.1739 11.082 18.003L9.63604 16.203L10.2991 13.991C10.3624 13.7809 10.3655 13.5572 10.3082 13.3453C10.2509 13.1335 10.1354 12.9419 9.97478 12.7923C9.81417 12.6427 9.61486 12.5412 9.39947 12.499C9.18407 12.4569 8.96116 12.476 8.75603 12.554L6.59606 13.373L4.69603 12.058C4.51569 11.9343 4.30444 11.8634 4.08599 11.8531C3.86753 11.8428 3.65054 11.8937 3.4594 12C3.26826 12.1062 3.11054 12.2637 3.00396 12.4547C2.89738 12.6456 2.84617 12.8625 2.85607 13.081Z" fill="#F9B938"/>
</g>
<g id="Group 3722" opacity="0.4">
<g id="Group 3721" opacity="0.4">
<path id="Path 2177" opacity="0.4" d="M4.20016 13.853C4.21682 13.8889 4.24041 13.9211 4.26956 13.9478C4.29871 13.9745 4.33285 13.9952 4.37003 14.0087C4.4072 14.0221 4.44662 14.0281 4.48611 14.0263C4.52561 14.0245 4.56436 14.0148 4.60013 13.998C4.65517 13.9728 4.71673 13.9654 4.77615 13.977C4.81181 13.9846 4.8457 13.9989 4.87613 14.019L6.01517 14.809C6.13326 14.891 6.26955 14.9429 6.41226 14.9604C6.55498 14.9778 6.69978 14.9602 6.83414 14.909L8.12918 14.419C8.17715 14.3981 8.23027 14.3922 8.28165 14.402C8.33303 14.4118 8.38024 14.4369 8.41714 14.474C8.45542 14.5089 8.48321 14.5537 8.49734 14.6036C8.51148 14.6534 8.51142 14.7062 8.49716 14.756C8.46716 14.856 8.07318 16.171 8.10318 16.07C8.09162 16.1083 8.08767 16.1484 8.09164 16.1882C8.09562 16.228 8.10742 16.2666 8.12631 16.3019C8.14521 16.3371 8.17087 16.3683 8.20181 16.3936C8.23276 16.4189 8.26839 16.438 8.30667 16.4495C8.34495 16.4611 8.38511 16.465 8.4249 16.461C8.46468 16.457 8.5033 16.4452 8.53854 16.4263C8.57378 16.4074 8.60495 16.3818 8.63028 16.3508C8.65561 16.3199 8.67457 16.2842 8.68613 16.246L9.05515 14.987C9.0662 14.9713 9.07311 14.9531 9.07516 14.934C9.12242 14.7752 9.12439 14.6064 9.0809 14.4465C9.03742 14.2867 8.95019 14.1421 8.82901 14.0292C8.70783 13.9162 8.5575 13.8393 8.39499 13.8071C8.23248 13.7749 8.06423 13.7887 7.90915 13.847L6.62216 14.34C6.57892 14.3559 6.53249 14.3609 6.48685 14.3548C6.4412 14.3487 6.3977 14.3316 6.36014 14.305L5.22415 13.521C5.14519 13.4663 5.05715 13.426 4.96414 13.402C4.94462 13.3925 4.9242 13.3852 4.90317 13.38C4.71482 13.3433 4.51964 13.369 4.34714 13.453C4.3111 13.4695 4.27872 13.4929 4.2518 13.522C4.22488 13.551 4.20394 13.5852 4.19028 13.6224C4.17661 13.6595 4.17046 13.699 4.17215 13.7386C4.17384 13.7782 4.18337 13.8171 4.20016 13.853Z" fill="white"/>
</g>
</g>
<g id="Group 3723">
<path id="Path 2178" d="M1.53703 18.859L3.76402 19.459C3.84202 19.682 3.48202 18.649 4.52702 21.644C4.59988 21.8506 4.72902 22.0327 4.89988 22.1697C5.07074 22.3068 5.27654 22.3934 5.494 22.4197C5.71145 22.446 5.93191 22.411 6.13053 22.3186C6.32915 22.2262 6.498 22.0802 6.61802 21.897L7.12406 21.124L7.88804 19.965L10.196 19.911C10.4151 19.9061 10.6284 19.84 10.8119 19.7202C10.9953 19.6003 11.1416 19.4315 11.2341 19.2329C11.3266 19.0343 11.3616 18.8137 11.3353 18.5962C11.309 18.3787 11.2223 18.1728 11.0851 18.002L10.875 17.737C10.9001 17.9022 10.8896 18.0708 10.8444 18.2317C10.7992 18.3925 10.7202 18.5419 10.6127 18.6698C10.5052 18.7977 10.3717 18.9013 10.221 18.9736C10.0704 19.0459 9.9061 19.0852 9.73905 19.089L7.79307 19.13C7.6835 19.1322 7.57668 19.165 7.48466 19.2245C7.39264 19.284 7.31899 19.368 7.27201 19.467L6.75004 20.567C6.6875 20.7044 6.58953 20.8226 6.46617 20.9095C6.3428 20.9965 6.19852 21.049 6.04814 21.0618C5.89775 21.0745 5.74667 21.047 5.61045 20.982C5.47423 20.917 5.35778 20.8169 5.27305 20.692C5.25354 20.6605 5.23742 20.6269 5.22502 20.592L4.56303 18.707C4.53141 18.6171 4.47851 18.5363 4.40885 18.4714C4.3392 18.4064 4.25489 18.3593 4.16306 18.334L2.23606 17.806C1.97563 17.7363 1.74723 17.5787 1.58946 17.3601C1.43168 17.1415 1.35418 16.8752 1.37003 16.606L1.13102 16.787C0.955952 16.92 0.821679 17.0994 0.743448 17.3049C0.665217 17.5104 0.646176 17.7338 0.688455 17.9495C0.730734 18.1653 0.832648 18.3649 0.982645 18.5256C1.13264 18.6864 1.3247 18.8019 1.53703 18.859Z" fill="#E5A320"/>
</g>
</g>
</g>
</g>
<g id="Group 3730">
<g id="Group 3727">
<path id="Path 2179" d="M17.4811 33.756C17.3901 33.6844 17.3225 33.5872 17.2871 33.477L15.6621 28.488C15.6478 28.4422 15.6394 28.3949 15.6371 28.347C15.6327 28.2992 15.639 28.251 15.6554 28.2059C15.6718 28.1608 15.698 28.1198 15.7321 28.086C15.768 28.052 15.8104 28.0256 15.8568 28.0084C15.9032 27.9912 15.9527 27.9836 16.0021 27.986C16.0869 27.9849 16.1692 28.0144 16.2341 28.069C16.3009 28.1255 16.3499 28.2002 16.3751 28.284L17.7671 32.86L19.1671 28.301C19.1929 28.2088 19.2498 28.1283 19.3281 28.073C19.4066 28.0165 19.5008 27.986 19.5975 27.986C19.6943 27.986 19.7886 28.0165 19.8671 28.073C19.9453 28.1283 20.0021 28.2088 20.0281 28.301L21.428 32.86L22.8211 28.284C22.8455 28.2001 22.8942 28.1253 22.9611 28.069C23.0263 28.0144 23.1089 27.985 23.194 27.986C23.2433 27.9837 23.2926 27.9913 23.3388 28.0084C23.385 28.0256 23.4273 28.052 23.4631 28.086C23.4973 28.1197 23.5236 28.1606 23.54 28.2058C23.5565 28.2509 23.5626 28.2992 23.5581 28.347C23.5557 28.3948 23.5477 28.4421 23.5341 28.488L21.9091 33.477C21.8722 33.5881 21.8025 33.6854 21.7091 33.756C21.6215 33.8196 21.5157 33.8531 21.4075 33.8515C21.2994 33.8499 21.1946 33.8132 21.1091 33.747C21.0181 33.6807 20.9522 33.5855 20.9221 33.477L19.6 29.25L18.2651 33.477C18.2352 33.5854 18.1696 33.6805 18.079 33.747C17.9935 33.8132 17.8888 33.8499 17.7806 33.8515C17.6724 33.8531 17.5666 33.8196 17.4791 33.756H17.4811Z" fill="white"/>
<path id="Path 2180" d="M21.4231 34.1C21.2584 34.101 21.0983 34.046 20.9691 33.944C20.8355 33.8451 20.739 33.7043 20.6951 33.544L19.5951 30.075L18.4951 33.548C18.4496 33.7064 18.3525 33.8451 18.2191 33.942C18.0909 34.0394 17.9348 34.093 17.7738 34.0948C17.6128 34.0966 17.4555 34.0465 17.3251 33.952C17.1947 33.8513 17.0969 33.7142 17.0441 33.558L15.4171 28.558C15.3951 28.4873 15.3827 28.414 15.3801 28.34C15.3754 28.2593 15.3879 28.1784 15.4169 28.1029C15.4458 28.0274 15.4906 27.9589 15.5481 27.902C15.6603 27.7962 15.807 27.7344 15.9611 27.728C16.1152 27.7215 16.2665 27.7709 16.3871 27.867C16.4917 27.9533 16.568 28.0689 16.6061 28.199L17.7611 31.999L18.9221 28.221C18.9641 28.0765 19.0536 27.9504 19.1761 27.863C19.2979 27.7767 19.4434 27.7303 19.5927 27.7303C19.7419 27.7303 19.8874 27.7767 20.0091 27.863C20.1317 27.9507 20.2212 28.0772 20.2631 28.222L21.4301 32L22.5851 28.2C22.6243 28.0693 22.7007 27.9528 22.8051 27.865C22.9262 27.77 23.0772 27.7216 23.231 27.7283C23.3847 27.7351 23.5309 27.7967 23.6431 27.902C23.702 27.9606 23.7475 28.0313 23.7765 28.1091C23.8055 28.187 23.8173 28.2702 23.8111 28.353C23.8077 28.4188 23.7967 28.4838 23.7781 28.547L22.1491 33.547C22.0973 33.7058 21.9987 33.8453 21.8662 33.947C21.7395 34.0457 21.5836 34.0994 21.4231 34.1ZM19.5991 28.231C19.5552 28.2298 19.5122 28.2436 19.4771 28.27C19.4425 28.2935 19.4182 28.3292 19.4091 28.37L17.8001 33.6C17.8462 33.5955 17.89 33.5779 17.9261 33.549C17.9749 33.5152 18.0103 33.4653 18.0261 33.408L19.6011 28.42L21.1741 33.402C21.19 33.4603 21.2253 33.5114 21.2741 33.547C21.3108 33.5766 21.3552 33.5949 21.4021 33.6L19.7951 28.37C19.7851 28.3293 19.7606 28.2938 19.7261 28.27C19.6899 28.243 19.6453 28.2295 19.6001 28.232L19.5991 28.231ZM17.6301 33.555C17.6599 33.5764 17.694 33.5907 17.7301 33.597L16.1301 28.352C16.1206 28.3151 16.0996 28.2821 16.0701 28.258C16.0454 28.242 16.0166 28.2335 15.9871 28.2335C15.9577 28.2335 15.9289 28.242 15.9041 28.258C15.8948 28.2668 15.8878 28.2779 15.884 28.2901C15.8801 28.3024 15.8795 28.3154 15.8821 28.328C15.8832 28.3586 15.8885 28.389 15.8981 28.418L17.5191 33.395C17.54 33.4582 17.5785 33.514 17.6301 33.556V33.555ZM23.1971 28.231C23.1708 28.2295 23.1449 28.2385 23.1251 28.256C23.0945 28.2822 23.0726 28.3171 23.0621 28.356L21.4621 33.6C21.4983 33.5934 21.5325 33.5788 21.5621 33.557C21.6131 33.5148 21.6503 33.4585 21.6691 33.395L23.2921 28.413C23.2982 28.3918 23.3022 28.37 23.3041 28.348C23.3041 28.293 23.2951 28.277 23.2831 28.265C23.2722 28.2542 23.2593 28.2457 23.245 28.2401C23.2307 28.2344 23.2155 28.2316 23.2001 28.232L23.1971 28.231Z" fill="white"/>
</g>
<g id="Group 3728">
<path id="Path 2181" d="M24.7002 33.743C24.6647 33.7085 24.6367 33.6671 24.6179 33.6214C24.5992 33.5756 24.5901 33.5265 24.5912 33.477V28.363C24.5906 28.3132 24.5999 28.2637 24.6186 28.2175C24.6373 28.1714 24.6651 28.1294 24.7002 28.094C24.7338 28.0578 24.7747 28.029 24.8202 28.0097C24.8657 27.9904 24.9147 27.981 24.9641 27.982C25.0653 27.982 25.1623 28.0221 25.2339 28.0935C25.3055 28.1649 25.3459 28.2619 25.3462 28.363V33.477C25.3474 33.5267 25.3381 33.5762 25.3188 33.6221C25.2994 33.6679 25.2706 33.7091 25.2342 33.743C25.1987 33.7782 25.1565 33.8059 25.1101 33.8244C25.0638 33.843 25.0141 33.852 24.9641 33.851C24.9151 33.8521 24.8663 33.8431 24.8209 33.8245C24.7755 33.806 24.7344 33.7782 24.7002 33.743Z" fill="white"/>
<path id="Path 2182" d="M24.9621 34.1C24.8801 34.1004 24.7989 34.0845 24.723 34.0533C24.6472 34.022 24.5783 33.9761 24.5203 33.9181C24.4624 33.86 24.4166 33.7911 24.3855 33.7152C24.3543 33.6393 24.3386 33.558 24.3391 33.476V28.362C24.3382 28.2376 24.3744 28.1158 24.4429 28.012C24.5115 27.9083 24.6095 27.8273 24.7243 27.7795C24.8391 27.7316 24.9656 27.719 25.0875 27.7433C25.2095 27.7677 25.3215 27.8278 25.4091 27.916C25.4683 27.9741 25.5152 28.0435 25.547 28.1202C25.5788 28.1968 25.5948 28.279 25.5941 28.362V33.476C25.5955 33.5598 25.5793 33.643 25.5466 33.7201C25.5139 33.7973 25.4653 33.8667 25.4041 33.924C25.2859 34.0388 25.1269 34.1021 24.9621 34.1ZM24.9621 28.231C24.9463 28.2298 24.9305 28.2323 24.9159 28.2384C24.9013 28.2445 24.8884 28.2539 24.8781 28.266C24.8646 28.2787 24.854 28.2943 24.8472 28.3116C24.8405 28.3289 24.8377 28.3475 24.8391 28.366V33.48C24.8379 33.4963 24.8404 33.5128 24.8465 33.528C24.8525 33.5433 24.862 33.5569 24.8742 33.568C24.9 33.5882 24.9318 33.5992 24.9646 33.5992C24.9974 33.5992 25.0293 33.5882 25.0551 33.568C25.068 33.5577 25.0781 33.5443 25.0846 33.5292C25.091 33.514 25.0936 33.4974 25.0921 33.481V28.367C25.093 28.3496 25.09 28.3321 25.0833 28.316C25.0765 28.2999 25.0662 28.2855 25.0531 28.274C25.042 28.2607 25.0281 28.2501 25.0123 28.2428C24.9966 28.2356 24.9794 28.2319 24.9621 28.232V28.231Z" fill="white"/>
</g>
<g id="Group 3729">
<path id="Path 2183" d="M27.0602 33.743C27.0249 33.7084 26.9971 33.667 26.9785 33.6213C26.9599 33.5755 26.951 33.5263 26.9523 33.477V28.529C26.9513 28.4573 26.9648 28.3862 26.9919 28.3199C27.0191 28.2535 27.0593 28.1934 27.1102 28.143C27.159 28.0911 27.2181 28.05 27.2837 28.0223C27.3494 27.9946 27.4201 27.9808 27.4913 27.982H27.5983C27.6886 27.9836 27.7772 28.007 27.8566 28.0501C27.9359 28.0933 28.0038 28.155 28.0543 28.23L31.2462 32.84V28.363C31.2455 28.3132 31.2546 28.2638 31.2732 28.2176C31.2917 28.1714 31.3193 28.1294 31.3542 28.094C31.388 28.0576 31.429 28.0288 31.4747 28.0095C31.5204 27.9902 31.5697 27.9808 31.6193 27.982C31.6694 27.9811 31.7191 27.9906 31.7654 28.0099C31.8117 28.0291 31.8535 28.0578 31.8882 28.094C31.9244 28.1287 31.9531 28.1705 31.9725 28.2168C31.992 28.263 32.0017 28.3128 32.0012 28.363V33.312C32.0024 33.3834 31.9885 33.4542 31.9604 33.5199C31.9324 33.5855 31.8907 33.6445 31.8383 33.693C31.7883 33.7439 31.7285 33.7842 31.6625 33.8114C31.5965 33.8385 31.5256 33.852 31.4542 33.851H31.3542C31.2674 33.8514 31.1818 33.83 31.1052 33.789C31.0308 33.7495 30.966 33.6942 30.9152 33.627L27.7072 28.993V33.477C27.7083 33.5268 27.6988 33.5763 27.6793 33.6221C27.6598 33.668 27.6308 33.7091 27.5942 33.743C27.5589 33.778 27.5169 33.8057 27.4707 33.8243C27.4245 33.8428 27.375 33.8519 27.3253 33.851C27.276 33.8522 27.2271 33.8432 27.1815 33.8246C27.1359 33.806 27.0946 33.7782 27.0602 33.743Z" fill="white"/>
<path id="Path 2184" d="M31.4542 34.1H31.3542C31.2265 34.1004 31.1008 34.0691 30.9882 34.009C30.8815 33.9514 30.7882 33.872 30.7142 33.776L27.9572 29.792V33.476C27.9584 33.5599 27.9421 33.6431 27.9092 33.7203C27.8763 33.7975 27.8276 33.8669 27.7662 33.924C27.6463 34.0354 27.4888 34.0973 27.3252 34.0973C27.1616 34.0973 27.004 34.0354 26.8842 33.924C26.8255 33.8661 26.7791 33.7969 26.7479 33.7206C26.7166 33.6443 26.7011 33.5625 26.7022 33.48V28.532C26.701 28.4281 26.7206 28.325 26.7599 28.2288C26.7993 28.1327 26.8575 28.0453 26.9312 27.972C27.0034 27.8963 27.0903 27.8363 27.1866 27.7955C27.283 27.7547 27.3866 27.7341 27.4912 27.735H27.5982C27.7271 27.7363 27.8537 27.7683 27.9676 27.8285C28.0816 27.8887 28.1795 27.9753 28.2532 28.081L31.0002 32.04V28.363C30.9988 28.1981 31.0624 28.0394 31.1772 27.921C31.2959 27.8036 31.4561 27.7376 31.6232 27.7376C31.7902 27.7376 31.9504 27.8036 32.0692 27.921C32.1285 27.9791 32.1756 28.0485 32.2075 28.1251C32.2395 28.2018 32.2557 28.284 32.2552 28.367V33.316C32.2564 33.421 32.2357 33.525 32.1946 33.6216C32.1534 33.7182 32.0927 33.8052 32.0162 33.877C31.942 33.9496 31.854 34.0067 31.7576 34.0449C31.6611 34.0832 31.5579 34.1019 31.4542 34.1ZM27.4842 28.231L31.1202 33.483C31.1472 33.518 31.1813 33.547 31.2202 33.568C31.2601 33.5895 31.3048 33.6005 31.3502 33.6H31.4642L27.8452 28.372C27.8185 28.3294 27.7816 28.2941 27.7377 28.2694C27.6939 28.2448 27.6445 28.2316 27.5942 28.231H27.4802H27.4842ZM27.4572 28.231C27.3929 28.2369 27.3332 28.2669 27.2902 28.315C27.2615 28.3421 27.2389 28.3748 27.2238 28.4112C27.2086 28.4475 27.2013 28.4867 27.2022 28.526V33.474C27.2008 33.4903 27.2032 33.5067 27.209 33.5219C27.2149 33.5372 27.2242 33.5509 27.2362 33.562C27.262 33.5822 27.2939 33.5932 27.3267 33.5932C27.3595 33.5932 27.3913 33.5822 27.4172 33.562C27.4302 33.5518 27.4405 33.5385 27.4471 33.5233C27.4538 33.5082 27.4566 33.4915 27.4552 33.475L27.4572 28.231ZM31.6192 28.231C31.6034 28.2298 31.5876 28.2323 31.573 28.2384C31.5584 28.2445 31.5454 28.254 31.5352 28.266C31.5214 28.2786 31.5107 28.2941 31.504 28.3115C31.4972 28.3288 31.4945 28.3475 31.4962 28.3661V33.6C31.5599 33.592 31.6191 33.5628 31.6642 33.5171C31.692 33.4918 31.7142 33.4609 31.7292 33.4264C31.7442 33.3919 31.7517 33.3546 31.7512 33.317V28.368C31.7506 28.3333 31.7366 28.3001 31.7119 28.2756C31.6872 28.2511 31.654 28.2373 31.6192 28.237V28.231Z" fill="white"/>
</g>
</g>
</g>
</svg>
