<svg width="59" height="59" viewBox="0 0 59 59" fill="none" xmlns="http://www.w3.org/2000/svg">
<g id="148">
<g id="Group 539">
<g id="Group 538">
<path id="Ellipse 6" d="M53.0189 34.841C56.0675 21.9441 48.0839 9.01766 35.1869 5.96905C22.29 2.92043 9.36353 10.9041 6.31492 23.801C3.26631 36.698 11.25 49.6244 24.1469 52.673C37.0439 55.7217 49.9703 47.738 53.0189 34.841Z" fill="#F9B938"/>
</g>
</g>
<g id="Group 542" opacity="0.5">
<g id="Group 541" opacity="0.5">
<g id="Group 540" opacity="0.5">
<path id="Path 379" opacity="0.5" d="M9.31892 24.87C9.20459 24.8702 9.09177 24.8443 8.98902 24.7942C8.88627 24.744 8.79638 24.671 8.7262 24.5808C8.65603 24.4905 8.60744 24.3854 8.58417 24.2735C8.5609 24.1615 8.56353 24.0458 8.59193 23.935C9.97062 18.5179 13.3866 13.8417 18.1279 10.881C18.2963 10.7749 18.5 10.7401 18.6941 10.7842C18.8882 10.8282 19.0569 10.9476 19.163 11.116C19.2691 11.2844 19.3038 11.4881 19.2598 11.6822C19.2157 11.8763 19.0963 12.0449 18.9279 12.151C14.5127 14.9073 11.3314 19.261 10.0469 24.305C10.0056 24.4667 9.91162 24.61 9.77979 24.7123C9.64796 24.8146 9.48579 24.8701 9.31892 24.87Z" fill="white"/>
</g>
</g>
</g>
<g id="Group 545" opacity="0.5">
<g id="Group 544" opacity="0.5">
<g id="Group 543" opacity="0.5">
<path id="Path 380" opacity="0.5" d="M23.8899 9.86902C23.7091 9.86889 23.5344 9.80345 23.398 9.68475C23.2616 9.56605 23.1727 9.40209 23.1476 9.22304C23.1226 9.04398 23.1631 8.86189 23.2616 8.7103C23.3601 8.5587 23.5101 8.4478 23.6839 8.39801C24.8679 8.05923 26.0785 7.82204 27.3028 7.68901C27.5001 7.66984 27.6971 7.72872 27.8515 7.85303C28.0059 7.97733 28.1055 8.15718 28.1289 8.35402C28.1396 8.45194 28.1308 8.551 28.1031 8.64554C28.0755 8.74008 28.0295 8.82823 27.9677 8.90495C27.9059 8.98168 27.8296 9.04547 27.7431 9.09267C27.6567 9.13986 27.5618 9.16954 27.4638 9.18001C26.3249 9.304 25.1985 9.52447 24.0968 9.83902C24.0296 9.85876 23.9599 9.86885 23.8899 9.86902Z" fill="white"/>
</g>
</g>
</g>
<g id="Group 547">
<g id="Group 546">
<path id="Path 381" d="M29.6699 29.3L29.6769 29.307H29.6639V29.32L29.6569 29.313L29.6439 29.339V29.319L29.6179 29.332L29.6439 29.286L29.6899 29.26L29.6769 29.286H29.697L29.6699 29.3Z" fill="#2D2C2C"/>
</g>
</g>
<g id="Group 549">
<g id="Group 548">
<path id="Path 382" d="M53.665 29.313C53.6662 34.4513 52.0184 39.4543 48.9639 43.5861C45.9093 47.7178 41.6093 50.7602 36.6965 52.2656C31.7837 53.771 26.5175 53.66 21.6725 51.9489C16.8276 50.2377 12.6597 47.0168 9.78198 42.76C14.3991 45.8954 19.9646 47.3236 25.5209 46.7989C31.0773 46.2743 36.2771 43.8296 40.2258 39.8854C44.1744 35.9413 46.625 30.7443 47.156 25.1885C47.687 19.6328 46.2651 14.0657 43.135 9.44501C46.3801 11.6441 49.0367 14.605 50.8724 18.0686C52.7081 21.5322 53.6669 25.393 53.665 29.313Z" fill="#ECB021"/>
</g>
</g>
<g id="Group 551">
<g id="Group 550">
<path id="Path 383" d="M29.6649 29.307L45.551 20.135C43.9359 17.3505 41.6215 15.0361 38.8369 13.421L29.6649 29.307Z" fill="#FC6559"/>
</g>
</g>
<g id="Group 557">
<g id="Group 556">
<path id="Path 386" d="M29.642 29.284H47.9999C48.0026 26.0624 47.1514 22.8976 45.533 20.112L29.6459 29.284H29.642Z" fill="#5BC658"/>
</g>
</g>
<g id="Group 573">
<g id="Group 572">
<path id="Path 394" d="M29.642 29.284L20.469 45.173C23.2549 46.7918 26.42 47.6433 29.642 47.641V29.284Z" fill="#5BC658"/>
</g>
</g>
<g id="Group 575">
<g id="Group 574">
<path id="Path 395" d="M29.6649 47.663C32.8872 47.6658 36.0526 46.8145 38.8389 45.196L29.6649 29.307V47.663Z" fill="#FC6559"/>
</g>
</g>
<g id="Group 577">
<g id="Group 576">
<path id="Path 396" d="M29.642 29.284L38.8159 45.173C41.6011 43.5575 43.9159 41.2424 45.5309 38.457L29.642 29.284Z" fill="#E4E3FF"/>
</g>
</g>
<g id="Group 579">
<g id="Group 578">
<path id="Path 397" d="M48.0189 29.307H29.6649L45.5529 38.48C47.1705 35.6944 48.0213 32.5301 48.0189 29.309V29.307Z" fill="#FC6559"/>
</g>
</g>
<g id="Group 581">
<g id="Group 580">
<path id="Path 398" d="M29.6649 29.307L13.7759 38.48C15.3917 41.2648 17.7063 43.5798 20.4909 45.196L29.6649 29.307Z" fill="#FC6559"/>
</g>
</g>
<g id="Group 583">
<g id="Group 582">
<path id="Path 399" d="M29.6769 29.286H29.6969L29.6709 29.299L29.6769 29.286Z" fill="#FC6559"/>
</g>
</g>
<g id="Group 585">
<g id="Group 584">
<path id="Path 400" d="M45.5529 20.135L45.5399 20.141L44.4399 20.777C44.4428 20.772 44.4443 20.7663 44.4443 20.7605C44.4443 20.7547 44.4428 20.749 44.4399 20.744C44.318 19.7037 44.1175 18.674 43.84 17.664C44.477 18.4399 45.0498 19.2663 45.5529 20.135Z" fill="#F05543"/>
</g>
</g>
<g id="Group 587">
<g id="Group 586">
<path id="Path 401" d="M29.6439 29.286L29.6899 29.26L29.6769 29.286H29.6439Z" fill="#E4E3FF"/>
</g>
</g>
<g id="Group 589">
<g id="Group 588">
<path id="Path 402" d="M43.7109 29.286C44.2947 27.3289 44.5905 25.2973 44.5889 23.255C44.5916 22.4267 44.5415 21.599 44.439 20.777C44.4419 20.772 44.4434 20.7663 44.4434 20.7605C44.4434 20.7547 44.4419 20.749 44.439 20.744L45.5269 20.115C45.5334 20.1224 45.5379 20.1314 45.5399 20.141C47.153 22.9187 48.0018 26.0739 47.9999 29.286H43.7109Z" fill="#49A247"/>
</g>
</g>
<g id="Group 591">
<g id="Group 590">
<path id="Path 403" d="M29.6439 29.286V29.319L29.6179 29.332L29.6439 29.286Z" fill="#E4E3FF"/>
</g>
</g>
<g id="Group 593">
<g id="Group 592">
<path id="Path 404" d="M23.6129 44.231C25.6552 44.2326 27.6869 43.9368 29.6439 43.353V47.64C26.4317 47.6435 23.2753 46.8002 20.4929 45.195V45.188C20.4831 45.1866 20.474 45.182 20.4669 45.175L21.103 44.075C21.1076 44.0785 21.1132 44.0803 21.119 44.0803C21.1247 44.0803 21.1303 44.0785 21.1349 44.075C21.9568 44.1801 22.7844 44.2322 23.6129 44.231Z" fill="#49A247"/>
</g>
</g>
<g id="Group 595">
<g id="Group 594">
<path id="Path 405" d="M38.8409 45.2C36.054 46.8201 32.8875 47.6727 29.6639 47.671V43.351C31.9224 42.6705 34.0497 41.6133 35.9559 40.224C35.9559 40.224 35.963 40.224 35.963 40.218L38.827 45.173L38.8409 45.2Z" fill="#F05543"/>
</g>
</g>
<g id="Group 597">
<g id="Group 596">
<path id="Path 406" d="M29.6699 29.3L29.6769 29.307H29.6639V29.32L29.6569 29.313L29.6439 29.287L29.6699 29.3Z" fill="#E4E3FF"/>
</g>
</g>
<g id="Group 599">
<g id="Group 598">
<path id="Path 407" d="M45.533 38.456C45.533 38.463 45.5269 38.463 45.5269 38.469C43.9116 41.245 41.6029 43.5537 38.827 45.169C38.821 45.169 38.821 45.176 38.814 45.176L35.9559 40.22C35.9559 40.22 35.963 40.22 35.963 40.214C37.7287 38.9263 39.2832 37.3717 40.5709 35.606C40.5728 35.606 40.5746 35.6053 40.5759 35.6039C40.5772 35.6026 40.5779 35.6009 40.5779 35.599L45.533 38.456Z" fill="#D2D2F7"/>
</g>
</g>
<g id="Group 601">
<g id="Group 600">
<path id="Path 408" d="M48.0179 29.3V29.307C48.0214 32.5279 47.1708 35.692 45.5529 38.477L45.5269 38.464L40.5709 35.6C40.5728 35.6 40.5746 35.5993 40.5759 35.598C40.5772 35.5966 40.5779 35.5949 40.5779 35.593C41.9657 33.6862 43.0212 31.5586 43.7 29.3H48.0179Z" fill="#F05543"/>
</g>
</g>
<g id="Group 603">
<g id="Group 602">
<path id="Path 409" d="M21.0999 44.08C21.1046 44.0834 21.1102 44.0853 21.116 44.0853C21.1217 44.0853 21.1273 44.0834 21.132 44.08L20.4899 45.188V45.195C20.4839 45.188 20.4699 45.182 20.4639 45.175C19.6043 44.6754 18.7866 44.1069 18.0189 43.475C19.0289 43.7553 20.0589 43.9575 21.0999 44.08Z" fill="#F05543"/>
</g>
</g>
<g id="Group 605">
<g id="Group 604">
<path id="Path 410" d="M29.6569 29.312L29.6439 29.338V29.318L29.6569 29.312Z" fill="#FC6559"/>
</g>
</g>
<g id="Group 607">
<g id="Group 606">
<path id="Path 411" d="M11.288 29.284C11.2853 32.5052 12.1362 35.6696 13.754 38.455L29.642 29.282L11.288 29.284Z" fill="#E4E3FF"/>
</g>
</g>
<g id="Group 609">
<g id="Group 608">
<path id="Path 412" d="M20.4709 13.4C17.6863 15.0153 15.3716 17.3297 13.7559 20.114L29.6419 29.286L20.4709 13.4Z" fill="#5BC658"/>
</g>
</g>
<g id="Group 611">
<g id="Group 610">
<path id="Path 413" d="M38.814 13.4C36.0281 11.7823 32.8634 10.9315 29.642 10.934V29.286L38.814 13.4Z" fill="#E4E3FF"/>
</g>
</g>
<g id="Group 613">
<g id="Group 612">
<path id="Path 414" d="M29.6649 29.307V10.955C26.4434 10.9525 23.2788 11.8034 20.4929 13.421L29.6649 29.307Z" fill="#FC6559"/>
</g>
</g>
<g id="Group 615">
<g id="Group 614">
<path id="Path 415" d="M29.6649 29.307L13.7789 20.135C12.1601 22.9205 11.3085 26.0853 11.3109 29.307H29.6649Z" fill="#FC6559"/>
</g>
</g>
<g id="Group 617">
<g id="Group 616">
<path id="Ellipse 7" d="M29.665 37.837C34.3748 37.837 38.193 34.0189 38.193 29.309C38.193 24.5991 34.3748 20.781 29.665 20.781C24.9551 20.781 21.137 24.5991 21.137 29.309C21.137 34.0189 24.9551 37.837 29.665 37.837Z" fill="white"/>
</g>
</g>
<g id="Group 619">
<g id="Group 618">
<path id="Path 416" d="M38.192 29.312C38.1936 31.143 37.6053 32.9259 36.5144 34.3964C35.4235 35.867 33.8879 36.947 32.1351 37.4765C30.3823 38.006 28.5055 37.9568 26.7829 37.3362C25.0602 36.7157 23.5833 35.5567 22.5709 34.031C23.9693 34.9787 25.6206 35.4836 27.3099 35.48C28.8543 35.4816 30.3701 35.0633 31.6951 34.27C33.0201 33.4766 34.1045 32.338 34.8323 30.9759C35.5602 29.6138 35.9041 28.0794 35.8272 26.537C35.7503 24.9945 35.2556 23.502 34.3959 22.219C35.564 22.9971 36.5217 24.0518 37.184 25.2892C37.8462 26.5266 38.1925 27.9085 38.192 29.312Z" fill="#D0D0F7"/>
</g>
</g>
<g id="Group 621">
<g id="Group 620">
<path id="Rectangle 30" d="M30.2659 24.743H29.1409V27.272H30.2659V24.743Z" fill="#2D2C2C"/>
</g>
</g>
<g id="Group 623">
<g id="Group 622">
<path id="Ellipse 8" d="M29.6649 25.838C30.4105 25.838 31.0149 25.2336 31.0149 24.488C31.0149 23.7424 30.4105 23.138 29.6649 23.138C28.9194 23.138 28.3149 23.7424 28.3149 24.488C28.3149 25.2336 28.9194 25.838 29.6649 25.838Z" fill="#474646"/>
</g>
</g>
<g id="Group 625">
<g id="Group 624">
<path id="Rectangle 31" d="M30.189 31.346H29.064V33.875H30.189V31.346Z" fill="#2D2C2C"/>
</g>
</g>
<g id="Group 627">
<g id="Group 626">
<path id="Ellipse 9" d="M29.6649 35.479C30.4105 35.479 31.0149 34.8746 31.0149 34.129C31.0149 33.3834 30.4105 32.779 29.6649 32.779C28.9194 32.779 28.3149 33.3834 28.3149 34.129C28.3149 34.8746 28.9194 35.479 29.6649 35.479Z" fill="#474646"/>
</g>
</g>
<g id="Group 629">
<g id="Group 628">
<path id="Rectangle 32" d="M34.2319 28.785H31.7019V29.91H34.2319V28.785Z" fill="#2D2C2C"/>
</g>
</g>
<g id="Group 631">
<g id="Group 630">
<path id="Ellipse 10" d="M34.485 30.659C35.2306 30.659 35.835 30.0546 35.835 29.309C35.835 28.5634 35.2306 27.959 34.485 27.959C33.7394 27.959 33.135 28.5634 33.135 29.309C33.135 30.0546 33.7394 30.659 34.485 30.659Z" fill="#474646"/>
</g>
</g>
<g id="Group 633">
<g id="Group 632">
<path id="Rectangle 33" d="M27.6269 28.708H25.0979V29.833H27.6269V28.708Z" fill="#2D2C2C"/>
</g>
</g>
<g id="Group 635">
<g id="Group 634">
<path id="Ellipse 11" d="M24.8439 30.659C25.5895 30.659 26.1939 30.0546 26.1939 29.309C26.1939 28.5634 25.5895 27.959 24.8439 27.959C24.0983 27.959 23.4939 28.5634 23.4939 29.309C23.4939 30.0546 24.0983 30.659 24.8439 30.659Z" fill="#474646"/>
</g>
</g>
<g id="Group 637">
<g id="Group 636">
<path id="Ellipse 12" d="M29.6649 31.59C30.9247 31.59 31.9459 30.5688 31.9459 29.309C31.9459 28.0493 30.9247 27.028 29.6649 27.028C28.4051 27.028 27.3839 28.0493 27.3839 29.309C27.3839 30.5688 28.4051 31.59 29.6649 31.59Z" fill="#FC6559"/>
</g>
</g>
<g id="Group 639">
<g id="Group 638">
<path id="Ellipse 13" d="M29.665 30.537C30.3432 30.537 30.893 29.9872 30.893 29.309C30.893 28.6308 30.3432 28.081 29.665 28.081C28.9868 28.081 28.437 28.6308 28.437 29.309C28.437 29.9872 28.9868 30.537 29.665 30.537Z" fill="white"/>
</g>
</g>
</g>
</svg>
