<svg width="49" height="48" viewBox="0 0 49 48" fill="none" xmlns="http://www.w3.org/2000/svg">
<g id="110">
<g id="Group 1771">
<path id="Rectangle 77" d="M20.216 -0.00698853H5.11799C2.65977 -0.00698853 0.666992 1.98579 0.666992 4.44401V19.535C0.666992 21.9932 2.65977 23.986 5.11799 23.986H20.216C22.6742 23.986 24.667 21.9932 24.667 19.535V4.44401C24.667 1.98579 22.6742 -0.00698853 20.216 -0.00698853Z" fill="#A2A2F9"/>
</g>
<g id="Group 1773" opacity="0.3">
<g id="Group 1772" opacity="0.3">
<path id="Path 1115" opacity="0.3" d="M3.17395 12.169C2.97504 12.169 2.78428 12.09 2.64363 11.9493C2.50298 11.8087 2.42395 11.6179 2.42395 11.419V6.51901C2.42395 6.3201 2.50298 6.12933 2.64363 5.98868C2.78428 5.84803 2.97504 5.76901 3.17395 5.76901C3.37286 5.76901 3.56363 5.84803 3.70428 5.98868C3.84494 6.12933 3.92395 6.3201 3.92395 6.51901V11.419C3.92395 11.6179 3.84494 11.8087 3.70428 11.9493C3.56363 12.09 3.37286 12.169 3.17395 12.169Z" fill="white"/>
</g>
</g>
<g id="Group 1775" opacity="0.3">
<g id="Group 1774" opacity="0.3">
<path id="Path 1116" opacity="0.3" d="M6.14299 3.25101H6.02899C5.83008 3.25101 5.63931 3.17199 5.49866 3.03134C5.358 2.89069 5.27899 2.69992 5.27899 2.50101C5.27899 2.30209 5.358 2.11132 5.49866 1.97067C5.63931 1.83002 5.83008 1.75101 6.02899 1.75101H6.14299C6.3419 1.75101 6.53266 1.83002 6.67331 1.97067C6.81396 2.11132 6.89299 2.30209 6.89299 2.50101C6.89299 2.69992 6.81396 2.89069 6.67331 3.03134C6.53266 3.17199 6.3419 3.25101 6.14299 3.25101Z" fill="white"/>
</g>
</g>
<g id="Group 1777" opacity="0.3">
<g id="Group 1776" opacity="0.3">
<path id="Path 1117" opacity="0.3" d="M12.667 3.25101H8.79999C8.60108 3.25101 8.41031 3.17199 8.26965 3.03134C8.129 2.89069 8.04999 2.69992 8.04999 2.50101C8.04999 2.30209 8.129 2.11132 8.26965 1.97067C8.41031 1.83002 8.60108 1.75101 8.79999 1.75101H12.67C12.8689 1.75101 13.0597 1.83002 13.2003 1.97067C13.341 2.11132 13.42 2.30209 13.42 2.50101C13.42 2.69992 13.341 2.89069 13.2003 3.03134C13.0597 3.17199 12.8689 3.25101 12.67 3.25101H12.667Z" fill="white"/>
</g>
</g>
<g id="Group 1778">
<path id="Path 1118" d="M24.666 4.44101V19.541C24.6649 20.7202 24.1961 21.8508 23.3624 22.6847C22.5287 23.5186 21.3981 23.9877 20.219 23.989H5.11897C4.15204 23.9886 3.21146 23.6737 2.43909 23.092C1.66671 22.5103 1.10441 21.6932 0.836975 20.764C1.23691 20.8786 1.65094 20.9365 2.06697 20.936H17.167C18.3462 20.9349 19.4767 20.4661 20.3107 19.6324C21.1446 18.7987 21.6137 17.6682 21.615 16.489V1.39999C21.6156 0.983884 21.5574 0.569796 21.442 0.170013C22.3694 0.436816 23.1851 0.997464 23.7665 1.76767C24.3479 2.53788 24.6635 3.47601 24.666 4.44101Z" fill="#7979F7"/>
</g>
<g id="Group 1779">
<path id="Rectangle 78" d="M44.216 -0.00698853H29.118C26.6598 -0.00698853 24.667 1.98579 24.667 4.44401V19.535C24.667 21.9932 26.6598 23.986 29.118 23.986H44.216C46.6742 23.986 48.667 21.9932 48.667 19.535V4.44401C48.667 1.98579 46.6742 -0.00698853 44.216 -0.00698853Z" fill="#FC6559"/>
</g>
<g id="Group 1781" opacity="0.3">
<g id="Group 1780" opacity="0.3">
<path id="Path 1119" opacity="0.3" d="M27.174 12.169C26.975 12.169 26.7843 12.09 26.6436 11.9493C26.503 11.8087 26.424 11.6179 26.424 11.419V6.51901C26.424 6.3201 26.503 6.12933 26.6436 5.98868C26.7843 5.84803 26.975 5.76901 27.174 5.76901C27.3729 5.76901 27.5636 5.84803 27.7043 5.98868C27.8449 6.12933 27.924 6.3201 27.924 6.51901V11.419C27.924 11.6179 27.8449 11.8087 27.7043 11.9493C27.5636 12.09 27.3729 12.169 27.174 12.169Z" fill="white"/>
</g>
</g>
<g id="Group 1783" opacity="0.3">
<g id="Group 1782" opacity="0.3">
<path id="Path 1120" opacity="0.3" d="M30.143 3.25101H30.029C29.8301 3.25101 29.6393 3.17199 29.4987 3.03134C29.358 2.89069 29.279 2.69992 29.279 2.50101C29.279 2.30209 29.358 2.11132 29.4987 1.97067C29.6393 1.83002 29.8301 1.75101 30.029 1.75101H30.143C30.3419 1.75101 30.5327 1.83002 30.6733 1.97067C30.814 2.11132 30.893 2.30209 30.893 2.50101C30.893 2.69992 30.814 2.89069 30.6733 3.03134C30.5327 3.17199 30.3419 3.25101 30.143 3.25101Z" fill="white"/>
</g>
</g>
<g id="Group 1785" opacity="0.3">
<g id="Group 1784" opacity="0.3">
<path id="Path 1121" opacity="0.3" d="M36.667 3.25101H32.8C32.6011 3.25101 32.4103 3.17199 32.2697 3.03134C32.129 2.89069 32.05 2.69992 32.05 2.50101C32.05 2.30209 32.129 2.11132 32.2697 1.97067C32.4103 1.83002 32.6011 1.75101 32.8 1.75101H36.67C36.8689 1.75101 37.0597 1.83002 37.2003 1.97067C37.341 2.11132 37.42 2.30209 37.42 2.50101C37.42 2.69992 37.341 2.89069 37.2003 3.03134C37.0597 3.17199 36.8689 3.25101 36.67 3.25101H36.667Z" fill="white"/>
</g>
</g>
<g id="Group 1786">
<path id="Path 1122" d="M48.666 4.44101V19.541C48.6649 20.7202 48.1961 21.8508 47.3624 22.6847C46.5287 23.5186 45.3981 23.9877 44.219 23.989H29.119C28.152 23.9886 27.2115 23.6737 26.4391 23.092C25.6667 22.5103 25.1044 21.6932 24.837 20.764C25.2369 20.8786 25.6509 20.9365 26.067 20.936H41.167C42.3462 20.9349 43.4767 20.4661 44.3107 19.6324C45.1446 18.7987 45.6137 17.6682 45.615 16.489V1.39999C45.6156 0.983884 45.5574 0.569796 45.442 0.170013C46.3694 0.436816 47.1851 0.997464 47.7665 1.76767C48.3479 2.53788 48.6635 3.47601 48.666 4.44101Z" fill="#F05543"/>
</g>
<g id="Group 1787">
<path id="Rectangle 79" d="M20.216 23.986H5.11799C2.65977 23.986 0.666992 25.9788 0.666992 28.437V43.528C0.666992 45.9862 2.65977 47.979 5.11799 47.979H20.216C22.6742 47.979 24.667 45.9862 24.667 43.528V28.437C24.667 25.9788 22.6742 23.986 20.216 23.986Z" fill="#F9B938"/>
</g>
<g id="Group 1789" opacity="0.3">
<g id="Group 1788" opacity="0.3">
<path id="Path 1123" opacity="0.3" d="M6.14299 27.243H6.02899C5.83008 27.243 5.63931 27.164 5.49866 27.0233C5.358 26.8827 5.27899 26.6919 5.27899 26.493C5.27899 26.2941 5.358 26.1033 5.49866 25.9627C5.63931 25.822 5.83008 25.743 6.02899 25.743H6.14299C6.3419 25.743 6.53266 25.822 6.67331 25.9627C6.81396 26.1033 6.89299 26.2941 6.89299 26.493C6.89299 26.6919 6.81396 26.8827 6.67331 27.0233C6.53266 27.164 6.3419 27.243 6.14299 27.243Z" fill="white"/>
</g>
</g>
<g id="Group 1791" opacity="0.3">
<g id="Group 1790" opacity="0.3">
<path id="Path 1124" opacity="0.3" d="M12.667 27.243H8.79999C8.60108 27.243 8.41031 27.164 8.26965 27.0233C8.129 26.8827 8.04999 26.6919 8.04999 26.493C8.04999 26.2941 8.129 26.1033 8.26965 25.9627C8.41031 25.822 8.60108 25.743 8.79999 25.743H12.67C12.8689 25.743 13.0597 25.822 13.2003 25.9627C13.341 26.1033 13.42 26.2941 13.42 26.493C13.42 26.6919 13.341 26.8827 13.2003 27.0233C13.0597 27.164 12.8689 27.243 12.67 27.243H12.667Z" fill="white"/>
</g>
</g>
<g id="Group 1792">
<path id="Path 1125" d="M24.666 28.433V43.533C24.6646 44.712 24.1957 45.8423 23.362 46.676C22.5283 47.5097 21.398 47.9787 20.219 47.98H5.11897C4.15204 47.9795 3.21146 47.6647 2.43909 47.083C1.66671 46.5013 1.10441 45.6842 0.836975 44.755C1.23675 44.8704 1.65086 44.9287 2.06697 44.928H17.167C18.3463 44.9267 19.4768 44.4577 20.3107 43.6238C21.1446 42.7899 21.6137 41.6593 21.615 40.48V25.39C21.6156 24.9739 21.5573 24.5598 21.442 24.16C22.3696 24.427 23.1855 24.988 23.7669 25.7586C24.3483 26.5292 24.6638 27.4677 24.666 28.433Z" fill="#ECB021"/>
</g>
<g id="Group 1793">
<path id="Rectangle 80" d="M44.216 23.986H29.118C26.6598 23.986 24.667 25.9788 24.667 28.437V43.528C24.667 45.9862 26.6598 47.979 29.118 47.979H44.216C46.6742 47.979 48.667 45.9862 48.667 43.528V28.437C48.667 25.9788 46.6742 23.986 44.216 23.986Z" fill="#5BC658"/>
</g>
<g id="Group 1795" opacity="0.3">
<g id="Group 1794" opacity="0.3">
<path id="Path 1126" opacity="0.3" d="M27.174 36.161C27.0754 36.1611 26.9778 36.1418 26.8868 36.1042C26.7957 36.0665 26.713 36.0113 26.6433 35.9416C26.5737 35.8719 26.5184 35.7892 26.4808 35.6982C26.4431 35.6071 26.4238 35.5095 26.424 35.411V30.511C26.424 30.3121 26.503 30.1213 26.6436 29.9807C26.7843 29.84 26.975 29.761 27.174 29.761C27.3729 29.761 27.5636 29.84 27.7043 29.9807C27.8449 30.1213 27.924 30.3121 27.924 30.511V35.411C27.924 35.6099 27.8449 35.8007 27.7043 35.9413C27.5636 36.082 27.3729 36.161 27.174 36.161Z" fill="white"/>
</g>
</g>
<g id="Group 1797" opacity="0.3">
<g id="Group 1796" opacity="0.3">
<path id="Path 1127" opacity="0.3" d="M30.143 27.243H30.029C29.8301 27.243 29.6393 27.164 29.4987 27.0233C29.358 26.8827 29.279 26.6919 29.279 26.493C29.279 26.2941 29.358 26.1033 29.4987 25.9627C29.6393 25.822 29.8301 25.743 30.029 25.743H30.143C30.3419 25.743 30.5327 25.822 30.6733 25.9627C30.814 26.1033 30.893 26.2941 30.893 26.493C30.893 26.6919 30.814 26.8827 30.6733 27.0233C30.5327 27.164 30.3419 27.243 30.143 27.243Z" fill="white"/>
</g>
</g>
<g id="Group 1799" opacity="0.3">
<g id="Group 1798" opacity="0.3">
<path id="Path 1128" opacity="0.3" d="M36.667 27.243H32.8C32.6011 27.243 32.4103 27.164 32.2697 27.0233C32.129 26.8827 32.05 26.6919 32.05 26.493C32.05 26.2941 32.129 26.1033 32.2697 25.9627C32.4103 25.822 32.6011 25.743 32.8 25.743H36.67C36.8689 25.743 37.0597 25.822 37.2003 25.9627C37.341 26.1033 37.42 26.2941 37.42 26.493C37.42 26.6919 37.341 26.8827 37.2003 27.0233C37.0597 27.164 36.8689 27.243 36.67 27.243H36.667Z" fill="white"/>
</g>
</g>
<g id="Group 1800">
<path id="Path 1129" d="M48.666 28.433V43.533C48.6646 44.712 48.1957 45.8423 47.362 46.676C46.5283 47.5097 45.398 47.9787 44.219 47.98H29.119C28.152 47.9795 27.2115 47.6647 26.4391 47.083C25.6667 46.5013 25.1044 45.6842 24.837 44.755C25.2368 44.8704 25.6509 44.9287 26.067 44.928H41.167C42.3463 44.9267 43.4768 44.4577 44.3107 43.6238C45.1446 42.7899 45.6137 41.6593 45.615 40.48V25.39C45.6156 24.9739 45.5573 24.5598 45.442 24.16C46.3696 24.427 47.1855 24.988 47.7669 25.7586C48.3483 26.5292 48.6638 27.4677 48.666 28.433Z" fill="#49A247"/>
</g>
<g id="Group 1804">
<g id="Group 1801">
<path id="Path 1130" d="M17.795 12.71L13.137 17.367C13.0772 17.4269 13.0063 17.4745 12.9281 17.507C12.8499 17.5394 12.7661 17.5561 12.6815 17.5561C12.5968 17.5561 12.513 17.5394 12.4349 17.507C12.3567 17.4745 12.2857 17.4269 12.226 17.367L7.48898 12.626C7.15784 12.291 6.89941 11.8913 6.7299 11.4518C6.56038 11.0123 6.48342 10.5426 6.50382 10.072C6.52423 9.60142 6.64157 9.14011 6.84849 8.71697C7.05541 8.29382 7.34747 7.91796 7.70637 7.6129C8.06526 7.30784 8.48326 7.08016 8.93421 6.94411C9.38516 6.80806 9.85935 6.76658 10.3271 6.82225C10.7948 6.87793 11.246 7.02956 11.6524 7.26766C12.0588 7.50576 12.4117 7.8252 12.689 8.20598C12.7947 8.05425 12.9132 7.91175 13.043 7.77999C13.375 7.44869 13.7715 7.18908 14.2079 7.01726C14.6443 6.84544 15.1113 6.76505 15.5801 6.78109C16.0488 6.79712 16.5093 6.90923 16.9329 7.11046C17.3566 7.3117 17.7344 7.59777 18.043 7.95098C18.6103 8.62892 18.9 9.49642 18.854 10.3792C18.808 11.262 18.4297 12.0947 17.795 12.71Z" fill="white"/>
</g>
<g id="Group 1802">
<path id="Path 1131" d="M11.051 6.98701C11.058 6.98101 11.064 6.98702 11.07 6.99302C11.0684 6.99302 11.0668 6.99364 11.0657 6.99476C11.0646 6.99589 11.064 6.99741 11.064 6.999L11.051 6.98701Z" fill="#E24B40"/>
</g>
<g id="Group 1803">
<path id="Path 1132" d="M17.8 12.707L13.143 17.37C13.0206 17.4889 12.8567 17.5554 12.686 17.5554C12.5154 17.5554 12.3514 17.4889 12.229 17.37L11.197 16.338C11.3196 16.3113 11.4316 16.249 11.519 16.159L16.176 11.502C16.7698 10.922 17.1394 10.1507 17.2196 9.32449C17.2997 8.49829 17.0852 7.67035 16.614 6.987C17.1651 7.17932 17.6569 7.51149 18.041 7.95099C18.6083 8.62789 18.8987 9.49425 18.854 10.3763C18.8094 11.2584 18.4328 12.0909 17.8 12.707Z" fill="#E4E3FF"/>
</g>
</g>
<g id="Group 1808">
<g id="Group 1805">
<path id="Path 1133" d="M15.544 39.745C15.1148 39.8409 14.6696 39.8387 14.2414 39.7386C13.8132 39.6385 13.4131 39.4431 13.071 39.167C13.3218 39.865 13.7821 40.4686 14.389 40.895C14.4186 40.9127 14.4416 40.9396 14.4543 40.9717C14.467 41.0039 14.4686 41.0393 14.459 41.0725C14.4494 41.1056 14.4291 41.1347 14.4012 41.155C14.3733 41.1754 14.3395 41.1859 14.305 41.185H11.027C10.9927 41.1853 10.9594 41.1745 10.9319 41.1541C10.9044 41.1338 10.8843 41.105 10.8747 41.0721C10.8651 41.0393 10.8665 41.0043 10.8786 40.9723C10.8907 40.9403 10.913 40.9132 10.942 40.895C11.5498 40.4691 12.0109 39.8655 12.262 39.167C11.9146 39.4461 11.5083 39.6426 11.0738 39.7416C10.6393 39.8405 10.1879 39.8393 9.75396 39.738C9.10299 39.5841 8.52444 39.2117 8.11475 38.6829C7.70507 38.1542 7.48899 37.5009 7.50256 36.8322C7.51612 36.1634 7.75851 35.5195 8.18931 35.0077C8.6201 34.496 9.21328 34.1474 9.86996 34.02C9.74391 33.6129 9.70977 33.1829 9.76997 32.761C9.87393 32.0282 10.2518 31.3621 10.8274 30.8969C11.4031 30.4317 12.1337 30.202 12.872 30.2541C13.6103 30.3063 14.3013 30.6363 14.8059 31.1778C15.3104 31.7193 15.591 32.4319 15.591 33.172C15.5917 33.4595 15.5485 33.7455 15.463 34.02C16.1229 34.1475 16.7188 34.4985 17.1503 35.0138C17.5818 35.5292 17.8225 36.1775 17.8321 36.8496C17.8416 37.5216 17.6192 38.1765 17.2025 38.7038C16.7857 39.2312 16.2 39.5989 15.544 39.745Z" fill="white"/>
</g>
<g id="Group 1807">
<g id="Group 1806">
<path id="Path 1134" d="M15.211 39.8C14.8303 39.8408 14.4454 39.8062 14.0782 39.6981C13.711 39.59 13.3687 39.4105 13.071 39.17C13.3218 39.868 13.7821 40.4715 14.389 40.898C14.4186 40.9157 14.4416 40.9427 14.4543 40.9748C14.4669 41.0069 14.4686 41.0423 14.459 41.0754C14.4494 41.1086 14.4291 41.1377 14.4012 41.158C14.3733 41.1784 14.3395 41.1889 14.3049 41.188H11.0269C10.9927 41.1883 10.9594 41.1775 10.9319 41.1572C10.9044 41.1368 10.8843 41.108 10.8747 41.0752C10.8651 41.0424 10.8664 41.0073 10.8786 40.9753C10.8907 40.9433 10.913 40.9162 10.942 40.898C11.3709 40.611 11.7242 40.2247 11.972 39.772C12.0844 39.58 12.1814 39.3794 12.2619 39.172C11.9316 39.4382 11.5472 39.6292 11.1356 39.7317C10.7239 39.8343 10.2948 39.8458 9.87825 39.7657C9.46165 39.6855 9.06752 39.5156 8.72328 39.2677C8.37904 39.0197 8.09296 38.6997 7.88495 38.33C8.65889 38.8102 9.54485 39.08 10.4551 39.1125C11.3653 39.145 12.2683 38.9392 13.0746 38.5155C13.8808 38.0918 14.5624 37.4648 15.0518 36.6966C15.5413 35.9285 15.8216 35.0458 15.865 34.136C16.4925 34.3541 17.0269 34.7796 17.3802 35.3422C17.7335 35.9049 17.8844 36.5711 17.8083 37.231C17.7321 37.891 17.4333 38.5053 16.9612 38.9727C16.489 39.44 15.8717 39.7326 15.211 39.802V39.8Z" fill="#E4E3FF"/>
</g>
</g>
</g>
<g id="Group 1813">
<g id="Group 1810">
<g id="Group 1809">
<path id="Path 1135" d="M41.3 15.121C40.7417 15.5192 40.0726 15.7322 39.3869 15.7299C38.7011 15.7275 38.0335 15.51 37.478 15.108C37.372 15.042 37.273 14.956 37.167 14.897C37.2975 15.2113 37.4654 15.5088 37.667 15.783C37.9631 16.2039 38.3612 16.5428 38.824 16.768C38.8501 16.7803 38.8712 16.8013 38.8837 16.8274C38.8961 16.8535 38.8991 16.8832 38.8921 16.9112C38.8852 16.9393 38.8687 16.9641 38.8455 16.9814C38.8223 16.9986 38.7939 17.0074 38.765 17.006H34.751C34.7225 17.0065 34.6947 16.9974 34.6721 16.9801C34.6495 16.9629 34.6334 16.9384 34.6265 16.9108C34.6195 16.8832 34.6221 16.8541 34.6338 16.8282C34.6455 16.8022 34.6657 16.781 34.691 16.768C35.4545 16.365 36.0447 15.6972 36.351 14.89C36.239 14.956 36.14 15.042 36.034 15.108C35.4828 15.5234 34.8122 15.7494 34.1221 15.7525C33.432 15.7555 32.7594 15.5354 32.2046 15.1249C31.6498 14.7144 31.2426 14.1356 31.0437 13.4748C30.8448 12.8139 30.8649 12.1065 31.101 11.458C31.4477 10.6286 32.0235 9.91511 32.761 9.401C33.475 8.853 34.261 8.41601 34.989 7.89401C35.6679 7.44295 36.2355 6.84351 36.649 6.14099C36.6588 6.12048 36.6743 6.10318 36.6936 6.09106C36.7129 6.07895 36.7352 6.07254 36.758 6.07254C36.7807 6.07254 36.803 6.07895 36.8223 6.09106C36.8416 6.10318 36.8571 6.12048 36.867 6.14099C37.723 7.69299 39.422 8.367 40.755 9.401C41.4937 9.91375 42.0698 10.6277 42.415 11.458C42.6364 12.1084 42.6479 12.8119 42.4479 13.4692C42.2478 14.1265 41.8463 14.7043 41.3 15.121Z" fill="white"/>
</g>
</g>
<g id="Group 1812">
<g id="Group 1811">
<path id="Path 1136" d="M41.3 15.122C40.7417 15.5202 40.0726 15.7332 39.3869 15.7309C38.7012 15.7285 38.0335 15.511 37.478 15.109C37.372 15.043 37.273 14.957 37.167 14.898C37.2975 15.2123 37.4654 15.5098 37.667 15.784C37.9631 16.2049 38.3612 16.5438 38.824 16.769C38.8502 16.7813 38.8713 16.8023 38.8837 16.8284C38.8961 16.8545 38.8991 16.8841 38.8922 16.9122C38.8852 16.9403 38.8687 16.9651 38.8455 16.9824C38.8223 16.9996 38.7939 17.0083 38.765 17.007H34.751C34.722 17.0086 34.6933 17.0001 34.67 16.9829C34.6466 16.9657 34.6299 16.9409 34.6228 16.9128C34.6157 16.8846 34.6186 16.8548 34.6311 16.8286C34.6435 16.8024 34.6647 16.7813 34.691 16.769C35.4545 16.366 36.0447 15.6982 36.351 14.891C36.239 14.957 36.14 15.043 36.034 15.109C35.4796 15.511 34.8128 15.7284 34.1281 15.7308C33.4433 15.7331 32.7751 15.5202 32.218 15.122C31.8559 14.8508 31.5578 14.5032 31.345 14.104C32.2717 14.5311 33.2806 14.7503 34.301 14.746C37.661 14.746 40.378 12.458 40.378 9.634C40.3772 9.45485 40.3661 9.27589 40.345 9.09799C40.484 9.19799 40.623 9.29801 40.755 9.39801C41.494 9.91038 42.0702 10.6244 42.415 11.455C42.6374 12.1059 42.6494 12.8103 42.4492 13.4684C42.2491 14.1266 41.8471 14.7051 41.3 15.122Z" fill="#E4E3FF"/>
</g>
</g>
</g>
<g id="Group 1818">
<g id="Group 1814">
<path id="Path 1137" d="M40.687 36.488L37.417 41.322C37.3349 41.4458 37.2234 41.5473 37.0926 41.6175C36.9617 41.6877 36.8155 41.7245 36.667 41.7245C36.5185 41.7245 36.3723 41.6877 36.2414 41.6175C36.1105 41.5473 35.9991 41.4458 35.917 41.322L32.647 36.488C32.5455 36.3388 32.4913 36.1625 32.4913 35.982C32.4913 35.8015 32.5455 35.6253 32.647 35.476L35.917 30.642C35.9991 30.5182 36.1105 30.4167 36.2414 30.3465C36.3723 30.2762 36.5185 30.2395 36.667 30.2395C36.8155 30.2395 36.9617 30.2762 37.0926 30.3465C37.2234 30.4167 37.3349 30.5182 37.417 30.642L40.687 35.476C40.7884 35.6253 40.8427 35.8015 40.8427 35.982C40.8427 36.1625 40.7884 36.3388 40.687 36.488Z" fill="white"/>
</g>
<g id="Group 1816" opacity="0.6">
<g id="Group 1815" opacity="0.6">
<path id="Path 1138" opacity="0.6" d="M34.328 35.22C34.2459 35.1642 34.1893 35.0781 34.1705 34.9806C34.1518 34.8832 34.1724 34.7823 34.228 34.7L35.863 32.282C35.8899 32.2397 35.925 32.2032 35.9662 32.1746C36.0075 32.1461 36.054 32.1262 36.1031 32.116C36.1522 32.1058 36.2029 32.1055 36.2521 32.1152C36.3013 32.1249 36.348 32.1444 36.3896 32.1725C36.4311 32.2006 36.4666 32.2367 36.4939 32.2788C36.5212 32.3208 36.5398 32.3679 36.5486 32.4173C36.5575 32.4667 36.5563 32.5173 36.5452 32.5662C36.534 32.6151 36.5132 32.6613 36.484 32.702L34.849 35.12C34.8214 35.1609 34.7861 35.1959 34.7449 35.2231C34.7038 35.2503 34.6577 35.2691 34.6093 35.2783C34.5609 35.2876 34.5111 35.2873 34.4628 35.2773C34.4145 35.2673 34.3687 35.2478 34.328 35.22Z" fill="white"/>
</g>
</g>
<g id="Group 1817">
<path id="Path 1139" d="M40.686 36.484L37.416 41.322C37.2942 41.5055 37.109 41.6376 36.8959 41.6929C36.6827 41.7483 36.4567 41.723 36.261 41.622C36.3935 41.553 36.5048 41.4493 36.583 41.322L39.853 36.484C39.9556 36.3365 40.0106 36.1612 40.0106 35.9815C40.0106 35.8018 39.9556 35.6265 39.853 35.479L36.583 30.642C36.5051 30.5144 36.3937 30.4107 36.261 30.342C36.4566 30.2405 36.6828 30.215 36.896 30.2704C37.1093 30.3258 37.2945 30.4582 37.416 30.642L40.686 35.479C40.7886 35.6265 40.8436 35.8018 40.8436 35.9815C40.8436 36.1612 40.7886 36.3365 40.686 36.484Z" fill="#E4E3FF"/>
</g>
</g>
</g>
</svg>
