<svg width="48" height="39" viewBox="0 0 48 39" fill="none" xmlns="http://www.w3.org/2000/svg">
<g id="28">
<g id="Group 6348">
<g id="Group 6299">
<path id="Path 3553" d="M48 35.649L42.989 28.509H6L0.989014 35.649H48Z" fill="#7979F7"/>
</g>
<g id="Group 6300">
<path id="Path 3554" d="M48 35.651H0.985962L2.14597 33.998H40.692C41.0488 33.9991 41.3991 33.9021 41.7045 33.7177C42.0099 33.5332 42.2588 33.2683 42.424 32.952C42.5891 32.6357 42.6641 32.2801 42.6408 31.9241C42.6175 31.568 42.4969 31.2251 42.292 30.933L40.592 28.511H42.992L48 35.651Z" fill="#5E5EEF"/>
</g>
<g id="Group 6301">
<path id="Path 3555" d="M20.52 31.9659L21.404 30.287C21.4442 30.2107 21.5045 30.1468 21.5783 30.1022C21.6522 30.0576 21.7368 30.0341 21.823 30.0341H27.159C27.2453 30.034 27.33 30.0575 27.4038 30.1021C27.4777 30.1466 27.5379 30.2106 27.578 30.287L28.462 31.9659C28.5002 32.0381 28.519 32.1189 28.5166 32.2004C28.5143 32.282 28.4909 32.3617 28.4488 32.4315C28.4066 32.5014 28.3471 32.5591 28.276 32.5991C28.2049 32.6392 28.1246 32.6602 28.043 32.66H20.943C20.8611 32.6609 20.7804 32.6403 20.7087 32.6006C20.6371 32.5608 20.577 32.5032 20.5343 32.4332C20.4917 32.3633 20.4679 32.2834 20.4654 32.2015C20.4629 32.1196 20.4817 32.0384 20.52 31.9659Z" fill="white"/>
</g>
<g id="Group 6302">
<path id="Path 3556" d="M48 35.649V37.408C48 37.7952 47.8462 38.1666 47.5724 38.4404C47.2986 38.7142 46.9272 38.868 46.54 38.868H2.43997C2.05276 38.868 1.6814 38.7142 1.40759 38.4404C1.13379 38.1666 0.97998 37.7952 0.97998 37.408V35.649H48Z" fill="#7979F7"/>
</g>
<g id="Group 6303">
<path id="Path 3557" d="M42.987 28.509V4.85095C42.9871 4.37093 42.8927 3.89565 42.709 3.45215C42.5254 3.00864 42.2562 2.60566 41.9168 2.26624C41.5774 1.92681 41.1744 1.65763 40.7309 1.474C40.2874 1.29036 39.812 1.19591 39.332 1.19605H9.651C9.17094 1.19591 8.69554 1.29025 8.25198 1.47388C7.80842 1.6575 7.40539 1.9267 7.06589 2.26611C6.72638 2.60552 6.45706 3.00852 6.27332 3.45203C6.08957 3.89554 5.995 4.37089 5.995 4.85095V28.509H42.987Z" fill="#7979F7"/>
</g>
<g id="Group 6304">
<path id="Path 3558" d="M42.992 4.85498V28.51H6V27.119H39.678C39.9696 27.119 40.2584 27.0616 40.5278 26.95C40.7972 26.8383 41.042 26.6746 41.2481 26.4684C41.4543 26.2621 41.6178 26.0174 41.7293 25.7479C41.8408 25.4785 41.8981 25.1896 41.898 24.8979V3.46399C41.8971 2.94683 41.7871 2.43568 41.575 1.96399C42.0165 2.30545 42.3738 2.74369 42.6195 3.24487C42.8651 3.74606 42.9926 4.29683 42.992 4.85498Z" fill="#5E5EEF"/>
</g>
<g id="Group 6305">
<path id="Rectangle 456" d="M37.468 4.5H12.27C10.8379 4.5 9.677 5.66093 9.677 7.093V22.613C9.677 24.0451 10.8379 25.206 12.27 25.206H37.468C38.9001 25.206 40.061 24.0451 40.061 22.613V7.093C40.061 5.66093 38.9001 4.5 37.468 4.5Z" fill="white"/>
</g>
<g id="Group 6306">
<path id="Path 3559" d="M40.063 7.08801V22.613C40.063 23.3026 39.7891 23.9639 39.3015 24.4515C38.8139 24.9391 38.1526 25.213 37.463 25.213H12.275C11.673 25.212 11.09 25.002 10.6255 24.619C10.161 24.236 9.8438 23.7038 9.72803 23.113C10.0617 23.271 10.4268 23.3513 10.796 23.348H23.565C27.5483 23.348 31.3685 21.7657 34.1851 18.9491C37.0017 16.1325 38.584 12.3123 38.584 8.32898V5.23706C38.583 5.06925 38.5666 4.90188 38.535 4.73706C38.9897 4.93929 39.3761 5.2689 39.6472 5.68616C39.9184 6.10341 40.0628 6.59037 40.063 7.08801Z" fill="#E4E3FF"/>
</g>
<g id="Group 6308" opacity="0.3">
<g id="Group 6307" opacity="0.3">
<path id="Path 3560" opacity="0.3" d="M27.11 3.31801H15.35C15.2091 3.31198 15.076 3.25174 14.9785 3.14991C14.8809 3.04809 14.8264 2.91252 14.8264 2.7715C14.8264 2.63047 14.8809 2.49491 14.9785 2.39308C15.076 2.29125 15.2091 2.23102 15.35 2.22499H27.11C27.1838 2.22183 27.2574 2.23361 27.3264 2.25966C27.3955 2.2857 27.4586 2.32554 27.5118 2.3766C27.5651 2.42766 27.6075 2.4889 27.6365 2.55678C27.6655 2.62465 27.6804 2.6977 27.6804 2.7715C27.6804 2.8453 27.6655 2.91834 27.6365 2.98622C27.6075 3.0541 27.5651 3.11546 27.5118 3.16652C27.4586 3.21757 27.3955 3.2573 27.3264 3.28334C27.2574 3.30938 27.1838 3.32116 27.11 3.31801Z" fill="white"/>
</g>
</g>
<g id="Group 6310" opacity="0.3">
<g id="Group 6309" opacity="0.3">
<path id="Path 3561" opacity="0.3" d="M12.984 3.31801H11.842C11.7683 3.32116 11.6947 3.30938 11.6256 3.28334C11.5566 3.2573 11.4935 3.21757 11.4402 3.16652C11.3869 3.11546 11.3445 3.0541 11.3155 2.98622C11.2866 2.91834 11.2716 2.8453 11.2716 2.7715C11.2716 2.6977 11.2866 2.62465 11.3155 2.55678C11.3445 2.4889 11.3869 2.42766 11.4402 2.3766C11.4935 2.32554 11.5566 2.2857 11.6256 2.25966C11.6947 2.23361 11.7683 2.22183 11.842 2.22499H12.984C13.0577 2.22183 13.1314 2.23361 13.2004 2.25966C13.2695 2.2857 13.3325 2.32554 13.3858 2.3766C13.4391 2.42766 13.4815 2.4889 13.5105 2.55678C13.5394 2.62465 13.5544 2.6977 13.5544 2.7715C13.5544 2.8453 13.5394 2.91834 13.5105 2.98622C13.4815 3.0541 13.4391 3.11546 13.3858 3.16652C13.3325 3.21757 13.2695 3.2573 13.2004 3.28334C13.1314 3.30938 13.0577 3.32116 12.984 3.31801Z" fill="white"/>
</g>
</g>
<g id="Group 6316">
<g id="Group 6311">
<path id="Rectangle 457" d="M3.25598 3.349H1.75598V17.546H3.25598V3.349Z" fill="#474646"/>
</g>
<g id="Group 6312">
<path id="Path 3562" d="M4.89198 3.31799C4.89198 3.78926 4.75223 4.24998 4.49043 4.64185C4.22863 5.03371 3.85654 5.33914 3.42116 5.51953C2.98578 5.69992 2.50668 5.74714 2.04445 5.65527C1.58222 5.56341 1.1576 5.33659 0.824294 5.00342C0.490986 4.67025 0.263951 4.24576 0.17189 3.78357C0.079828 3.32138 0.126872 2.84219 0.307082 2.40674C0.487293 1.97128 0.79259 1.599 1.18434 1.33704C1.57609 1.07507 2.03671 0.935256 2.50798 0.935059C3.14 0.935323 3.74607 1.18637 4.19307 1.63318C4.64007 2.07999 4.89145 2.68597 4.89198 3.31799Z" fill="#474646"/>
</g>
<g id="Group 6313">
<path id="Path 3563" d="M4.88901 3.32104C4.89086 3.8339 4.72657 4.33354 4.42075 4.74524C4.11493 5.15694 3.68404 5.4585 3.1925 5.60486C2.70097 5.75121 2.17524 5.73448 1.69403 5.55713C1.21282 5.37977 0.801995 5.05131 0.52301 4.62097C0.916483 4.90119 1.38795 5.05086 1.871 5.04895C2.29998 5.04908 2.72108 4.9337 3.09003 4.71484C3.45898 4.49599 3.76216 4.18182 3.96771 3.8053C4.17326 3.42878 4.27358 3.00377 4.25815 2.57507C4.24272 2.14637 4.1121 1.72979 3.88 1.36902C4.19377 1.58827 4.44954 1.88054 4.62531 2.22058C4.80107 2.56062 4.89158 2.93827 4.88901 3.32104Z" fill="#2D2C2C"/>
</g>
<g id="Group 6314">
<path id="Path 3564" d="M5.43426e-06 17.311C0.00132633 17.9206 0.244068 18.5049 0.675115 18.9359C1.10616 19.367 1.6904 19.6096 2.29999 19.611H5.99V15.001H2.29999C1.9973 15.0016 1.69771 15.0619 1.41831 15.1783C1.13891 15.2948 0.88515 15.4652 0.671575 15.6797C0.458 15.8942 0.288789 16.1487 0.173559 16.4286C0.0583287 16.7085 -0.000651888 17.0083 5.43426e-06 17.311Z" fill="#FC6559"/>
</g>
<g id="Group 6315">
<path id="Path 3565" d="M0.0849609 17.922C0.21703 18.4107 0.50668 18.8423 0.908966 19.1497C1.31125 19.457 1.8037 19.623 2.30997 19.6219H5.99496V15.012H4.97696V17.425C4.97696 17.7452 4.8498 18.0521 4.62344 18.2784C4.39709 18.5048 4.09008 18.632 3.76996 18.632H1.75296C1.44167 18.6306 1.13378 18.5671 0.847351 18.4452C0.560923 18.3233 0.301721 18.1454 0.0849609 17.922Z" fill="#F05543"/>
</g>
</g>
<g id="Group 6347">
<g id="Group 6326">
<g id="Group 6317">
<path id="Rectangle 458" d="M17.496 9.21704H13.753C12.6595 9.21704 11.773 10.1035 11.773 11.197V18.506C11.773 19.5996 12.6595 20.486 13.753 20.486H17.496C18.5895 20.486 19.476 19.5996 19.476 18.506V11.197C19.476 10.1035 18.5895 9.21704 17.496 9.21704Z" fill="#F9B938"/>
</g>
<g id="Group 6318">
<path id="Path 3566" d="M19.474 11.1949V18.507C19.4732 19.0324 19.2641 19.5361 18.8926 19.9076C18.5211 20.2791 18.0174 20.4882 17.492 20.489H13.748C13.4359 20.4861 13.1288 20.4104 12.8511 20.2681C12.5734 20.1257 12.3326 19.9206 12.148 19.6689C12.4858 19.9073 12.8886 20.0364 13.302 20.0389H17.046C17.5714 20.0381 18.0751 19.8292 18.4466 19.4576C18.8181 19.0861 19.0272 18.5824 19.028 18.057V10.746C19.027 10.3295 18.8978 9.92352 18.658 9.58301C18.9101 9.7696 19.1152 10.0125 19.2569 10.2924C19.3986 10.5722 19.4729 10.8813 19.474 11.1949Z" fill="#E5A320"/>
</g>
<g id="Group 6319">
<path id="Rectangle 459" d="M17.292 10.621H13.958C13.4178 10.621 12.98 11.0588 12.98 11.599V18.108C12.98 18.6481 13.4178 19.086 13.958 19.086H17.292C17.8321 19.086 18.27 18.6481 18.27 18.108V11.599C18.27 11.0588 17.8321 10.621 17.292 10.621Z" fill="#E4E3FF"/>
</g>
<g id="Group 6320">
<path id="Path 3567" d="M18.142 11.125C18.0037 11.0466 17.847 11.0063 17.688 11.0081H14.346C14.2177 11.0082 14.0906 11.0336 13.9722 11.083C13.8538 11.1324 13.7462 11.2047 13.6558 11.2958C13.5654 11.3869 13.4939 11.4949 13.4453 11.6137C13.3968 11.7325 13.3722 11.8597 13.373 11.988V18.499C13.3713 18.6632 13.412 18.8251 13.491 18.969C13.3356 18.8851 13.2059 18.7605 13.1161 18.6084C13.0262 18.4563 12.9795 18.2826 12.981 18.106V11.606C12.9796 11.4774 13.0037 11.3499 13.052 11.2307C13.1003 11.1116 13.1717 11.0032 13.2623 10.9119C13.3528 10.8206 13.4606 10.7482 13.5793 10.699C13.6981 10.6497 13.8255 10.6246 13.954 10.625H17.3C17.4725 10.6244 17.6419 10.6705 17.7902 10.7586C17.9384 10.8466 18.0601 10.9733 18.142 11.125Z" fill="#D0D0F7"/>
</g>
<g id="Group 6325">
<g id="Group 6322">
<g id="Group 6321">
<path id="Path 3568" d="M15.19 17.0501C15.1744 17.0516 15.1586 17.0516 15.143 17.0501C15.0937 17.0441 15.0461 17.0284 15.0028 17.004C14.9596 16.9796 14.9216 16.947 14.8911 16.9078C14.8605 16.8687 14.8379 16.824 14.8247 16.7761C14.8115 16.7283 14.8078 16.6783 14.814 16.629C14.9888 15.477 15.4167 14.378 16.067 13.411H14.443C14.3427 13.411 14.2466 13.3712 14.1757 13.3003C14.1048 13.2294 14.065 13.1332 14.065 13.033C14.065 12.9327 14.1048 12.8366 14.1757 12.7658C14.2466 12.6949 14.3427 12.655 14.443 12.655H16.806C16.878 12.6547 16.9486 12.675 17.0094 12.7135C17.0702 12.752 17.1188 12.8071 17.1493 12.8723C17.1798 12.9375 17.191 13.0101 17.1815 13.0814C17.1721 13.1528 17.1424 13.22 17.096 13.275C16.306 14.2782 15.7797 15.4633 15.565 16.7221C15.5527 16.8128 15.5079 16.896 15.439 16.9563C15.37 17.0166 15.2816 17.0499 15.19 17.0501Z" fill="#474646"/>
</g>
</g>
<g id="Group 6324">
<g id="Group 6323">
<path id="Path 3569" d="M17.1 13.266C16.3096 14.2718 15.784 15.4596 15.571 16.721C15.555 16.812 15.5084 16.895 15.439 16.9561C15.3696 17.0171 15.2814 17.0527 15.189 17.057C15.173 17.057 15.158 17.042 15.143 17.042C15.1216 17.0444 15.0999 17.0391 15.082 17.027C15.1427 16.9991 15.1954 16.9565 15.2354 16.9031C15.2754 16.8496 15.3014 16.787 15.311 16.721C15.524 15.4596 16.0497 14.2718 16.84 13.266C16.8849 13.2106 16.9131 13.1436 16.9213 13.0728C16.9294 13.0019 16.9172 12.9301 16.886 12.866C16.8563 12.8017 16.8087 12.7474 16.749 12.7095C16.6892 12.6715 16.6198 12.6516 16.549 12.652H16.809C16.8797 12.6514 16.9491 12.6713 17.0087 12.7092C17.0683 12.7472 17.1157 12.8017 17.145 12.866C17.1766 12.93 17.1891 13.0017 17.1811 13.0726C17.1731 13.1435 17.145 13.2106 17.1 13.266Z" fill="#2D2C2C"/>
</g>
</g>
</g>
</g>
<g id="Group 6336">
<g id="Group 6327">
<path id="Rectangle 460" d="M26.741 9.21704H22.998C21.9045 9.21704 21.018 10.1035 21.018 11.197V18.506C21.018 19.5996 21.9045 20.486 22.998 20.486H26.741C27.8345 20.486 28.721 19.5996 28.721 18.506V11.197C28.721 10.1035 27.8345 9.21704 26.741 9.21704Z" fill="#F9B938"/>
</g>
<g id="Group 6328">
<path id="Path 3570" d="M28.719 11.1949V18.507C28.7182 19.0324 28.5091 19.5361 28.1376 19.9076C27.7661 20.2791 27.2624 20.4882 26.737 20.489H22.993C22.681 20.4859 22.3739 20.4101 22.0962 20.2678C21.8185 20.1255 21.5777 19.9204 21.393 19.6689C21.7312 19.9073 22.1343 20.0364 22.548 20.0389H26.291C26.8166 20.0384 27.3205 19.8296 27.6923 19.458C28.064 19.0865 28.2732 18.5826 28.274 18.057V10.746C28.2729 10.3295 28.1438 9.92352 27.904 9.58301C28.156 9.7697 28.3609 10.0126 28.5023 10.2925C28.6438 10.5723 28.718 10.8814 28.719 11.1949Z" fill="#E5A320"/>
</g>
<g id="Group 6329">
<path id="Rectangle 461" d="M26.536 10.621H23.202C22.6619 10.621 22.224 11.0588 22.224 11.599V18.108C22.224 18.6481 22.6619 19.086 23.202 19.086H26.536C27.0761 19.086 27.514 18.6481 27.514 18.108V11.599C27.514 11.0588 27.0761 10.621 26.536 10.621Z" fill="#E4E3FF"/>
</g>
<g id="Group 6330">
<path id="Path 3571" d="M27.387 11.125C27.2484 11.0464 27.0914 11.0061 26.932 11.0081H23.591C23.4627 11.0082 23.3357 11.0337 23.2172 11.083C23.0988 11.1324 22.9912 11.2047 22.9008 11.2958C22.8104 11.3869 22.7389 11.4949 22.6903 11.6137C22.6418 11.7325 22.6172 11.8597 22.618 11.9881V18.4991C22.6159 18.6633 22.6565 18.8253 22.736 18.969C22.5805 18.8852 22.4509 18.7605 22.361 18.6084C22.2712 18.4564 22.2245 18.2826 22.226 18.106V11.606C22.2244 11.4775 22.2484 11.35 22.2966 11.2309C22.3448 11.1117 22.4161 11.0033 22.5066 10.912C22.5971 10.8207 22.7048 10.7483 22.8235 10.699C22.9422 10.6497 23.0695 10.6246 23.198 10.625H26.54C26.7133 10.6237 26.8836 10.6695 27.0328 10.7576C27.182 10.8457 27.3045 10.9727 27.387 11.125Z" fill="#D0D0F7"/>
</g>
<g id="Group 6335">
<g id="Group 6332">
<g id="Group 6331">
<path id="Path 3572" d="M24.434 17.05C24.4184 17.0515 24.4026 17.0515 24.387 17.05C24.3378 17.044 24.2903 17.0282 24.2472 17.0038C24.204 16.9793 24.1661 16.9466 24.1357 16.9075C24.1052 16.8684 24.0828 16.8237 24.0696 16.7759C24.0565 16.7281 24.0528 16.6782 24.059 16.629C24.2335 15.4771 24.6611 14.378 25.311 13.411H23.688C23.5877 13.411 23.4916 13.3712 23.4207 13.3003C23.3498 13.2294 23.31 13.1332 23.31 13.033C23.31 12.9327 23.3498 12.8366 23.4207 12.7657C23.4916 12.6949 23.5877 12.655 23.688 12.655H26.051C26.1228 12.6551 26.1931 12.6757 26.2537 12.7142C26.3143 12.7528 26.3626 12.8078 26.393 12.8728C26.4234 12.9379 26.4347 13.0103 26.4255 13.0815C26.4163 13.1528 26.387 13.2199 26.341 13.275C25.5505 14.278 25.0238 15.4631 24.809 16.722C24.7969 16.8129 24.7522 16.8962 24.6832 16.9565C24.6142 17.0169 24.5256 17.0501 24.434 17.05Z" fill="#474646"/>
</g>
</g>
<g id="Group 6334">
<g id="Group 6333">
<path id="Path 3573" d="M26.344 13.266C25.5545 14.2723 25.0289 15.4599 24.815 16.721C24.7991 16.8121 24.7526 16.8952 24.6832 16.9563C24.6137 17.0174 24.5254 17.0529 24.433 17.057C24.418 17.057 24.403 17.042 24.387 17.042C24.3655 17.0441 24.344 17.0388 24.326 17.027C24.3867 16.9991 24.4394 16.9565 24.4794 16.9031C24.5194 16.8496 24.5454 16.787 24.555 16.721C24.7689 15.4599 25.2945 14.2723 26.084 13.266C26.1291 13.2107 26.1575 13.1437 26.1656 13.0728C26.1738 13.0019 26.1614 12.9301 26.13 12.866C26.1005 12.8017 26.0532 12.7474 25.9936 12.7095C25.934 12.6715 25.8647 12.6515 25.794 12.652H26.054C26.1246 12.6515 26.194 12.6715 26.2536 12.7095C26.3132 12.7474 26.3606 12.8017 26.39 12.866C26.4214 12.9301 26.4338 13.0019 26.4256 13.0728C26.4174 13.1437 26.3891 13.2107 26.344 13.266Z" fill="#2D2C2C"/>
</g>
</g>
</g>
</g>
<g id="Group 6346">
<g id="Group 6337">
<path id="Rectangle 462" d="M35.985 9.21704H32.242C31.1484 9.21704 30.262 10.1035 30.262 11.197V18.506C30.262 19.5996 31.1484 20.486 32.242 20.486H35.985C37.0785 20.486 37.965 19.5996 37.965 18.506V11.197C37.965 10.1035 37.0785 9.21704 35.985 9.21704Z" fill="#F9B938"/>
</g>
<g id="Group 6338">
<path id="Path 3574" d="M37.963 11.1949V18.507C37.9622 19.0324 37.7531 19.5361 37.3816 19.9076C37.0101 20.2791 36.5064 20.4882 35.981 20.489H32.237C31.9249 20.4861 31.6178 20.4104 31.3401 20.2681C31.0623 20.1257 30.8216 19.9206 30.637 19.6689C30.9748 19.9074 31.3775 20.0365 31.791 20.0389H35.535C36.0604 20.0381 36.5641 19.8292 36.9356 19.4576C37.3071 19.0861 37.5162 18.5824 37.517 18.057V10.746C37.5158 10.3295 37.3867 9.92355 37.147 9.58301C37.3991 9.7696 37.6042 10.0125 37.7459 10.2924C37.8875 10.5722 37.9619 10.8813 37.963 11.1949Z" fill="#E5A320"/>
</g>
<g id="Group 6339">
<path id="Rectangle 463" d="M35.781 10.621H32.447C31.9069 10.621 31.469 11.0588 31.469 11.599V18.108C31.469 18.6481 31.9069 19.086 32.447 19.086H35.781C36.3211 19.086 36.759 18.6481 36.759 18.108V11.599C36.759 11.0588 36.3211 10.621 35.781 10.621Z" fill="#E4E3FF"/>
</g>
<g id="Group 6340">
<path id="Path 3575" d="M36.632 11.125C36.4933 11.0464 36.3363 11.0061 36.177 11.0081H32.835C32.7067 11.0082 32.5797 11.0336 32.4613 11.083C32.3429 11.1324 32.2354 11.2047 32.1451 11.2958C32.0548 11.3869 31.9834 11.495 31.9349 11.6138C31.8865 11.7326 31.8621 11.8598 31.863 11.9881V18.499C31.8609 18.6632 31.9012 18.825 31.98 18.969C31.8245 18.8852 31.6948 18.7605 31.605 18.6084C31.5151 18.4564 31.4684 18.2826 31.47 18.106V11.606C31.4685 11.4774 31.4926 11.3499 31.5409 11.2307C31.5892 11.1116 31.6607 11.0032 31.7512 10.9119C31.8418 10.8206 31.9495 10.7483 32.0683 10.699C32.1871 10.6497 32.3144 10.6246 32.443 10.625H35.785C35.9582 10.6238 36.1285 10.6696 36.2777 10.7577C36.4269 10.8458 36.5493 10.9728 36.632 11.125Z" fill="#D0D0F7"/>
</g>
<g id="Group 6345">
<g id="Group 6342">
<g id="Group 6341">
<path id="Path 3576" d="M33.679 17.0501C33.6633 17.0516 33.6476 17.0516 33.632 17.0501C33.5325 17.0378 33.442 16.9865 33.3803 16.9076C33.3187 16.8287 33.2908 16.7285 33.303 16.629C33.4778 15.477 33.9057 14.378 34.556 13.411H32.932C32.8317 13.411 32.7356 13.3712 32.6647 13.3003C32.5938 13.2294 32.554 13.1332 32.554 13.033C32.554 12.9327 32.5938 12.8366 32.6647 12.7658C32.7356 12.6949 32.8317 12.655 32.932 12.655H35.3C35.3719 12.6547 35.4425 12.675 35.5034 12.7135C35.5642 12.752 35.6127 12.8071 35.6432 12.8723C35.6737 12.9375 35.6849 13.0101 35.6755 13.0814C35.666 13.1528 35.6364 13.22 35.59 13.275C34.7999 14.2782 34.2736 15.4633 34.059 16.7221C34.0467 16.8138 34.0013 16.8977 33.9313 16.9581C33.8612 17.0186 33.7715 17.0514 33.679 17.0501Z" fill="#474646"/>
</g>
</g>
<g id="Group 6344">
<g id="Group 6343">
<path id="Path 3577" d="M35.589 13.266C34.7986 14.2718 34.2729 15.4596 34.06 16.721C34.0439 16.812 33.9974 16.895 33.9279 16.9561C33.8585 17.0171 33.7704 17.0527 33.678 17.057C33.663 17.057 33.647 17.042 33.632 17.042C33.6105 17.0442 33.589 17.0389 33.571 17.027C33.6317 16.9991 33.6844 16.9565 33.7244 16.9031C33.7644 16.8496 33.7904 16.787 33.8 16.721C34.0134 15.4598 34.539 14.272 35.329 13.266C35.3741 13.2107 35.4024 13.1437 35.4106 13.0728C35.4187 13.0019 35.4064 12.9301 35.375 12.866C35.3453 12.8017 35.2978 12.7473 35.238 12.7094C35.1782 12.6714 35.1088 12.6515 35.038 12.652H35.298C35.3688 12.6516 35.4381 12.6715 35.4979 12.7095C35.5576 12.7474 35.6052 12.8017 35.635 12.866C35.6661 12.9301 35.6783 13.0019 35.6702 13.0728C35.662 13.1436 35.6339 13.2106 35.589 13.266Z" fill="#2D2C2C"/>
</g>
</g>
</g>
</g>
</g>
</g>
<g id="Group 6353">
<g id="Group 6350" opacity="0.3">
<g id="Group 6349" opacity="0.3">
<path id="Path 3578" opacity="0.3" d="M7.29999 21.184V16.425C7.29999 16.28 7.35762 16.1408 7.46021 16.0382C7.56279 15.9356 7.70191 15.8781 7.84698 15.8781C7.99206 15.8781 8.13121 15.9356 8.2338 16.0382C8.33638 16.1408 8.39401 16.28 8.39401 16.425V21.184C8.39401 21.329 8.33638 21.4682 8.2338 21.5708C8.13121 21.6734 7.99206 21.731 7.84698 21.731C7.70191 21.731 7.56279 21.6734 7.46021 21.5708C7.35762 21.4682 7.29999 21.329 7.29999 21.184Z" fill="white"/>
</g>
</g>
<g id="Group 6352" opacity="0.3">
<g id="Group 6351" opacity="0.3">
<path id="Path 3579" opacity="0.3" d="M7.29999 14.058V12.916C7.29999 12.7709 7.35762 12.6318 7.46021 12.5292C7.56279 12.4266 7.70191 12.369 7.84698 12.369C7.99206 12.369 8.13121 12.4266 8.2338 12.5292C8.33638 12.6318 8.39401 12.7709 8.39401 12.916V14.058C8.39401 14.2031 8.33638 14.3422 8.2338 14.4448C8.13121 14.5474 7.99206 14.605 7.84698 14.605C7.70191 14.605 7.56279 14.5474 7.46021 14.4448C7.35762 14.3422 7.29999 14.2031 7.29999 14.058Z" fill="white"/>
</g>
</g>
</g>
</g>
</svg>
