<svg width="36" height="49" viewBox="0 0 36 49" fill="none" xmlns="http://www.w3.org/2000/svg">
<g id="130">
<g id="Group 1117">
<path id="Path 693" d="M35.077 41.355V45.905C35.0768 46.5728 34.8114 47.2132 34.3393 47.6855C33.8671 48.1579 33.2268 48.4235 32.559 48.424H3.44106C2.77323 48.4235 2.13292 48.1579 1.66079 47.6855C1.18866 47.2132 0.923258 46.5728 0.922993 45.905V41.355C0.918661 39.0946 1.64625 36.8935 2.99697 35.081V35.073C3.82545 33.9591 4.86639 33.0203 6.05959 32.3108C7.25279 31.6012 8.57467 31.135 9.94899 30.939C10.437 30.866 13.611 30.174 13.611 30.174L18 34.68L22.39 30.174C22.39 30.174 25.563 30.866 26.051 30.939C28.5583 31.2958 30.8523 32.5462 32.5108 34.4601C34.1692 36.3739 35.0806 38.8225 35.077 41.355Z" fill="#E4E3FF"/>
</g>
<g id="Group 1118">
<path id="Path 694" d="M35.077 41.354V45.9C35.0773 46.2307 35.0123 46.5583 34.8859 46.8639C34.7594 47.1695 34.574 47.4472 34.3401 47.6811C34.1062 47.915 33.8286 48.1004 33.5229 48.2269C33.2173 48.3533 32.8897 48.4183 32.559 48.418H3.44104C3.1103 48.4183 2.78267 48.3533 2.47705 48.2269C2.17144 48.1004 1.89378 47.915 1.65991 47.6811C1.42604 47.4472 1.24058 47.1695 1.11414 46.8639C0.987688 46.5583 0.922711 46.2307 0.922974 45.9V45.583H28.892C29.5598 45.583 30.2003 45.3177 30.6725 44.8455C31.1447 44.3733 31.41 43.7328 31.41 43.065V38.514C31.4162 36.2516 30.6903 34.0479 29.3409 32.232L29.009 31.812C30.8237 32.6588 32.3588 34.0062 33.4337 35.6957C34.5087 37.3852 35.0788 39.3465 35.077 41.349V41.354Z" fill="#D0D0F7"/>
</g>
<g id="Group 1119">
<path id="Path 695" d="M22.568 28.466V30.175L18 34.789L13.432 30.175V28.466C14.7351 29.4885 16.3436 30.0442 18 30.0442C19.6564 30.0442 21.2649 29.4885 22.568 28.466Z" fill="#F7C9A9"/>
</g>
<g id="Group 1120">
<path id="Path 696" d="M22.568 28.466V29.554C21.1916 30.3926 19.6107 30.8355 17.9989 30.8341C16.3871 30.8327 14.807 30.387 13.432 29.546V28.466C14.7351 29.4885 16.3436 30.0442 18 30.0442C19.6564 30.0442 21.2649 29.4885 22.568 28.466Z" fill="#F0B68E"/>
</g>
<g id="Group 1121">
<path id="Path 697" d="M33 35.073C30.379 36.238 27.657 40.86 26.339 46.844C26.223 47.375 26.1211 47.9 26.0341 48.424H9.96106C9.87306 47.9 9.77103 47.375 9.65503 46.844C8.33703 40.86 5.61502 36.238 2.99402 35.081V35.073C3.8225 33.9591 4.86331 33.0203 6.05652 32.3108C7.24972 31.6012 8.57172 31.135 9.94604 30.939C12.646 33.319 16.3009 38.902 17.9969 43.299C19.6969 38.899 23.347 33.319 26.048 30.939C27.4223 31.135 28.7442 31.6012 29.9374 32.3108C31.1306 33.0203 32.1715 33.9591 33 35.073Z" fill="#FC6559"/>
</g>
<g id="Group 1122">
<path id="Path 698" d="M33 35.073C32.7512 35.1855 32.5127 35.3193 32.287 35.473C31.0853 34.1711 29.5748 33.1933 27.895 32.63C27.3587 32.4502 26.7818 32.4301 26.2343 32.5721C25.6867 32.7142 25.1923 33.0122 24.811 33.43C22.1204 36.5548 19.9191 40.0694 18.282 43.854C18.2614 43.9126 18.2231 43.9634 18.1724 43.9993C18.1217 44.0352 18.0611 44.0544 17.999 44.0544C17.9369 44.0544 17.8763 44.0352 17.8256 43.9993C17.7749 43.9634 17.7366 43.9126 17.7159 43.854C16.0785 40.069 13.8769 36.5541 11.186 33.429C10.8048 33.0115 10.3105 32.7136 9.76318 32.5716C9.21591 32.4296 8.6392 32.4495 8.10303 32.629C6.42068 33.1914 4.90924 34.1729 3.71106 35.481C3.48541 35.3273 3.24684 35.1934 2.99805 35.081V35.073C3.82549 33.958 4.8662 33.0185 6.05981 32.3092C7.25343 31.5999 8.57616 31.1348 9.95105 30.941C12.651 33.318 16.305 38.906 17.999 43.298C19.693 38.906 23.349 33.318 26.048 30.941C27.4227 31.1349 28.7452 31.6001 29.9386 32.3094C31.132 33.0187 32.1727 33.9581 33 35.073Z" fill="#F05543"/>
</g>
<g id="Group 1127" opacity="0.3">
<g id="Group 1124" opacity="0.3">
<g id="Group 1123" opacity="0.3">
<path id="Path 699" opacity="0.3" d="M9.352 40.636C9.28128 40.636 9.21191 40.6165 9.15156 40.5796C9.09121 40.5428 9.04219 40.4899 9.00996 40.427C8.63208 39.6751 8.20694 38.948 7.73701 38.25C7.67999 38.1658 7.6587 38.0624 7.67793 37.9625C7.69715 37.8626 7.75522 37.7745 7.83943 37.7175C7.92363 37.6605 8.02704 37.6392 8.1269 37.6585C8.22677 37.6777 8.31488 37.7358 8.3719 37.82C8.85921 38.5451 9.30076 39.2998 9.69392 40.08C9.73967 40.1706 9.74774 40.2756 9.71626 40.3722C9.68478 40.4687 9.61634 40.5488 9.52595 40.595C9.47187 40.6218 9.41238 40.6359 9.352 40.636Z" fill="white"/>
</g>
</g>
<g id="Group 1126" opacity="0.3">
<g id="Group 1125" opacity="0.3">
<path id="Path 700" opacity="0.3" d="M6.93006 36.954C6.87538 36.9538 6.8213 36.942 6.77149 36.9194C6.72169 36.8968 6.67722 36.864 6.641 36.823C6.492 36.65 6.34102 36.487 6.18702 36.331C6.11568 36.2586 6.07604 36.1608 6.07679 36.0592C6.07754 35.9575 6.11865 35.8604 6.19105 35.789C6.26345 35.7177 6.36113 35.678 6.46278 35.6788C6.56442 35.6795 6.6617 35.7206 6.73304 35.793C6.89704 35.9597 7.059 36.1347 7.219 36.318C7.26731 36.3735 7.2986 36.4418 7.30921 36.5147C7.31983 36.5875 7.30927 36.6618 7.27882 36.7289C7.24837 36.7959 7.19931 36.8527 7.13746 36.8926C7.07561 36.9326 7.00368 36.9539 6.93006 36.954Z" fill="white"/>
</g>
</g>
</g>
<g id="Group 1130">
<g id="Group 1128">
<path id="Path 701" d="M26.609 45.758C26.509 46.118 26.425 46.479 26.344 46.847C26.226 47.378 26.1231 47.9 26.0341 48.423H9.96594C9.87694 47.9 9.77401 47.378 9.65601 46.847C9.57501 46.479 9.48699 46.118 9.39099 45.758H26.609Z" fill="#FC6559"/>
</g>
<g id="Group 1129">
<path id="Path 702" d="M33 35.072C32.2952 35.4118 31.6626 35.8844 31.137 36.464C30.8203 34.9953 30.1926 33.6116 29.296 32.406C29.1106 32.1514 28.9102 31.908 28.696 31.677C28.924 31.773 29.145 31.876 29.359 31.986C30.7897 32.7271 32.0344 33.7821 33 35.072Z" fill="#FC6559"/>
</g>
</g>
<g id="Group 1131">
<path id="Path 703" d="M26.609 45.758C26.509 46.118 26.425 46.479 26.344 46.847C26.226 47.378 26.1231 47.9 26.0341 48.423H9.96594C9.87694 47.9 9.77401 47.378 9.65601 46.847C9.57501 46.479 9.48699 46.118 9.39099 45.758H26.609Z" fill="#F05543"/>
</g>
<g id="Group 1132">
<path id="Path 704" d="M33 35.072C32.2952 35.4118 31.6626 35.8844 31.137 36.464C30.8203 34.9953 30.1926 33.6116 29.296 32.406C29.1106 32.1514 28.9102 31.908 28.696 31.677C28.924 31.773 29.145 31.876 29.359 31.986C30.7897 32.7271 32.0344 33.7821 33 35.072Z" fill="#F05543"/>
</g>
<g id="Group 1133">
<path id="Path 705" d="M26.783 11.464V21.269C26.783 23.596 25.8586 25.8277 24.2131 27.4732C22.5677 29.1186 20.336 30.043 18.009 30.043C15.682 30.043 13.4503 29.1186 11.8048 27.4732C10.1594 25.8277 9.23499 23.596 9.23499 21.269V11.464C14.653 7.265 20.54 7.631 26.783 11.464Z" fill="#F7C9A9"/>
</g>
<g id="Group 1134">
<path id="Path 706" d="M26.7841 20.241V21.268C26.7965 22.4279 26.5786 23.5787 26.1433 24.6539C25.708 25.7291 25.0638 26.7073 24.2479 27.5319C23.4321 28.3565 22.4609 29.0111 21.3904 29.4579C20.3199 29.9046 19.1715 30.1347 18.0115 30.1347C16.8515 30.1347 15.7031 29.9046 14.6326 29.4579C13.5621 29.0111 12.5909 28.3565 11.775 27.5319C10.9592 26.7073 10.315 25.7291 9.87965 24.6539C9.44435 23.5787 9.22664 22.4279 9.23903 21.268V20.241C9.22664 21.4009 9.44435 22.5517 9.87965 23.6269C10.315 24.7021 10.9592 25.6803 11.775 26.5049C12.5909 27.3295 13.5621 27.9841 14.6326 28.4309C15.7031 28.8776 16.8515 29.1077 18.0115 29.1077C19.1715 29.1077 20.3199 28.8776 21.3904 28.4309C22.4609 27.9841 23.4321 27.3295 24.2479 26.5049C25.0638 25.6803 25.708 24.7021 26.1433 23.6269C26.5786 22.5517 26.7965 21.4009 26.7841 20.241Z" fill="#F0B68E"/>
</g>
<g id="Group 1135">
<path id="Path 707" d="M26.783 14.734V21.277C27.6407 21.262 28.4583 20.9107 29.0596 20.2988C29.6609 19.6869 29.9978 18.8634 29.9978 18.0055C29.9978 17.1476 29.6609 16.3241 29.0596 15.7122C28.4583 15.1003 27.6407 14.749 26.783 14.734Z" fill="#F7C9A9"/>
</g>
<g id="Group 1136">
<path id="Path 708" d="M9.23499 14.734V21.277C8.37723 21.262 7.55966 20.9107 6.95837 20.2988C6.35709 19.6869 6.02014 18.8634 6.02014 18.0055C6.02014 17.1476 6.35709 16.3241 6.95837 15.7122C7.55966 15.1003 8.37723 14.749 9.23499 14.734Z" fill="#F7C9A9"/>
</g>
<g id="Group 1137">
<path id="Path 709" d="M29.988 18C29.9885 18.8556 29.6537 19.6774 29.0555 20.2892C28.4574 20.901 27.6434 21.2542 26.788 21.273V20.667C27.587 20.6499 28.3523 20.3413 28.9397 19.7992C29.527 19.2572 29.896 18.5191 29.9771 17.724C29.9811 17.819 29.988 17.911 29.988 18Z" fill="#F0B68E"/>
</g>
<g id="Group 1138">
<path id="Path 710" d="M9.23901 20.67V21.276C8.38207 21.2585 7.56605 20.9061 6.9657 20.2944C6.36535 19.6826 6.02837 18.8601 6.02698 18.003C6.02698 17.911 6.03499 17.819 6.04199 17.727C6.1251 18.5227 6.49573 19.2608 7.08435 19.8026C7.67297 20.3445 8.43914 20.6529 9.23901 20.67Z" fill="#F0B68E"/>
</g>
<g id="Group 1139">
<path id="Path 711" d="M9.88495 19.451L10.1299 15.275C10.1377 15.1269 10.1948 14.9856 10.2921 14.8736C10.3894 14.7616 10.5213 14.6854 10.6669 14.657C12.5209 14.3419 14.1973 13.3639 15.384 11.905C15.4415 11.8216 15.5171 11.7523 15.6053 11.7024C15.6935 11.6525 15.7918 11.6232 15.8929 11.6169C15.994 11.6105 16.0953 11.6272 16.189 11.6657C16.2828 11.7041 16.3664 11.7634 16.4339 11.839C17.4689 13.039 20.11 15.22 25.452 14.806C25.545 14.7976 25.6387 14.8085 25.7272 14.8381C25.8158 14.8677 25.8974 14.9154 25.9666 14.978C26.0359 15.0407 26.0913 15.117 26.1296 15.2022C26.1679 15.2874 26.188 15.3796 26.1889 15.473V19.451C26.8889 18.02 26.8749 14.031 28.7969 15.481C34.7349 4.95399 20.938 -5.35499 11.17 4.22401C11.1101 4.28447 11.0367 4.32986 10.9559 4.35645C10.875 4.38305 10.789 4.39011 10.7049 4.37702C9.7109 4.20702 6.17994 4.051 6.44794 10.447C6.45467 12.1586 6.70725 13.8603 7.19794 15.5C8.81894 14.869 9.16095 16.5 9.88495 19.451Z" fill="#2D2C2C"/>
</g>
<g id="Group 1140">
<path id="Path 712" d="M30.211 10.981C29.649 3.088 19.087 -2.208 11.175 5.55C11.113 5.61144 11.0375 5.6574 10.9544 5.68415C10.8714 5.71091 10.7831 5.71773 10.697 5.70402C9.76398 5.54702 6.69695 5.41802 6.44795 10.445C6.17895 4.05802 9.70296 4.20901 10.703 4.37901C10.7883 4.39226 10.8756 4.38514 10.9576 4.3582C11.0396 4.33126 11.1141 4.28527 11.175 4.22401C19.519 -3.95799 30.819 2.385 30.211 10.981Z" fill="#1B1B1B"/>
</g>
<g id="Group 1141">
<path id="Path 713" d="M19.252 22.133C19.3518 22.3131 19.3966 22.5185 19.3808 22.7238C19.3649 22.9292 19.2892 23.1253 19.163 23.288C19.0309 23.4706 18.8575 23.6192 18.6568 23.7217C18.4561 23.8242 18.2339 23.8777 18.0086 23.8777C17.7832 23.8777 17.5611 23.8242 17.3604 23.7217C17.1597 23.6192 16.9861 23.4706 16.854 23.288C16.7274 23.1252 16.6516 22.9287 16.6361 22.7231C16.6207 22.5175 16.6662 22.3119 16.767 22.132C16.9229 22.3865 17.1434 22.5952 17.406 22.737C17.5939 22.8291 17.8003 22.877 18.0095 22.877C18.2188 22.877 18.4252 22.8291 18.6131 22.737C18.8758 22.5958 19.0962 22.3873 19.252 22.133Z" fill="#E8AA80"/>
</g>
<g id="Group 1142">
<path id="Path 714" d="M22.978 19.587C22.9776 19.8222 22.9075 20.052 22.7765 20.2473C22.6455 20.4427 22.4594 20.5948 22.2419 20.6844C22.0245 20.774 21.7853 20.797 21.5547 20.7507C21.3241 20.7043 21.1125 20.5906 20.9465 20.424C20.7806 20.2573 20.6677 20.0452 20.6223 19.8144C20.5769 19.5836 20.601 19.3445 20.6915 19.1274C20.782 18.9104 20.935 18.725 21.1309 18.5948C21.3267 18.4646 21.5568 18.3954 21.792 18.396C22.1071 18.3971 22.4089 18.523 22.6312 18.7463C22.8536 18.9696 22.9783 19.2719 22.978 19.587Z" fill="#2D2C2C"/>
</g>
<g id="Group 1143">
<path id="Path 715" d="M23.1 17.773H20.4871C20.3876 17.773 20.2921 17.7335 20.2218 17.6632C20.1515 17.5929 20.1121 17.4975 20.1121 17.398C20.1121 17.2986 20.1515 17.2032 20.2218 17.1328C20.2921 17.0625 20.3876 17.023 20.4871 17.023H23.1C23.1994 17.023 23.2948 17.0625 23.3651 17.1328C23.4354 17.2032 23.475 17.2986 23.475 17.398C23.475 17.4975 23.4354 17.5929 23.3651 17.6632C23.2948 17.7335 23.1994 17.773 23.1 17.773Z" fill="#2D2C2C"/>
</g>
<g id="Group 1144">
<path id="Path 716" d="M15.417 19.587C15.4164 19.8219 15.3462 20.0514 15.2152 20.2464C15.0842 20.4414 14.8983 20.5932 14.681 20.6826C14.4638 20.772 14.225 20.795 13.9946 20.7487C13.7643 20.7023 13.553 20.5887 13.3872 20.4223C13.2215 20.2558 13.1087 20.0439 13.0634 19.8134C13.018 19.5829 13.042 19.3442 13.1323 19.1273C13.2227 18.9104 13.3753 18.7252 13.5708 18.595C13.7664 18.4649 13.9961 18.3956 14.231 18.396C14.5461 18.3971 14.8479 18.523 15.0702 18.7463C15.2925 18.9696 15.4173 19.2719 15.417 19.587Z" fill="#2D2C2C"/>
</g>
<g id="Group 1145">
<path id="Path 717" d="M15.535 17.773H12.922C12.8225 17.773 12.7272 17.7335 12.6569 17.6632C12.5865 17.5929 12.547 17.4975 12.547 17.398C12.547 17.2986 12.5865 17.2032 12.6569 17.1328C12.7272 17.0625 12.8225 17.023 12.922 17.023H15.535C15.6345 17.023 15.7298 17.0625 15.8002 17.1328C15.8705 17.2032 15.91 17.2986 15.91 17.398C15.91 17.4975 15.8705 17.5929 15.8002 17.6632C15.7298 17.7335 15.6345 17.773 15.535 17.773Z" fill="#2D2C2C"/>
</g>
<g id="Group 1146">
<path id="Path 718" d="M15.6821 25.535C15.6139 25.5342 15.5468 25.5525 15.4885 25.5877C15.4301 25.6229 15.3828 25.6736 15.3516 25.7343C15.3205 25.7949 15.3068 25.863 15.3122 25.931C15.3176 25.9989 15.3417 26.064 15.382 26.119C15.694 26.5175 16.0926 26.8398 16.5475 27.0614C17.0025 27.283 17.502 27.3982 18.0081 27.3982C18.5142 27.3982 19.0136 27.283 19.4686 27.0614C19.9235 26.8398 20.3221 26.5175 20.6341 26.119C20.6744 26.064 20.6985 25.9989 20.7039 25.931C20.7093 25.863 20.6957 25.7949 20.6646 25.7343C20.6335 25.6736 20.586 25.6229 20.5276 25.5877C20.4693 25.5525 20.4022 25.5342 20.334 25.535H15.6821Z" fill="#E8AA80"/>
</g>
<g id="Group 1149">
<g id="Group 1148">
<g id="Group 1147">
<path id="Path 719" d="M21.518 32.36V35.06C21.5181 35.1518 21.4961 35.2423 21.4537 35.3237C21.4114 35.4051 21.35 35.4751 21.2748 35.5278C21.1996 35.5804 21.1128 35.6141 21.0217 35.626C20.9307 35.6378 20.8382 35.6276 20.752 35.596L18.667 34.796C18.4671 34.9214 18.236 34.9879 18 34.9879C17.7641 34.9879 17.5329 34.9214 17.333 34.796L15.2481 35.596C15.1619 35.6276 15.0693 35.6378 14.9783 35.626C14.8873 35.6141 14.8004 35.5804 14.7252 35.5278C14.65 35.4751 14.5886 35.4051 14.5463 35.3237C14.5039 35.2423 14.4819 35.1518 14.4821 35.06V32.36C14.4814 32.2682 14.5032 32.1777 14.5455 32.0962C14.5879 32.0148 14.6496 31.945 14.7251 31.8928C14.8006 31.8407 14.8878 31.8078 14.9789 31.797C15.07 31.7862 15.1625 31.7979 15.2481 31.831L17.341 32.631C17.5379 32.5056 17.7666 32.439 18 32.439C18.2335 32.439 18.4621 32.5056 18.6591 32.631L20.752 31.831C20.8376 31.7979 20.93 31.7862 21.0211 31.797C21.1123 31.8078 21.1994 31.8407 21.2749 31.8928C21.3504 31.945 21.4121 32.0148 21.4545 32.0962C21.4968 32.1777 21.5186 32.2682 21.518 32.36Z" fill="#474646"/>
</g>
</g>
</g>
<g id="Group 1152">
<g id="Group 1151">
<g id="Group 1150">
<path id="Path 720" d="M21.5179 34.552V35.058C21.5181 35.1498 21.4961 35.2403 21.4537 35.3217C21.4114 35.4031 21.35 35.4732 21.2748 35.5258C21.1996 35.5784 21.1127 35.6121 21.0217 35.624C20.9307 35.6359 20.8381 35.6256 20.752 35.594L18.667 34.794C18.4671 34.9194 18.236 34.9859 18 34.9859C17.764 34.9859 17.5329 34.9194 17.333 34.794L15.248 35.594C15.1619 35.6256 15.0693 35.6359 14.9783 35.624C14.8873 35.6121 14.8004 35.5784 14.7252 35.5258C14.65 35.4732 14.5886 35.4031 14.5463 35.3217C14.5039 35.2403 14.4819 35.1498 14.4821 35.058V34.552C14.4819 34.6438 14.5039 34.7343 14.5463 34.8157C14.5886 34.8972 14.65 34.9672 14.7252 35.0198C14.8004 35.0724 14.8873 35.1061 14.9783 35.118C15.0693 35.1299 15.1619 35.1196 15.248 35.088L17.215 34.329C17.252 34.3157 17.2915 34.3103 17.3308 34.3132C17.3701 34.3161 17.4083 34.3273 17.443 34.346C17.6164 34.4309 17.8069 34.475 18 34.475C18.1931 34.475 18.3836 34.4309 18.557 34.346C18.5917 34.3273 18.6299 34.3161 18.6692 34.3132C18.7085 34.3103 18.748 34.3157 18.785 34.329L20.752 35.088C20.8381 35.1196 20.9307 35.1299 21.0217 35.118C21.1127 35.1061 21.1996 35.0724 21.2748 35.0198C21.35 34.9672 21.4114 34.8972 21.4537 34.8157C21.4961 34.7343 21.5181 34.6438 21.5179 34.552Z" fill="#2D2C2C"/>
</g>
</g>
</g>
<g id="Group 1155" opacity="0.2">
<g id="Group 1154" opacity="0.2">
<g id="Group 1153" opacity="0.2">
<path id="Path 721" opacity="0.2" d="M21.518 32.36V32.865C21.5187 32.7732 21.497 32.6827 21.4546 32.6013C21.4122 32.5198 21.3506 32.45 21.275 32.3979C21.1995 32.3459 21.1123 32.313 21.0211 32.3024C20.93 32.2918 20.8375 32.3037 20.752 32.337L18.759 33.096C18.7276 33.1073 18.6941 33.1117 18.6608 33.1089C18.6275 33.1062 18.5952 33.0963 18.5661 33.08C18.3912 32.9893 18.197 32.942 18 32.942C17.803 32.942 17.6089 32.9893 17.434 33.08C17.4048 33.0963 17.3725 33.1062 17.3393 33.1089C17.306 33.1117 17.2724 33.1073 17.241 33.096L15.2481 32.337C15.1625 32.3037 15.0701 32.2918 14.9789 32.3024C14.8877 32.313 14.8006 32.3459 14.725 32.3979C14.6494 32.45 14.5878 32.5198 14.5454 32.6013C14.5031 32.6827 14.4814 32.7732 14.4821 32.865V32.36C14.4814 32.2682 14.5032 32.1777 14.5455 32.0962C14.5879 32.0148 14.6496 31.945 14.7251 31.8928C14.8006 31.8407 14.8878 31.8078 14.9789 31.797C15.07 31.7862 15.1625 31.7979 15.2481 31.831L17.341 32.631C17.5379 32.5056 17.7666 32.439 18 32.439C18.2335 32.439 18.4621 32.5056 18.6591 32.631L20.752 31.831C20.8376 31.7979 20.93 31.7862 21.0211 31.797C21.1123 31.8078 21.1994 31.8407 21.2749 31.8928C21.3504 31.945 21.4121 32.0148 21.4545 32.0962C21.4968 32.1777 21.5186 32.2682 21.518 32.36Z" fill="white"/>
</g>
</g>
</g>
<g id="Group 1156">
<path id="Path 722" d="M27.9161 19.182C27.8483 19.1819 27.7821 19.1622 27.7254 19.1252C27.6687 19.0883 27.6238 19.0356 27.5964 18.9737C27.569 18.9118 27.5601 18.8432 27.5709 18.7764C27.5816 18.7095 27.6116 18.6472 27.657 18.597C27.7766 18.4398 27.8494 18.2521 27.8671 18.0554C27.8848 17.8587 27.8466 17.661 27.757 17.485C27.7168 17.4024 27.7106 17.3074 27.7398 17.2204C27.769 17.1333 27.8313 17.0612 27.9131 17.0196C27.995 16.978 28.0899 16.9703 28.1774 16.998C28.265 17.0258 28.3381 17.0868 28.381 17.168C28.5359 17.4699 28.5995 17.8104 28.564 18.1478C28.5285 18.4852 28.3954 18.805 28.1811 19.068C28.1476 19.1048 28.1066 19.134 28.0608 19.1536C28.0151 19.1733 27.9658 19.183 27.9161 19.182Z" fill="#F0B68E"/>
</g>
<g id="Group 1157">
<path id="Path 723" d="M8.19991 19.182C8.15109 19.1821 8.10281 19.1719 8.05818 19.1521C8.01356 19.1323 7.97369 19.1033 7.941 19.067C7.72665 18.804 7.59358 18.4842 7.55806 18.1468C7.52254 17.8094 7.58604 17.4689 7.74092 17.167C7.78386 17.0858 7.85701 17.0248 7.94454 16.997C8.03206 16.9693 8.12696 16.9771 8.20882 17.0187C8.29068 17.0602 8.35296 17.1323 8.38216 17.2194C8.41136 17.3064 8.40517 17.4015 8.36495 17.484C8.27442 17.6595 8.23535 17.857 8.25215 18.0537C8.26896 18.2505 8.34093 18.4384 8.45992 18.596C8.50539 18.6462 8.53533 18.7085 8.5461 18.7754C8.55687 18.8422 8.548 18.9108 8.52059 18.9727C8.49317 19.0346 8.44842 19.0873 8.39168 19.1242C8.33494 19.1612 8.26873 19.1809 8.20101 19.181L8.19991 19.182Z" fill="#F0B68E"/>
</g>
</g>
</svg>
