<svg width="49" height="43" viewBox="0 0 49 43" fill="none" xmlns="http://www.w3.org/2000/svg">
<g id="129">
<g id="Group 1158">
<path id="Path 724" d="M23.862 23.969L35.267 33.409C35.5905 33.6775 35.8512 34.0135 36.031 34.3936C36.2107 34.7736 36.3051 35.1883 36.3075 35.6087C36.3098 36.029 36.2202 36.4448 36.0448 36.8268C35.8693 37.2089 35.6124 37.5479 35.292 37.82C32.1998 40.4469 28.4192 42.1321 24.3983 42.6757C20.3775 43.2193 16.2852 42.5986 12.6064 40.8871C8.92764 39.1755 5.81682 36.445 3.64272 33.0193C1.46862 29.5935 0.322413 25.6162 0.340044 21.5588C0.357675 17.5014 1.53835 13.5342 3.74214 10.1275C5.94593 6.72073 9.08039 4.01737 12.7739 2.33789C16.4674 0.658404 20.565 0.0732588 24.5809 0.651792C28.5969 1.23032 32.3628 2.94827 35.432 5.60199C35.7494 5.87528 36.0034 6.21448 36.1763 6.59594C36.3493 6.97741 36.437 7.392 36.4334 7.81082C36.4298 8.22964 36.3349 8.64263 36.1554 9.02105C35.9759 9.39948 35.7161 9.73424 35.394 10.002L23.863 19.544C23.5373 19.8134 23.2752 20.1514 23.0952 20.5338C22.9152 20.9162 22.8218 21.3336 22.8217 21.7563C22.8216 22.1789 22.9148 22.5964 23.0946 22.9789C23.2744 23.3614 23.5365 23.6994 23.862 23.969Z" fill="#5BC658"/>
</g>
<g id="Group 1160" opacity="0.3">
<g id="Group 1159" opacity="0.3">
<path id="Path 725" opacity="0.3" d="M3.786 23.421C3.58813 23.421 3.39823 23.3428 3.25774 23.2035C3.11726 23.0641 3.03759 22.8749 3.036 22.677C2.99336 17.8098 4.83271 13.1142 8.16998 9.571C8.23634 9.49524 8.31731 9.43362 8.40801 9.38982C8.49871 9.34602 8.59733 9.32093 8.69793 9.31606C8.79853 9.31119 8.89908 9.32666 8.99358 9.3615C9.08809 9.39634 9.17461 9.44985 9.24798 9.51885C9.32135 9.58785 9.38008 9.67092 9.42065 9.76311C9.46121 9.8553 9.48275 9.95473 9.48406 10.0554C9.48537 10.1562 9.46637 10.2561 9.42822 10.3493C9.39006 10.4425 9.33357 10.5271 9.26202 10.598C6.18955 13.8608 4.49634 18.1844 4.536 22.666C4.53666 22.7645 4.51791 22.8621 4.48083 22.9534C4.44374 23.0446 4.38906 23.1277 4.31988 23.1978C4.2507 23.2679 4.16837 23.3237 4.07763 23.362C3.98689 23.4003 3.8895 23.4203 3.79101 23.421H3.786Z" fill="white"/>
</g>
</g>
<g id="Group 1162" opacity="0.3">
<g id="Group 1161" opacity="0.3">
<path id="Path 726" opacity="0.3" d="M12.151 7.2C12.0505 7.0284 12.0223 6.82389 12.0726 6.63149C12.1228 6.43909 12.2474 6.27455 12.419 6.174C13.7559 5.38958 15.1852 4.7745 16.674 4.34298C16.8651 4.28768 17.0703 4.31056 17.2446 4.40658C17.4188 4.5026 17.5477 4.66391 17.603 4.855C17.6583 5.04609 17.6354 5.25131 17.5394 5.42553C17.4434 5.59975 17.2821 5.72869 17.091 5.78399C15.7221 6.18114 14.4078 6.74647 13.178 7.467C13.093 7.51695 12.9991 7.54964 12.9015 7.56325C12.8039 7.57687 12.7046 7.57111 12.6092 7.54632C12.5138 7.52152 12.4243 7.47818 12.3456 7.41875C12.267 7.35933 12.2009 7.285 12.151 7.2Z" fill="white"/>
</g>
</g>
<g id="Group 1163">
<path id="Path 727" d="M35.2661 33.41C35.5897 33.6783 35.8506 34.0144 36.0303 34.3944C36.2101 34.7744 36.3044 35.1892 36.3066 35.6096C36.3088 36.03 36.2188 36.4458 36.043 36.8277C35.8672 37.2096 35.6099 37.5483 35.2891 37.82C31.2947 41.2215 26.1791 43.0177 20.9351 42.86C20.7091 42.852 20.4851 42.845 20.2671 42.822C24.8677 42.564 29.2577 40.808 32.7671 37.822C33.0867 37.5493 33.3428 37.21 33.5175 36.8279C33.6921 36.4458 33.7812 36.0301 33.7783 35.61C33.7755 35.1899 33.6808 34.7755 33.5009 34.3958C33.321 34.0161 33.0603 33.6803 32.7371 33.412L21.337 23.971C21.0114 23.7015 20.7494 23.3635 20.5695 22.981C20.3895 22.5986 20.2963 22.1812 20.2963 21.7585C20.2963 21.3358 20.3895 20.9184 20.5695 20.5359C20.7494 20.1535 21.0114 19.8155 21.337 19.546L32.863 10.006C33.1849 9.73813 33.4446 9.40333 33.624 9.02492C33.8034 8.64651 33.8982 8.23357 33.9019 7.81481C33.9055 7.39604 33.8179 6.98151 33.645 6.60005C33.4722 6.2186 33.2183 5.87936 32.9011 5.60597C29.3846 2.5485 24.9523 0.745492 20.3 0.479996C20.712 0.449996 21.132 0.434983 21.553 0.434983C26.6522 0.424283 31.583 2.25967 35.4341 5.60198C35.7514 5.87529 36.0053 6.21446 36.1782 6.59587C36.3511 6.97728 36.4389 7.3918 36.4354 7.81056C36.4318 8.22933 36.3371 8.64229 36.1578 9.02074C35.9785 9.39919 35.7189 9.73406 35.397 10.002L23.8621 19.542C23.5366 19.8116 23.2747 20.1496 23.0948 20.5321C22.915 20.9145 22.8218 21.3319 22.8218 21.7545C22.8218 22.1771 22.915 22.5945 23.0948 22.9769C23.2747 23.3593 23.5366 23.6974 23.8621 23.967L35.2661 33.41Z" fill="#49A247"/>
</g>
<g id="Group 1164">
<path id="Path 728" d="M32.742 21.654C32.742 22.2473 32.566 22.8274 32.2364 23.3207C31.9067 23.8141 31.4382 24.1986 30.89 24.4256C30.3419 24.6527 29.7386 24.7121 29.1567 24.5963C28.5748 24.4806 28.0402 24.1949 27.6206 23.7753C27.2011 23.3558 26.9153 22.8212 26.7996 22.2393C26.6838 21.6573 26.7432 21.0541 26.9703 20.506C27.1974 19.9578 27.5819 19.4892 28.0753 19.1596C28.5686 18.8299 29.1486 18.654 29.742 18.654C30.5376 18.654 31.3007 18.9701 31.8633 19.5327C32.4259 20.0953 32.742 20.8583 32.742 21.654Z" fill="#F9B938"/>
</g>
<g id="Group 1165">
<path id="Path 729" d="M40.5381 21.654C40.5381 22.2473 40.3621 22.8274 40.0325 23.3207C39.7029 23.8141 39.2343 24.1986 38.6861 24.4256C38.1379 24.6527 37.5348 24.7121 36.9528 24.5963C36.3709 24.4806 35.8363 24.1949 35.4168 23.7753C34.9972 23.3558 34.7115 22.8212 34.5957 22.2393C34.48 21.6573 34.5394 21.0541 34.7664 20.506C34.9935 19.9578 35.378 19.4892 35.8714 19.1596C36.3647 18.8299 36.9448 18.654 37.5381 18.654C38.3338 18.654 39.0968 18.9701 39.6594 19.5327C40.222 20.0953 40.5381 20.8583 40.5381 21.654Z" fill="#FC6559"/>
</g>
<g id="Group 1166">
<path id="Path 730" d="M48.333 21.654C48.333 22.2473 48.1571 22.8274 47.8274 23.3207C47.4978 23.8141 47.0293 24.1986 46.4811 24.4256C45.9329 24.6527 45.3297 24.7121 44.7478 24.5963C44.1658 24.4806 43.6313 24.1949 43.2117 23.7753C42.7921 23.3558 42.5064 22.8212 42.3907 22.2393C42.2749 21.6573 42.3343 21.0541 42.5614 20.506C42.7884 19.9578 43.1729 19.4892 43.6663 19.1596C44.1596 18.8299 44.7397 18.654 45.333 18.654C46.1287 18.654 46.8918 18.9701 47.4544 19.5327C48.017 20.0953 48.333 20.8583 48.333 21.654Z" fill="#A2A2F9"/>
</g>
<g id="Group 1167">
<path id="Path 731" d="M32.742 21.654C32.742 22.2473 32.566 22.8274 32.2364 23.3207C31.9067 23.8141 31.4382 24.1986 30.89 24.4256C30.3419 24.6527 29.7386 24.7121 29.1567 24.5963C28.5748 24.4806 28.0402 24.1949 27.6206 23.7753C27.2011 23.3558 26.9153 22.8212 26.7996 22.2393C26.6838 21.6573 26.7432 21.0541 26.9703 20.506C27.1974 19.9578 27.5819 19.4892 28.0753 19.1596C28.5686 18.8299 29.1486 18.654 29.742 18.654C30.5376 18.654 31.3007 18.9701 31.8633 19.5327C32.4259 20.0953 32.742 20.8583 32.742 21.654Z" fill="#F9B938"/>
</g>
<g id="Group 1168">
<path id="Path 732" d="M40.5381 21.654C40.5381 22.2473 40.3621 22.8274 40.0325 23.3207C39.7029 23.8141 39.2343 24.1986 38.6861 24.4256C38.1379 24.6527 37.5348 24.7121 36.9528 24.5963C36.3709 24.4806 35.8363 24.1949 35.4168 23.7753C34.9972 23.3558 34.7115 22.8212 34.5957 22.2393C34.48 21.6573 34.5394 21.0541 34.7664 20.506C34.9935 19.9578 35.378 19.4892 35.8714 19.1596C36.3647 18.8299 36.9448 18.654 37.5381 18.654C38.3338 18.654 39.0968 18.9701 39.6594 19.5327C40.222 20.0953 40.5381 20.8583 40.5381 21.654Z" fill="#FC6559"/>
</g>
<g id="Group 1169">
<path id="Path 733" d="M48.333 21.654C48.333 22.2473 48.1571 22.8274 47.8274 23.3207C47.4978 23.8141 47.0293 24.1986 46.4811 24.4256C45.9329 24.6527 45.3297 24.7121 44.7478 24.5963C44.1658 24.4806 43.6313 24.1949 43.2117 23.7753C42.7921 23.3558 42.5064 22.8212 42.3907 22.2393C42.2749 21.6573 42.3343 21.0541 42.5614 20.506C42.7884 19.9578 43.1729 19.4892 43.6663 19.1596C44.1596 18.8299 44.7397 18.654 45.333 18.654C46.1287 18.654 46.8918 18.9701 47.4544 19.5327C48.017 20.0953 48.333 20.8583 48.333 21.654Z" fill="#A2A2F9"/>
</g>
<g id="Group 1176" opacity="0.3">
<g id="Group 1171" opacity="0.3">
<g id="Group 1170" opacity="0.3">
<path id="Path 734" opacity="0.3" d="M28.24 22.029C28.1405 22.029 28.0452 21.9895 27.9749 21.9192C27.9045 21.8488 27.865 21.7535 27.865 21.654C27.8658 21.1568 28.0637 20.6802 28.4154 20.3287C28.7671 19.9772 29.2438 19.7795 29.741 19.779C29.7918 19.7764 29.8426 19.7841 29.8903 19.8018C29.938 19.8194 29.9817 19.8466 30.0186 19.8816C30.0555 19.9166 30.0848 19.9588 30.1049 20.0055C30.125 20.0523 30.1354 20.1026 30.1354 20.1535C30.1354 20.2044 30.125 20.2547 30.1049 20.3015C30.0848 20.3482 30.0555 20.3904 30.0186 20.4254C29.9817 20.4605 29.938 20.4876 29.8903 20.5053C29.8426 20.5229 29.7918 20.5307 29.741 20.528C29.4426 20.5286 29.1564 20.6473 28.9454 20.8584C28.7343 21.0694 28.6155 21.3555 28.615 21.654C28.6151 21.7033 28.6055 21.7521 28.5867 21.7977C28.5679 21.8432 28.5403 21.8846 28.5054 21.9195C28.4706 21.9543 28.4292 21.9819 28.3837 22.0007C28.3381 22.0195 28.2893 22.0291 28.24 22.029Z" fill="white"/>
</g>
</g>
<g id="Group 1173" opacity="0.3">
<g id="Group 1172" opacity="0.3">
<path id="Path 735" opacity="0.3" d="M36.036 22.029C35.9867 22.0291 35.9379 22.0195 35.8923 22.0007C35.8468 21.9819 35.8054 21.9543 35.7706 21.9195C35.7357 21.8846 35.7081 21.8432 35.6893 21.7977C35.6705 21.7521 35.6609 21.7033 35.661 21.654C35.6615 21.1567 35.8594 20.68 36.2111 20.3284C36.5629 19.9769 37.0397 19.7793 37.537 19.779C37.5878 19.7764 37.6386 19.7841 37.6863 19.8018C37.7341 19.8194 37.7777 19.8466 37.8146 19.8816C37.8515 19.9166 37.8809 19.9588 37.9009 20.0055C37.921 20.0523 37.9313 20.1026 37.9313 20.1535C37.9313 20.2044 37.921 20.2547 37.9009 20.3015C37.8809 20.3482 37.8515 20.3904 37.8146 20.4254C37.7777 20.4605 37.7341 20.4876 37.6863 20.5053C37.6386 20.5229 37.5878 20.5307 37.537 20.528C37.2385 20.5286 36.9524 20.6473 36.7414 20.8584C36.5303 21.0694 36.4115 21.3555 36.411 21.654C36.411 21.7535 36.3715 21.8488 36.3011 21.9192C36.2308 21.9895 36.1355 22.029 36.036 22.029Z" fill="white"/>
</g>
</g>
<g id="Group 1175" opacity="0.3">
<g id="Group 1174" opacity="0.3">
<path id="Path 736" opacity="0.3" d="M43.832 22.029C43.7326 22.029 43.6372 21.9895 43.5669 21.9192C43.4966 21.8488 43.457 21.7535 43.457 21.654C43.4576 21.1569 43.6553 20.6803 44.0068 20.3288C44.3584 19.9773 44.835 19.7795 45.3321 19.779C45.3829 19.7764 45.4337 19.7841 45.4814 19.8018C45.5291 19.8194 45.5728 19.8466 45.6097 19.8816C45.6466 19.9166 45.6759 19.9588 45.696 20.0055C45.7161 20.0523 45.7264 20.1026 45.7264 20.1535C45.7264 20.2044 45.7161 20.2547 45.696 20.3015C45.6759 20.3482 45.6466 20.3904 45.6097 20.4254C45.5728 20.4605 45.5291 20.4876 45.4814 20.5053C45.4337 20.5229 45.3829 20.5307 45.3321 20.528C45.0338 20.5288 44.7479 20.6477 44.5371 20.8587C44.3263 21.0698 44.2076 21.3557 44.207 21.654C44.207 21.7535 44.1676 21.8488 44.0972 21.9192C44.0269 21.9895 43.9315 22.029 43.832 22.029Z" fill="white"/>
</g>
</g>
</g>
<g id="Group 1177">
<path id="Path 737" d="M32.739 21.651C32.7383 22.3312 32.5065 22.9909 32.0815 23.522C31.6566 24.0531 31.0639 24.4241 30.4005 24.5741C29.737 24.724 29.0423 24.6441 28.4302 24.3474C27.8182 24.0506 27.3252 23.5548 27.032 22.941C27.4724 23.2984 28.0051 23.5239 28.5682 23.5914C29.1314 23.6589 29.7022 23.5657 30.2146 23.3225C30.727 23.0794 31.1603 22.6962 31.4642 22.2173C31.7681 21.7384 31.9303 21.1832 31.932 20.616C31.933 20.1721 31.8331 19.7337 31.64 19.334C31.9825 19.6155 32.2585 19.9691 32.4485 20.3697C32.6385 20.7702 32.7377 21.2077 32.739 21.651Z" fill="#ECB021"/>
</g>
<g id="Group 1178">
<path id="Path 738" d="M40.5381 21.651C40.5374 22.3312 40.3055 22.9909 39.8806 23.522C39.4557 24.0531 38.8629 24.4241 38.1995 24.5741C37.536 24.724 36.8413 24.6441 36.2293 24.3474C35.6173 24.0506 35.1242 23.5548 34.8311 22.941C35.2708 23.3009 35.8037 23.5285 36.3677 23.5973C36.9318 23.6661 37.5037 23.5733 38.0171 23.3297C38.5305 23.0862 38.9641 22.7018 39.2675 22.2213C39.5709 21.7409 39.7317 21.1842 39.7311 20.616C39.732 20.1695 39.6322 19.7285 39.4391 19.326C39.7832 19.6078 40.0602 19.9627 40.2503 20.3648C40.4404 20.7669 40.5387 21.2062 40.5381 21.651Z" fill="#F05543"/>
</g>
<g id="Group 1179">
<path id="Path 739" d="M48.33 21.651C48.3293 22.3312 48.0976 22.9909 47.6727 23.522C47.2478 24.0531 46.655 24.4241 45.9915 24.5741C45.3281 24.724 44.6333 24.6441 44.0213 24.3474C43.4093 24.0506 42.9162 23.5548 42.623 22.941C43.0636 23.298 43.5961 23.5231 44.1592 23.5904C44.7222 23.6577 45.2928 23.5644 45.8051 23.3214C46.3174 23.0783 46.7505 22.6953 47.0545 22.2166C47.3585 21.7379 47.5209 21.183 47.523 20.616C47.5251 20.1685 47.4225 19.7267 47.2231 19.326C47.5693 19.6064 47.8484 19.9608 48.04 20.3631C48.2315 20.7654 48.3306 21.2054 48.33 21.651Z" fill="#7979F7"/>
</g>
<g id="Group 1180">
<path id="Path 740" d="M25.519 8.46201C25.5188 9.01927 25.3534 9.56396 25.0437 10.0272C24.734 10.4905 24.2939 10.8515 23.779 11.0647C23.2641 11.2779 22.6976 11.3336 22.1511 11.2248C21.6045 11.116 21.1025 10.8477 20.7084 10.4536C20.3144 10.0596 20.046 9.55756 19.9373 9.01102C19.8285 8.46447 19.8842 7.89794 20.0974 7.38306C20.3105 6.86818 20.6716 6.42807 21.1348 6.11835C21.5981 5.80863 22.1428 5.6432 22.7001 5.64301C23.4476 5.64327 24.1645 5.94036 24.6931 6.46896C25.2217 6.99757 25.5188 7.71444 25.519 8.46201Z" fill="#49A247"/>
</g>
<g id="Group 1181">
<path id="Path 741" d="M25.008 7.95001C25.0082 8.5076 24.843 9.0527 24.5334 9.51642C24.2237 9.98013 23.7836 10.3416 23.2685 10.5551C22.7534 10.7686 22.1865 10.8246 21.6396 10.7159C21.0927 10.6073 20.5904 10.3389 20.196 9.9447C19.8017 9.5505 19.5331 9.0482 19.4242 8.50134C19.3154 7.95448 19.3711 7.3876 19.5845 6.87244C19.7978 6.35727 20.1591 5.91695 20.6227 5.60715C21.0863 5.29735 21.6314 5.13199 22.189 5.13199C22.9365 5.13199 23.6534 5.42886 24.182 5.95731C24.7106 6.48575 25.0077 7.20254 25.008 7.95001Z" fill="#474646"/>
</g>
<g id="Group 1182">
<path id="Path 742" d="M23.479 7.95001C23.4788 8.20487 23.4031 8.45392 23.2613 8.66574C23.1196 8.87756 22.9183 9.04264 22.6828 9.14008C22.4473 9.23751 22.1882 9.26296 21.9383 9.2132C21.6883 9.16343 21.4588 9.04068 21.2786 8.86047C21.0983 8.68026 20.9756 8.45066 20.9258 8.20071C20.8761 7.95077 20.9015 7.69167 20.9989 7.45618C21.0963 7.22068 21.2614 7.01937 21.4733 6.87766C21.6851 6.73594 21.9342 6.6602 22.189 6.66C22.5311 6.66027 22.859 6.79625 23.1009 7.03812C23.3427 7.27998 23.4787 7.60796 23.479 7.95001Z" fill="white"/>
</g>
<g id="Group 1183">
<path id="Path 743" d="M24.427 6.24499C23.9353 5.85417 23.3251 5.64253 22.697 5.64498C21.9506 5.64551 21.2349 5.94229 20.7071 6.47009C20.1793 6.99789 19.8825 7.71357 19.882 8.45999C19.8796 9.08808 20.0912 9.69825 20.482 10.19C20.1625 9.94671 19.8987 9.63787 19.7084 9.28424C19.5181 8.9306 19.4057 8.54035 19.3787 8.13967C19.3517 7.739 19.4107 7.33721 19.5518 6.96124C19.693 6.58527 19.9128 6.24383 20.1968 5.95987C20.4808 5.6759 20.8222 5.45598 21.1982 5.31488C21.5742 5.17377 21.976 5.11474 22.3767 5.14175C22.7773 5.16876 23.1676 5.28117 23.5212 5.47146C23.8748 5.66175 24.1837 5.92549 24.427 6.24499Z" fill="#2D2C2C"/>
</g>
</g>
</svg>
