<svg width="40" height="51" viewBox="0 0 40 51" fill="none" xmlns="http://www.w3.org/2000/svg">
<g id="83">
<g id="Group 2747">
<path id="Rectangle 129" d="M17.2923 3.07256L2.46856 17.8964C1.15874 19.2062 1.15874 21.3298 2.46856 22.6396L17.2923 37.4634C18.6022 38.7732 20.7258 38.7732 22.0356 37.4634L36.8594 22.6396C38.1692 21.3298 38.1692 19.2062 36.8594 17.8964L22.0356 3.07256C20.7258 1.76274 18.6022 1.76274 17.2923 3.07256Z" fill="#F9B938"/>
</g>
<g id="Group 2756" opacity="0.4">
<g id="Group 2749" opacity="0.4">
<g id="Group 2748" opacity="0.4">
<path id="Path 1651" opacity="0.4" d="M13.4 31.814L9.37196 27.786C9.27686 27.6843 9.22502 27.5496 9.22737 27.4103C9.22972 27.271 9.28605 27.1381 9.38454 27.0396C9.48303 26.9411 9.61594 26.8848 9.7552 26.8824C9.89447 26.88 10.0292 26.9319 10.1309 27.027L14.159 31.055C14.2541 31.1568 14.3059 31.2915 14.3035 31.4307C14.3012 31.57 14.2449 31.7029 14.1464 31.8014C14.0479 31.8999 13.915 31.9563 13.7757 31.9586C13.6364 31.961 13.5017 31.9091 13.4 31.814Z" fill="white"/>
</g>
</g>
<g id="Group 2751" opacity="0.4">
<g id="Group 2750" opacity="0.4">
<path id="Path 1652" opacity="0.4" d="M7.94191 26.36L7.45992 25.877C7.36481 25.7753 7.31291 25.6406 7.31526 25.5013C7.31761 25.362 7.374 25.2291 7.47249 25.1306C7.57098 25.0321 7.70389 24.9758 7.84316 24.9734C7.98242 24.9711 8.11713 25.0229 8.21889 25.118L8.70088 25.601C8.79599 25.7028 8.84783 25.8375 8.84547 25.9768C8.84312 26.116 8.7868 26.2489 8.68831 26.3474C8.58982 26.4459 8.45691 26.5022 8.31764 26.5046C8.17838 26.5069 8.04367 26.4551 7.94191 26.36Z" fill="white"/>
</g>
</g>
<g id="Group 2753" opacity="0.4">
<g id="Group 2752" opacity="0.4">
<path id="Path 1653" opacity="0.4" d="M8.66895 14.1C8.61903 14.0502 8.57939 13.9911 8.55237 13.926C8.52534 13.8608 8.51147 13.791 8.51147 13.7205C8.51147 13.65 8.52534 13.5802 8.55237 13.5151C8.57939 13.45 8.61903 13.3908 8.66895 13.341L12.1979 9.81097C12.2987 9.71032 12.4354 9.65384 12.5778 9.65393C12.7203 9.65402 12.8568 9.71074 12.9575 9.81152C13.0581 9.91231 13.1146 10.0489 13.1145 10.1913C13.1144 10.3338 13.0577 10.4703 12.9569 10.571L9.42792 14.1C9.37813 14.1499 9.31903 14.1895 9.25391 14.2166C9.18879 14.2436 9.11897 14.2575 9.04846 14.2575C8.97796 14.2575 8.90814 14.2436 8.84302 14.2166C8.7779 14.1895 8.71874 14.1499 8.66895 14.1Z" fill="white"/>
</g>
</g>
<g id="Group 2755" opacity="0.4">
<g id="Group 2754" opacity="0.4">
<path id="Path 1654" opacity="0.4" d="M13.7729 9.00002C13.6726 8.89903 13.6162 8.76241 13.6162 8.62001C13.6162 8.47761 13.6726 8.34099 13.7729 8.24001L14.4929 7.52101C14.5947 7.4259 14.7295 7.37407 14.8687 7.37642C15.008 7.37877 15.1408 7.4351 15.2393 7.53358C15.3378 7.63207 15.3942 7.76499 15.3965 7.90425C15.3989 8.04351 15.3471 8.17829 15.252 8.28004L14.5319 9.00002C14.4311 9.10035 14.2947 9.15669 14.1525 9.15669C14.0102 9.15669 13.8738 9.10035 13.7729 9.00002Z" fill="white"/>
</g>
</g>
</g>
<g id="Group 2757">
<path id="Path 1655" d="M36.864 22.635L22.0359 37.464C21.4065 38.0931 20.5529 38.4465 19.663 38.4465C18.773 38.4465 17.9194 38.0931 17.2899 37.464L16.2159 36.39C16.8461 37.015 17.6982 37.3648 18.5857 37.3627C19.4732 37.3607 20.3237 37.007 20.9509 36.379L35.78 21.551C36.0914 21.2404 36.3384 20.8713 36.507 20.4651C36.6755 20.0588 36.7623 19.6233 36.7623 19.1835C36.7623 18.7436 36.6755 18.3082 36.507 17.9019C36.3384 17.4957 36.0914 17.1266 35.78 16.816L36.864 17.9C37.1754 18.2107 37.4224 18.5796 37.5909 18.9859C37.7595 19.3922 37.8463 19.8277 37.8463 20.2675C37.8463 20.7074 37.7595 21.1429 37.5909 21.5491C37.4224 21.9554 37.1754 22.3244 36.864 22.635Z" fill="#E5A320"/>
</g>
<g id="Group 2758">
<path id="Rectangle 130" d="M17.8976 7.46227L6.85827 18.5016C5.88274 19.4772 5.88274 21.0588 6.85827 22.0343L17.8976 33.0737C18.8732 34.0492 20.4548 34.0492 21.4303 33.0737L32.4697 22.0343C33.4452 21.0588 33.4452 19.4772 32.4697 18.5016L21.4303 7.46228C20.4548 6.48675 18.8732 6.48674 17.8976 7.46227Z" fill="#F7E839"/>
</g>
<g id="Group 2759">
<path id="Path 1656" d="M33.085 21.036C32.9686 20.6535 32.7582 20.3062 32.473 20.026L21.435 8.98798C20.9662 8.51991 20.3309 8.25702 19.6685 8.25702C19.0061 8.25702 18.3707 8.51991 17.9019 8.98798L6.86397 20.026C6.58144 20.3122 6.37158 20.662 6.25197 21.046C6.11059 20.6076 6.09172 20.1388 6.19747 19.6904C6.30322 19.242 6.52955 18.8311 6.85195 18.502L17.9 7.46301C18.3687 6.99495 19.004 6.73206 19.6665 6.73206C20.3289 6.73206 20.9642 6.99495 21.4329 7.46301L32.473 18.5C32.7994 18.8248 33.0294 19.2338 33.1375 19.6815C33.2455 20.1291 33.2274 20.598 33.085 21.036Z" fill="#EDD318"/>
</g>
<g id="Group 2760">
<path id="Path 1657" d="M30.153 39.928V46.592H9.17493V39.928C9.17493 39.3952 9.38661 38.8842 9.76337 38.5074C10.1401 38.1307 10.6511 37.919 11.184 37.919H28.145C28.6776 37.9193 29.1883 38.131 29.5649 38.5078C29.9414 38.8845 30.153 39.3953 30.153 39.928Z" fill="#474646"/>
</g>
<g id="Group 2761">
<path id="Path 1658" d="M30.155 39.933V46.59H9.17395V46.021H28.463C28.7406 46.021 29.007 45.9107 29.2033 45.7144C29.3997 45.518 29.5099 45.2517 29.5099 44.974V39.364C29.5122 38.9421 29.3767 38.5309 29.124 38.193C29.4381 38.3615 29.7002 38.6126 29.882 38.9193C30.0637 39.226 30.1581 39.5765 30.155 39.933Z" fill="#2D2C2C"/>
</g>
<g id="Group 2762">
<path id="Rectangle 131" d="M31.0269 46.592H8.30092C8.03306 46.592 7.81592 46.8091 7.81592 47.077V49.601C7.81592 49.8688 8.03306 50.086 8.30092 50.086H31.0269C31.2948 50.086 31.5119 49.8688 31.5119 49.601V47.077C31.5119 46.8091 31.2948 46.592 31.0269 46.592Z" fill="#474646"/>
</g>
<g id="Group 2763">
<path id="Path 1659" d="M31.5079 49.038V49.596C31.509 49.7256 31.4586 49.8503 31.3679 49.9429C31.2772 50.0355 31.1535 50.0884 31.0239 50.09H8.29988C8.17045 50.0882 8.047 50.0352 7.9565 49.9426C7.866 49.8501 7.81584 49.7255 7.81691 49.596V49.038C7.81665 49.1015 7.82893 49.1644 7.85311 49.2231C7.87728 49.2819 7.91288 49.3352 7.95778 49.3801C8.00268 49.425 8.05604 49.4606 8.11476 49.4848C8.17348 49.509 8.23638 49.5213 8.29988 49.521H31.0199C31.0838 49.5218 31.1472 49.5099 31.2064 49.486C31.2657 49.462 31.3195 49.4265 31.3649 49.3816C31.4104 49.3366 31.4464 49.2832 31.4709 49.2242C31.4954 49.1652 31.508 49.1019 31.5079 49.038Z" fill="#2D2C2C"/>
</g>
<g id="Group 2764">
<path id="Rectangle 132" d="M25.507 39.902H13.821C13.4603 39.902 13.168 40.1943 13.168 40.555V44.052C13.168 44.4126 13.4603 44.705 13.821 44.705H25.507C25.8676 44.705 26.16 44.4126 26.16 44.052V40.555C26.16 40.1943 25.8676 39.902 25.507 39.902Z" fill="#E4E3FF"/>
</g>
<g id="Group 2765">
<path id="Path 1660" d="M26.1269 40.374C26.078 40.3606 26.0276 40.3532 25.9769 40.352H14.2939C14.1204 40.3528 13.9543 40.4221 13.8316 40.5447C13.709 40.6674 13.6397 40.8335 13.6389 41.007V44.497C13.6383 44.5591 13.6492 44.6208 13.6709 44.679C13.528 44.6461 13.4006 44.5654 13.3097 44.4503C13.2188 44.3352 13.1699 44.1926 13.1709 44.046V40.556C13.1704 40.4699 13.187 40.3844 13.2197 40.3047C13.2524 40.225 13.3006 40.1526 13.3615 40.0917C13.4225 40.0307 13.4949 39.9825 13.5746 39.9498C13.6543 39.917 13.7397 39.9005 13.8259 39.901H25.4999C25.6423 39.8983 25.7815 39.9434 25.8952 40.0292C26.0088 40.1149 26.0904 40.2364 26.1269 40.374Z" fill="#D0D0F7"/>
</g>
<g id="Group 2767" opacity="0.2">
<g id="Group 2766" opacity="0.2">
<path id="Path 1661" opacity="0.2" d="M16.2328 48.42H12.0329C11.926 48.42 11.8235 48.3775 11.7479 48.3019C11.6723 48.2264 11.6299 48.1239 11.6299 48.017C11.6299 47.9101 11.6723 47.8076 11.7479 47.7321C11.8235 47.6565 11.926 47.614 12.0329 47.614H16.2328C16.3397 47.614 16.4422 47.6565 16.5178 47.7321C16.5934 47.8076 16.6359 47.9101 16.6359 48.017C16.6359 48.1239 16.5934 48.2264 16.5178 48.3019C16.4422 48.3775 16.3397 48.42 16.2328 48.42Z" fill="white"/>
</g>
</g>
<g id="Group 2769" opacity="0.2">
<g id="Group 2768" opacity="0.2">
<path id="Path 1662" opacity="0.2" d="M10.4449 48.42H10.145C10.0381 48.42 9.93556 48.3775 9.85999 48.3019C9.78441 48.2264 9.74194 48.1239 9.74194 48.017C9.74194 47.9101 9.78441 47.8076 9.85999 47.7321C9.93556 47.6565 10.0381 47.614 10.145 47.614H10.4449C10.5518 47.614 10.6543 47.6565 10.7299 47.7321C10.8055 47.8076 10.848 47.9101 10.848 48.017C10.848 48.1239 10.8055 48.2264 10.7299 48.3019C10.6543 48.3775 10.5518 48.42 10.4449 48.42Z" fill="white"/>
</g>
</g>
<g id="Group 2772">
<g id="Group 2770">
<path id="Ellipse 21" d="M19.664 27.878C23.8668 27.878 27.274 24.4709 27.274 20.268C27.274 16.0651 23.8668 12.658 19.664 12.658C15.4611 12.658 12.054 16.0651 12.054 20.268C12.054 24.4709 15.4611 27.878 19.664 27.878Z" fill="white"/>
</g>
<g id="Group 2771">
<path id="Path 1663" d="M13.8699 25.191C15.3235 26.4389 17.1947 27.0918 19.1091 27.019C21.0234 26.9462 22.8398 26.1532 24.1944 24.7985C25.549 23.4439 26.3421 21.6276 26.4149 19.7132C26.4876 17.7988 25.8347 15.9276 24.5869 14.474C25.381 15.1558 26.0258 15.9942 26.4808 16.9368C26.9358 17.8794 27.1911 18.9059 27.2309 19.9518C27.2707 20.9977 27.094 22.0406 26.7119 23.015C26.3298 23.9894 25.7505 24.8744 25.0104 25.6145C24.2703 26.3546 23.3853 26.9339 22.4109 27.316C21.4365 27.6981 20.3936 27.8748 19.3477 27.835C18.3017 27.7953 17.2753 27.5399 16.3327 27.0849C15.3901 26.6299 14.5517 25.9851 13.8699 25.191Z" fill="#E4E3FF"/>
</g>
</g>
<g id="Group 2777">
<g id="Group 2773">
<path id="Path 1664" d="M20.5999 16.247L21.5109 18.094L23.5489 18.394C23.7426 18.4219 23.9246 18.5035 24.0744 18.6295C24.2241 18.7555 24.3356 18.9208 24.3961 19.1069C24.4567 19.293 24.464 19.4924 24.4171 19.6824C24.3702 19.8724 24.2711 20.0454 24.1309 20.182L22.6559 21.619L23.0039 23.65C23.0371 23.8428 23.0156 24.0411 22.9419 24.2223C22.8682 24.4035 22.7453 24.5605 22.5871 24.6755C22.4288 24.7905 22.2415 24.8589 22.0464 24.8729C21.8512 24.887 21.656 24.8461 21.4829 24.755L19.6599 23.796L17.8359 24.755C17.6628 24.8461 17.4676 24.887 17.2725 24.8729C17.0774 24.8589 16.8901 24.7905 16.7318 24.6755C16.5735 24.5605 16.4505 24.4035 16.3769 24.2223C16.3032 24.0411 16.2817 23.8428 16.3149 23.65L16.6629 21.619L15.1889 20.182C15.0488 20.0455 14.9496 19.8725 14.9027 19.6826C14.8557 19.4926 14.8629 19.2934 14.9234 19.1073C14.9838 18.9212 15.0952 18.7558 15.2448 18.6298C15.3944 18.5037 15.5763 18.422 15.7699 18.394L17.8079 18.094L18.7189 16.247C18.8056 16.0716 18.9395 15.9239 19.1057 15.8206C19.2719 15.7173 19.4637 15.6626 19.6594 15.6626C19.8551 15.6626 20.0468 15.7173 20.213 15.8206C20.3792 15.9239 20.5132 16.0716 20.5999 16.247Z" fill="#F9B938"/>
</g>
<g id="Group 2775" opacity="0.4">
<g id="Group 2774" opacity="0.4">
<path id="Path 1665" opacity="0.4" d="M19.9 17.429C19.9044 17.4999 19.8807 17.5695 19.8341 17.6231C19.7875 17.6766 19.7217 17.7097 19.651 17.715C19.6079 17.7178 19.5663 17.7318 19.5303 17.7557C19.4943 17.7796 19.4653 17.8124 19.4459 17.851L18.9 18.959C18.8431 19.0748 18.7586 19.1748 18.654 19.2503C18.5493 19.3258 18.4278 19.3745 18.2999 19.392L17.078 19.57C17.0317 19.5748 16.9879 19.5934 16.9522 19.6234C16.9166 19.6533 16.8907 19.6932 16.878 19.738C16.8628 19.7816 16.8602 19.8286 16.8707 19.8736C16.8811 19.9185 16.9041 19.9596 16.937 19.992L16.943 19.997L17.8129 20.846C17.8385 20.8708 17.8589 20.9004 17.873 20.9331C17.8871 20.9658 17.8947 21.001 17.8952 21.0366C17.8957 21.0722 17.8892 21.1076 17.876 21.1407C17.8628 21.1738 17.8433 21.204 17.8184 21.2295C17.7936 21.2551 17.764 21.2755 17.7313 21.2896C17.6986 21.3037 17.6634 21.3112 17.6278 21.3117C17.5922 21.3122 17.5569 21.3057 17.5238 21.2926C17.4907 21.2794 17.4605 21.2598 17.435 21.235L16.602 20.414C16.5869 20.406 16.574 20.3947 16.564 20.381C16.4565 20.2792 16.3804 20.1486 16.345 20.0048C16.3095 19.8611 16.3161 19.7102 16.364 19.57C16.4087 19.429 16.4923 19.3034 16.6051 19.2077C16.718 19.112 16.8555 19.0501 17.002 19.029L18.219 18.856C18.2595 18.8498 18.2978 18.8338 18.3308 18.8094C18.3637 18.785 18.3902 18.753 18.408 18.716L18.9539 17.616C18.9921 17.539 19.0436 17.4692 19.106 17.41C19.1165 17.3942 19.129 17.3798 19.143 17.367C19.2741 17.2571 19.4371 17.1926 19.6079 17.183C19.6433 17.1796 19.6791 17.1833 19.713 17.1939C19.747 17.2044 19.7785 17.2217 19.8057 17.2446C19.8329 17.2675 19.8553 17.2956 19.8715 17.3273C19.8877 17.359 19.8974 17.3936 19.9 17.429Z" fill="white"/>
</g>
</g>
<g id="Group 2776">
<path id="Path 1666" d="M24.1339 20.181L22.6579 21.614L22.9579 23.36L23.0069 23.647C23.039 23.8394 23.0167 24.037 22.9425 24.2174C22.8684 24.3978 22.7454 24.554 22.5873 24.6683C22.4292 24.7827 22.2424 24.8506 22.0478 24.8645C21.8532 24.8784 21.6586 24.8377 21.4859 24.747L20.7569 24.363L19.6569 23.79L17.8339 24.747C17.6613 24.8376 17.4668 24.8781 17.2724 24.8641C17.078 24.8501 16.8913 24.7822 16.7334 24.6678C16.5755 24.5535 16.4527 24.3974 16.3788 24.217C16.3049 24.0367 16.2827 23.8392 16.3149 23.647L16.3639 23.347C16.416 23.4864 16.4972 23.6132 16.602 23.7189C16.7069 23.8245 16.833 23.9067 16.972 23.9599C17.111 24.0131 17.2598 24.036 17.4084 24.0272C17.557 24.0184 17.7021 23.9781 17.8339 23.909L19.3689 23.098C19.4553 23.0525 19.5527 23.0319 19.6501 23.0384C19.7476 23.0449 19.8413 23.0784 19.9209 23.135L20.8019 23.764C20.9101 23.8441 21.0377 23.8939 21.1716 23.9084C21.3055 23.9228 21.4408 23.9013 21.5636 23.8461C21.6864 23.7909 21.7923 23.7041 21.8704 23.5944C21.9485 23.4847 21.9959 23.3561 22.0079 23.222C22.0102 23.1886 22.0085 23.155 22.0029 23.122L21.7029 21.366C21.6886 21.2822 21.6947 21.1961 21.7208 21.1151C21.747 21.0342 21.7923 20.9607 21.8529 20.901L23.1269 19.656C23.2996 19.4892 23.4095 19.2679 23.4381 19.0294C23.4667 18.791 23.4123 18.5499 23.2839 18.347L23.5489 18.385C23.7443 18.4116 23.9282 18.4928 24.0796 18.6191C24.231 18.7455 24.3437 18.912 24.4047 19.0995C24.4658 19.287 24.4728 19.4879 24.4249 19.6792C24.377 19.8705 24.2761 20.0444 24.1339 20.181Z" fill="#E5A320"/>
</g>
</g>
<g id="Group 2782">
<g id="Group 2779" opacity="0.2">
<g id="Group 2778" opacity="0.2">
<path id="Path 1667" opacity="0.2" d="M10.5789 43.876V42.576C10.5789 42.4699 10.621 42.3682 10.696 42.2932C10.7711 42.2181 10.8728 42.176 10.9789 42.176C11.085 42.176 11.1867 42.2181 11.2617 42.2932C11.3367 42.3682 11.3789 42.4699 11.3789 42.576V43.876C11.3789 43.9821 11.3367 44.0838 11.2617 44.1588C11.1867 44.2338 11.085 44.276 10.9789 44.276C10.8728 44.276 10.7711 44.2338 10.696 44.1588C10.621 44.0838 10.5789 43.9821 10.5789 43.876Z" fill="white"/>
</g>
</g>
<g id="Group 2781" opacity="0.2">
<g id="Group 2780" opacity="0.2">
<path id="Path 1668" opacity="0.2" d="M10.5789 40.987V40.687C10.5789 40.5809 10.621 40.4792 10.696 40.4042C10.7711 40.3292 10.8728 40.287 10.9789 40.287C11.085 40.287 11.1867 40.3292 11.2617 40.4042C11.3367 40.4792 11.3789 40.5809 11.3789 40.687V40.987C11.3789 41.0931 11.3367 41.1948 11.2617 41.2698C11.1867 41.3449 11.085 41.387 10.9789 41.387C10.8728 41.387 10.7711 41.3449 10.696 41.2698C10.621 41.1948 10.5789 41.0931 10.5789 40.987Z" fill="white"/>
</g>
</g>
</g>
</g>
</svg>
