
<svg width="96" height="24" viewBox="0 0 96 24" fill="none" xmlns="http://www.w3.org/2000/svg">
<g clip-path="url(#clip0_17_107)">
<path d="M21.4326 9.4294H23.4588C23.5946 9.42941 23.7272 9.38827 23.8387 9.31151C23.9503 9.23475 24.0354 9.12603 24.0827 8.99998L24.7957 7.15293C24.9037 6.88498 25.092 6.6562 25.3353 6.49739C25.5785 6.33859 25.8651 6.25738 26.1564 6.26469H35.5209C35.7224 6.26342 35.9218 6.30535 36.1054 6.3876C36.289 6.46985 36.4525 6.59046 36.5845 6.74116L39.5198 10.0059C39.7352 10.2459 39.8619 10.5512 39.8791 10.8718C39.8964 11.1923 39.8032 11.5092 39.6149 11.7706L36.7806 15.6765C36.6453 15.8623 36.4665 16.0128 36.2595 16.1153C36.0525 16.2177 35.8236 16.269 35.5922 16.2647H27.0893C27.0274 16.2642 26.9665 16.2491 26.9116 16.2208C26.8566 16.1925 26.8093 16.1517 26.7733 16.1018C26.7374 16.0519 26.7139 15.9942 26.7048 15.9336C26.6957 15.873 26.7012 15.811 26.7209 15.7529L26.9111 15.2C26.938 15.1245 26.9879 15.0591 27.0538 15.0128C27.1198 14.9664 27.1986 14.9414 27.2795 14.9412H28.6283C28.7556 14.9378 28.8793 14.8983 28.9846 14.8274C29.0899 14.7565 29.1725 14.6571 29.2225 14.5412L29.9652 12.847C30.0092 12.7479 30.0278 12.6396 30.0194 12.5317C30.011 12.4238 29.9759 12.3195 29.9172 12.2282C29.8584 12.1369 29.7779 12.0614 29.6826 12.0082C29.5873 11.9551 29.4803 11.926 29.371 11.9235H25.5266C25.3973 11.9284 25.2721 11.9705 25.1666 12.0447C25.0611 12.1188 24.9797 12.2219 24.9324 12.3411L22.3714 18.6647C22.3312 18.7629 22.3155 18.8694 22.3257 18.9749C22.3359 19.0805 22.3717 19.182 22.4301 19.2709C22.4884 19.3598 22.5675 19.4335 22.6608 19.4857C22.754 19.5379 22.8586 19.567 22.9656 19.5706H29.163C29.8858 19.5695 30.5914 19.7894 31.1833 20.2L33.1917 21.5823C33.6703 21.9112 34.2543 22.0545 34.8327 21.9851C35.4111 21.9157 35.9436 21.6384 36.329 21.2059L42.9602 13.7823C43.6592 12.9899 44.0252 11.9626 43.9832 10.9114C43.9412 9.86019 43.4944 8.86475 42.7344 8.1294L37.7254 3.32351C36.9376 2.56456 35.9084 2.09938 34.8131 2.00714C33.7178 1.91491 32.624 2.20133 31.7181 2.81764C31.6076 2.89149 31.4771 2.93044 31.3437 2.92939H23.6192C23.491 2.9352 23.367 2.97701 23.2618 3.04991C23.1566 3.12282 23.0745 3.22382 23.025 3.34116L20.8087 8.51175C20.7666 8.61295 20.7505 8.72286 20.7616 8.83174C20.7728 8.94061 20.8109 9.04507 20.8726 9.13585C20.9343 9.22663 21.0177 9.30092 21.1154 9.35213C21.2131 9.40334 21.3221 9.42988 21.4326 9.4294Z" fill="white"/>
<path d="M16.9048 16.2647H8.37812C8.14677 16.269 7.91782 16.2177 7.71085 16.1153C7.50389 16.0129 7.32508 15.8623 7.18974 15.6765L4.38515 11.7706C4.19681 11.5092 4.10367 11.1924 4.12094 10.8718C4.13821 10.5512 4.26488 10.2459 4.48022 10.0059L7.41553 6.74118C7.54759 6.59048 7.71104 6.46987 7.89463 6.38762C8.07823 6.30537 8.27763 6.26344 8.47914 6.26471H19.6203C19.7469 6.26182 19.8701 6.22321 19.9754 6.15339C20.0806 6.08357 20.1636 5.98546 20.2145 5.87058L21.1057 3.86471C21.151 3.76533 21.1706 3.65639 21.1629 3.54766C21.1551 3.43892 21.1202 3.33378 21.0614 3.24167C21.0025 3.14956 20.9214 3.07335 20.8255 3.01988C20.7295 2.96641 20.6216 2.93735 20.5116 2.93529H12.6623C12.5289 2.93635 12.3984 2.89738 12.2879 2.82353C11.3819 2.20722 10.2882 1.9208 9.19291 2.01303C8.0976 2.10527 7.06843 2.57047 6.28062 3.32942L1.27158 8.11177C0.511604 8.84713 0.0647704 9.84256 0.0227821 10.8938C-0.0192062 11.945 0.346842 12.9722 1.04579 13.7647L7.67698 21.1882C8.06242 21.6208 8.5949 21.8981 9.17329 21.9675C9.75167 22.0369 10.3357 21.8935 10.8143 21.5647L12.8227 20.1824C13.4146 19.7717 14.1201 19.5519 14.8429 19.5529H19.1984C19.3255 19.5488 19.4489 19.5091 19.5541 19.4382C19.6593 19.3674 19.742 19.2685 19.7926 19.1529L22.5496 12.9C22.5936 12.8009 22.6122 12.6926 22.6038 12.5846C22.5955 12.4767 22.5603 12.3725 22.5016 12.2812C22.4429 12.1899 22.3623 12.1143 22.267 12.0612C22.1718 12.008 22.0648 11.9789 21.9554 11.9765H20.1729C20.0483 11.9785 19.9267 12.0147 19.8218 12.0812C19.7169 12.1477 19.6327 12.2418 19.5787 12.3529L17.8912 15.8824C17.8391 15.9955 17.7556 16.0915 17.6503 16.1592C17.5451 16.227 17.4225 16.2636 17.297 16.2647H16.9048Z" fill="#9E00B8"/>
</g>
<path d="M56.19 10.14C57.48 10.14 58.52 9.67 59.2 8.82L57.94 7.68C57.5 8.21 56.96 8.5 56.29 8.5C55.14 8.5 54.34 7.7 54.34 6.5C54.34 5.3 55.14 4.5 56.29 4.5C56.96 4.5 57.5 4.79 57.94 5.32L59.2 4.18C58.52 3.33 57.48 2.86 56.19 2.86C53.97 2.86 52.34 4.37 52.34 6.5C52.34 8.63 53.97 10.14 56.19 10.14ZM64.4128 10H66.5328L65.0228 7.8C65.8928 7.38 66.3928 6.62 66.3928 5.59C66.3928 3.99 65.1928 3 63.2828 3H60.0828V10H62.0628V8.14H63.1428L64.4128 10ZM64.3928 5.59C64.3928 6.23 63.9828 6.61 63.1628 6.61H62.0628V4.56H63.1628C63.9828 4.56 64.3928 4.94 64.3928 5.59ZM73.8175 3H71.8975L70.2375 5.78L68.5775 3H66.4875L69.1575 7.46V10H71.1375V7.49L73.8175 3ZM77.4918 3H74.2918V10H76.2718V8.17H77.4918C79.4018 8.17 80.6018 7.18 80.6018 5.59C80.6018 3.99 79.4018 3 77.4918 3ZM77.3718 6.61H76.2718V4.56H77.3718C78.1918 4.56 78.6018 4.94 78.6018 5.59C78.6018 6.23 78.1918 6.61 77.3718 6.61ZM82.8814 10H84.8614V4.57H87.0014V3H80.7314V4.57H82.8814V10ZM91.1714 10.14C93.4114 10.14 95.0614 8.6 95.0614 6.5C95.0614 4.4 93.4114 2.86 91.1714 2.86C88.9314 2.86 87.2814 4.4 87.2814 6.5C87.2814 8.6 88.9314 10.14 91.1714 10.14ZM91.1714 8.5C90.1114 8.5 89.2814 7.71 89.2814 6.5C89.2814 5.29 90.1114 4.5 91.1714 4.5C92.2314 4.5 93.0614 5.29 93.0614 6.5C93.0614 7.71 92.2314 8.5 91.1714 8.5Z" fill="white"/>
<path d="M57.39 19.78C57.04 19.94 56.69 20.01 56.32 20.01C55.14 20.01 54.34 19.19 54.34 18.01C54.34 16.8 55.14 16.01 56.34 16.01C57.01 16.01 57.56 16.26 58.04 16.79L59.3 15.65C58.61 14.82 57.55 14.37 56.24 14.37C53.97 14.37 52.34 15.88 52.34 18.01C52.34 20.14 53.97 21.65 56.2 21.65C57.22 21.65 58.33 21.34 59.14 20.76V17.86H57.39V19.78ZM65.6353 21.51H67.6953L64.5953 14.51H62.6453L59.5553 21.51H61.5753L62.1253 20.15H65.0853L65.6353 21.51ZM62.7053 18.69L63.6053 16.45L64.5053 18.69H62.7053ZM76.3966 21.51L76.3766 14.51H74.7466L72.3466 18.55L69.8866 14.51H68.2566V21.51H70.0866V17.9L71.8766 20.82H72.7566L74.5566 17.8L74.5766 21.51H76.3966ZM79.7577 19.98V18.7H82.8677V17.22H79.7577V16.04H83.2877V14.51H77.7977V21.51H83.4177V19.98H79.7577ZM86.9764 21.65C89.0564 21.65 90.0764 20.61 90.0764 19.39C90.0764 16.81 86.1064 17.61 86.1064 16.54C86.1064 16.19 86.4064 15.91 87.2364 15.91C87.8464 15.91 88.5064 16.09 89.1764 16.45L89.7864 14.98C89.0964 14.58 88.1564 14.37 87.2464 14.37C85.1664 14.37 84.1464 15.39 84.1464 16.64C84.1464 19.24 88.1264 18.43 88.1264 19.54C88.1264 19.88 87.8064 20.11 86.9864 20.11C86.1764 20.11 85.2964 19.83 84.6764 19.42L84.0264 20.88C84.6864 21.34 85.8264 21.65 86.9764 21.65Z" fill="white"/>
<defs>
<clipPath id="clip0_17_107">
<rect width="44" height="20" fill="white" transform="translate(0 2)"/>
</clipPath>
</defs>
</svg>
